<svg id="Capa_2" data-name="Capa 2" xmlns="http://www.w3.org/2000/svg" xmlns:xlink="http://www.w3.org/1999/xlink" viewBox="0 0 953.48 362.78"><defs><style>.cls-1{fill:none;}.cls-2{fill:#2a2648;}.cls-3{fill:#e1aa4b;}.cls-4{fill:#fbc966;}.cls-5{fill:#eb5b3f;}.cls-6{fill:#618c43;}.cls-7{fill:#e7efdc;}.cls-8{fill:#d0785f;}.cls-9{fill:#bb5a43;}.cls-10{fill:#eed6d2;}.cls-11{fill:#40543c;}.cls-12{fill:#d5867c;}.cls-13{clip-path:url(#clip-path);}.cls-14{fill:#c8595d;}.cls-15{fill:#faf5f1;}.cls-16{fill:#dca2a9;}.cls-17{fill:#26a737;}.cls-18{fill:#382a48;}.cls-19{fill:#cd6a4f;}.cls-20{fill:#0c8136;}.cls-21{fill:#487e43;}.cls-22{fill:#f18639;}.cls-23{clip-path:url(#clip-path-2);}.cls-24,.cls-28,.cls-34{fill:#fbf7f2;}.cls-24{opacity:0.13;}.cls-24,.cls-28,.cls-34,.cls-42{isolation:isolate;}.cls-25{fill:#f7f5f0;}.cls-26{fill:#4b9b54;}.cls-27{clip-path:url(#clip-path-3);}.cls-28{opacity:0.28;}.cls-29{fill:#7c4925;}.cls-30{fill:#fff;}.cls-31{fill:#ea8489;}.cls-32{fill:#044169;}.cls-33{clip-path:url(#clip-path-4);}.cls-34{opacity:0.09;}.cls-35{clip-path:url(#clip-path-5);}.cls-36{fill:#1e2534;}.cls-37{fill:#a2b54c;}.cls-38{fill:#d6df8c;}.cls-39{fill:#ef7e51;}.cls-40{fill:#cd6c49;}.cls-41{fill:#e1b2a7;}.cls-42{fill:#cfd1d2;opacity:0.46;}.cls-43{fill:#c3413e;}.cls-44{fill:#06a3cf;}.cls-45{fill:#049fce;}.cls-46{fill:#3c60a4;}.cls-47{fill:#e83b42;}.cls-48{fill:#e7c4c8;}.cls-49{clip-path:url(#clip-path-6);}</style><clipPath id="clip-path" transform="translate(-0.49 0)"><path class="cls-1" d="M606.18,164.74a17,17,0,0,0,13.69,2.86c1.38-.31,2.92-0.78,4.12,0a3,3,0,0,1,1.18,2.93,6.11,6.11,0,0,1-1.47,2.95,13.22,13.22,0,0,1-12.14,4.57,12.85,12.85,0,0,1-9.89-8.38,6.34,6.34,0,0,1-.35-3.14,3.23,3.23,0,0,1,1.85-2.44,2.41,2.41,0,0,1,3,.67"/></clipPath><clipPath id="clip-path-2" transform="translate(-0.49 0)"><path class="cls-1" d="M299,176c-4.13-20.68-2.12-45.09-2.38-66.13-0.07-5.88.13-12.15,3.63-17,3.83-5.33,10.74-7.78,17.32-9.51,18.21-4.8,38.09-6.43,55.77-.1,6.42,2.3,12.83,6,15.47,12,1.44,3.27,1.62,6.89,1.77,10.43L393,161.47c0.14,3.16.25,6.46-1.15,9.34-1.89,3.9-6.14,6.25-10.27,8-26.34,11.47-57.4,10.73-82.58-2.85"/></clipPath><clipPath id="clip-path-3" transform="translate(-0.49 0)"><path class="cls-1" d="M344,143.51a15.33,15.33,0,0,0,12.58-.79c1.12-.6,2.36-1.38,3.57-1a2.7,2.7,0,0,1,1.73,2.26,5.53,5.53,0,0,1-.58,2.92,11.93,11.93,0,0,1-9.47,6.89,11.6,11.6,0,0,1-10.59-4.92,5.69,5.69,0,0,1-1.06-2.65,2.91,2.91,0,0,1,1-2.57,2.17,2.17,0,0,1,2.78-.14"/></clipPath><clipPath id="clip-path-4" transform="translate(-0.49 0)"><path class="cls-1" d="M501.93,271.47c-4.13-20.68-2.12-45.09-2.38-66.13-0.07-5.88.13-12.15,3.63-17,3.83-5.33,10.74-7.78,17.32-9.51,18.21-4.8,38.09-6.43,55.77-.1,6.42,2.3,12.83,6,15.47,12,1.44,3.27,1.62,6.89,1.77,10.43l2.41,55.78c0.14,3.16.25,6.46-1.15,9.34-1.89,3.9-6.14,6.25-10.27,8-26.34,11.47-57.4,10.73-82.57-2.85"/></clipPath><clipPath id="clip-path-5" transform="translate(-0.49 0)"><path class="cls-1" d="M546.87,239a15.33,15.33,0,0,0,12.58-.79c1.12-.6,2.36-1.38,3.57-1a2.7,2.7,0,0,1,1.73,2.26,5.49,5.49,0,0,1-.58,2.92,11.93,11.93,0,0,1-9.47,6.89,11.6,11.6,0,0,1-10.59-4.92,5.7,5.7,0,0,1-1.06-2.65,2.91,2.91,0,0,1,1-2.57,2.17,2.17,0,0,1,2.78-.14"/></clipPath><clipPath id="clip-path-6" transform="translate(-0.49 0)"><path class="cls-1" d="M367.5,229.75a15.33,15.33,0,0,0,12.58-.79c1.12-.6,2.36-1.38,3.57-1a2.69,2.69,0,0,1,1.73,2.26,5.51,5.51,0,0,1-.57,2.92,11.94,11.94,0,0,1-9.47,6.89,11.6,11.6,0,0,1-10.59-4.92,5.69,5.69,0,0,1-1.06-2.65,2.91,2.91,0,0,1,1-2.57,2.17,2.17,0,0,1,2.78-.14"/></clipPath></defs><title>banner2</title><path class="cls-2" d="M583.82,247a157.71,157.71,0,0,0-5.53,32c-0.12,1.77,2.6,1.75,2.75,0,0.9-10.59,2.19-21.18,3.83-31.68a0.55,0.55,0,0,0-1-.29h0v0Z" transform="translate(-0.49 0)"/><path class="cls-2" d="M580,274.4a11.9,11.9,0,0,0-9.84,1.84c-1.16.84-2.25,2.33-1.59,3.6a3.18,3.18,0,0,0,2.66,1.32,15.24,15.24,0,0,0,8.21-1.52" transform="translate(-0.49 0)"/><path class="cls-2" d="M615.33,255c-0.69,10.6-1.72,21.2-3.14,31.72-0.23,1.72,2.39,2.49,2.65.73A158,158,0,0,0,616.42,255a0.55,0.55,0,0,0-1.09,0h0Z" transform="translate(-0.49 0)"/><path class="cls-2" d="M614.23,282.6a11.9,11.9,0,0,1,9.21,3.93c1,1.07,1.69,2.76.77,3.86a3.18,3.18,0,0,1-2.89.71,15.26,15.26,0,0,1-7.68-3.27" transform="translate(-0.49 0)"/><path class="cls-3" d="M557.87,125c-5.59-1-8.82-7.78-7.26-13.23s6.69-9.3,12.14-10.88,11.24-1.26,16.91-.9c14.25,0.92,28.48,2.08,42.72,3.24,18.57,1.52,38.81,3.78,52,17,2.87,2.89,5.35,6.37,6.08,10.37s-0.64,8.57-4.08,10.75c-3.8,2.4-8.73,1.36-13.1.28A607.88,607.88,0,0,0,556,125.09" transform="translate(-0.49 0)"/><path class="cls-4" d="M553.87,123c35.89-6.35,75.64-4.89,108.25,11.39,2.65,1.32,5.45,2.89,6.75,5.55,1.69,3.45.35,7.55-1,11.14a652.63,652.63,0,0,1-57.7,114.53c-29.81,26.76-40.74-88-56.33-142.6" transform="translate(-0.49 0)"/><path class="cls-5" d="M554.6,122.78a15.93,15.93,0,0,0,20.27,17.42c3.9-1.15,7.18-3.73,10.74-5.7s7.86-3.34,11.64-1.86c6.14,2.41,7.56,10.67,12.75,14.75,4.67,3.67,11.47,3.15,17,1s10.39-5.8,15.9-8,12.26-2.9,17,.64c1.69,1.25,3,3,4.94,3.89s4.67,0.62,5.46-1.33c0.86-2.12-1.15-4.24-3-5.58-15.85-11.57-35.33-17.48-54.86-19.31s-39.24.22-58.61,3.37" transform="translate(-0.49 0)"/><path class="cls-6" d="M633,213.67a20.77,20.77,0,0,0,10.9-19.8c-0.59-7.28-5.62-15.84-13.14-17.55-2.7-.61-5.34,2.95-2.91,5,4.27,3.61,8.38,6.1,9.46,12.09,1.12,6.21-2,12-7,15.67-2.71,2-.37,6.28,2.68,4.58h0Z" transform="translate(-0.49 0)"/><path class="cls-6" d="M569.61,146.34c10.21,5,14.46,14,8.15,24.17-1.63,2.61,2.22,5.68,4.32,3.33,9.47-10.61,3.65-30.27-11.57-30.8-1.7-.06-2.48,2.52-0.89,3.3h0Z" transform="translate(-0.49 0)"/><path class="cls-7" d="M598.17,243.67c1.63-6.23-.62-12.49,1.55-19s6.94-10,10.38-15.35c1.16-1.83-.79-4.54-2.91-3.79-11.87,4.2-21.77,29.16-11.6,38.78a1.56,1.56,0,0,0,2.58-.68h0v0Z" transform="translate(-0.49 0)"/><path class="cls-7" d="M656.67,168.33a18.68,18.68,0,0,1-5.85-9c-1.21-4.21,0-7.52.91-11.58a2.93,2.93,0,0,0-5.33-2.25c-5.81,9-.11,20.72,8.41,25.23,1.47,0.78,3.28-1.25,1.87-2.42h0v0Z" transform="translate(-0.49 0)"/><circle class="cls-8" cx="588.9" cy="190.4" r="12.28" transform="translate(248.2 707.42) rotate(-74.57)"/><path class="cls-9" d="M589.87,193.16c4.87,0,4.88-7.57,0-7.57s-4.88,7.57,0,7.57h0Z" transform="translate(-0.49 0)"/><path class="cls-9" d="M581.62,196.28c4.25,0,4.26-6.61,0-6.61s-4.26,6.61,0,6.61h0Z" transform="translate(-0.49 0)"/><path class="cls-9" d="M588.06,194.91h-0.13a0.91,0.91,0,0,0-.46,1.68l0.11,0.06a0.92,0.92,0,1,0,.47-1.74h0Z" transform="translate(-0.49 0)"/><path class="cls-9" d="M598,190.22a1.61,1.61,0,0,0,0-3.22h0a1.61,1.61,0,0,0,0,3.22h0Z" transform="translate(-0.49 0)"/><path class="cls-9" d="M587.72,183.61a1.38,1.38,0,1,0-1.37-1.37,1.37,1.37,0,0,0,1.38,1.38h0Z" transform="translate(-0.49 0)"/><path class="cls-10" d="M596,195.52a1.31,1.31,0,1,0-1.31-1.31,1.31,1.31,0,0,0,1.31,1.31h0Z" transform="translate(-0.49 0)"/><path class="cls-10" d="M581.94,187.23a0.86,0.86,0,1,0-.76-0.76,0.86,0.86,0,0,0,.76.76h0Z" transform="translate(-0.49 0)"/><path class="cls-10" d="M592.58,184.53a1.09,1.09,0,1,0-1.09-1.09,1.09,1.09,0,0,0,1.09,1.09h0Z" transform="translate(-0.49 0)"/><path class="cls-10" d="M579.41,198c3-2.86,4.83-6.81,8-9.65,0.71-.63,2-2.22,3-2.37,1.85-.27,1.27.32,0.86,1.61-0.78,2.47-2.5,4.16-3.56,6.42-0.92,2-.37,4.28,2,4.7,2.73,0.48,7.12-2,8.75-4,0.81-1,.1-2.83-1.37-2.36-2.12.68-5.17,3.45-7.39,2.72l1.2,1.2c-0.51-1.25,2.26-4.72,2.77-5.92a11.07,11.07,0,0,0,1.2-4.48c-0.08-2-1.43-3.76-3.63-3.54-3,.29-6.25,4-8.12,6.05-2.26,2.51-4.74,5.65-5.06,9.09a0.77,0.77,0,0,0,1.3.54h0Z" transform="translate(-0.49 0)"/><circle class="cls-8" cx="613.05" cy="238.68" r="12.28" transform="translate(-43.82 194.48) rotate(-17.42)"/><path class="cls-9" d="M613.28,241.11c4.87,0,4.88-7.57,0-7.57s-4.88,7.57,0,7.57h0Z" transform="translate(-0.49 0)"/><path class="cls-9" d="M608.32,248.12c4.25,0,4.26-6.61,0-6.61s-4.26,6.61,0,6.61h0Z" transform="translate(-0.49 0)"/><path class="cls-9" d="M614.87,242.93l-0.11.06a0.91,0.91,0,0,0,.46,1.68h0.13a0.92,0.92,0,1,0-.47-1.74h0Z" transform="translate(-0.49 0)"/><path class="cls-9" d="M619.7,233.89a1.61,1.61,0,1,0-1.61-1.61,1.61,1.61,0,0,0,1.61,1.61h0Z" transform="translate(-0.49 0)"/><path class="cls-9" d="M607.63,233.86a1.38,1.38,0,1,0-1.26-1.26,1.38,1.38,0,0,0,1.26,1.26h0Z" transform="translate(-0.49 0)"/><path class="cls-10" d="M621.09,239.36a1.31,1.31,0,1,0-1.31-1.31,1.31,1.31,0,0,0,1.31,1.31h0Z" transform="translate(-0.49 0)"/><path class="cls-10" d="M605,240a0.86,0.86,0,1,0-.76-0.76,0.86,0.86,0,0,0,.76.76h0Z" transform="translate(-0.49 0)"/><path class="cls-10" d="M612.36,232a1.09,1.09,0,1,0-1.09-1.09,1.09,1.09,0,0,0,1.09,1.09h0Z" transform="translate(-0.49 0)"/><path class="cls-10" d="M609.16,250.25c1-4.39.4-8.93,1.77-13.36,0.23-.74,1.08-3.22,2.45-2.55,0.48,0.23.59,3.2,0.63,3.76,0.13,1.63-.34,3.54.18,5.13,2.26,6.95,8.94-3.34,9.27-6.45a1.42,1.42,0,0,0-2.41-1c-0.66.8-2.52,5.13-3.34,5.22-0.43,0-.51-4.09-0.7-5.14-0.43-2.38-1.47-6.42-4.72-6s-4.22,5.65-4.78,8.13c-0.88,3.9-1.59,8.77.26,12.45a0.77,0.77,0,0,0,1.39-.18h0Z" transform="translate(-0.49 0)"/><ellipse class="cls-11" cx="600.31" cy="200.94" rx="3.83" ry="1.05" transform="translate(165.13 661.15) rotate(-65.14)"/><ellipse class="cls-11" cx="610.6" cy="184.22" rx="1.05" ry="4.29" transform="translate(39.1 468.31) rotate(-43.24)"/><ellipse class="cls-11" cx="623.53" cy="185.44" rx="5.43" ry="1.05" transform="translate(39.3 472.52) rotate(-42.75)"/><ellipse class="cls-11" cx="601.27" cy="222.32" rx="4.08" ry="1.05" transform="translate(-39.56 252.38) rotate(-22.98)"/><ellipse class="cls-11" cx="622.56" cy="222.16" rx="4.78" ry="1.05" transform="translate(22.8 501.11) rotate(-44.6)"/><ellipse class="cls-11" cx="604.08" cy="252.91" rx="4.62" ry="1.05" transform="translate(213.35 778.81) rotate(-76.14)"/><path class="cls-12" d="M609.47,143.67c3,4.51,8.14,6.13,13.39,4.78,3.67-.94,6.78-3.26,9.84-5.37a43.81,43.81,0,0,1,12.57-6c2-.61,2.3-3.89,0-4.32-11.36-2.13-23.23,18.55-33.53,9.18-1.16-1.06-3.23.32-2.28,1.76h0v0Z" transform="translate(-0.49 0)"/><path class="cls-12" d="M650.09,136.3c2.16,0.91,4.19,2.34,6.56,2.49,1.83,0.11,3.1-2.61,1.58-3.83-2-1.6-4.63-2-7-2.8-2.66-.94-3.62,3.1-1.14,4.14h0Z" transform="translate(-0.49 0)"/><path class="cls-12" d="M574.75,135.44c2.62-1.4,5.78-2.25,8.57-3.29,2.46-.93,5.16-1.48,7.14-3.26,1.77-1.59.21-4.08-1.77-4.27-2.72-.27-5.67,1.36-8,2.56-2.85,1.44-5.08,3.41-7.69,5.17a1.79,1.79,0,0,0,1.8,3.09h0Z" transform="translate(-0.49 0)"/><path class="cls-2" d="M652.25,182.27c5.92-.06,11.32.16,16.34,3.75,5.51,3.94,8.08,10.37,8.09,17a1.57,1.57,0,0,0,3.14,0c0.22-13.63-13.46-28-27.79-22.27a0.79,0.79,0,0,0,.21,1.55h0v0Z" transform="translate(-0.49 0)"/><path class="cls-2" d="M679.48,204.36a3.63,3.63,0,0,0-5.13.07l-0.14.15a3.79,3.79,0,0,0,.82,5.27,4,4,0,0,0,5.29-1,4.14,4.14,0,0,0-.85-5.37" transform="translate(-0.49 0)"/><path class="cls-2" d="M567.59,169.88c-9.65-12-28.22-7.07-35.27,4.89a1.57,1.57,0,1,0,2.71,1.59h0c7.57-12.46,20.41-12.21,31.6-5.23a0.8,0.8,0,0,0,1-1.24h0Z" transform="translate(-0.49 0)"/><path class="cls-2" d="M531.92,176.11a3.63,3.63,0,0,1,4.37,2.69l0,0.2a3.79,3.79,0,0,1-3.41,4.1,4,4,0,0,1-4-3.6,4.14,4.14,0,0,1,3.49-4.17" transform="translate(-0.49 0)"/><path class="cls-2" d="M606.18,164.74a17,17,0,0,0,13.69,2.86c1.38-.31,2.92-0.78,4.12,0a3,3,0,0,1,1.18,2.93,6.11,6.11,0,0,1-1.47,2.95,13.22,13.22,0,0,1-12.14,4.57,12.85,12.85,0,0,1-9.89-8.38,6.34,6.34,0,0,1-.35-3.14,3.23,3.23,0,0,1,1.85-2.44,2.41,2.41,0,0,1,3,.67" transform="translate(-0.49 0)"/><g class="cls-13"><path class="cls-14" d="M618.87,177.36c0.36-.13-0.78-4.7-2.73-6a9,9,0,0,0-6.72-1,18.5,18.5,0,0,0-6.3,2.9S607.54,181.23,618.87,177.36Z" transform="translate(-0.49 0)"/><path class="cls-15" d="M607.08,165.14a3.11,3.11,0,0,0,1,1.41,8.43,8.43,0,0,0,1.5.93,20.59,20.59,0,0,0,3.67,1.57,8.84,8.84,0,0,0,4,.31,5.63,5.63,0,0,0,3.42-1.9l-13.52-2.38" transform="translate(-0.49 0)"/><path class="cls-16" d="M613.31,172.13c-0.22.55-2,.32-4.12,0.77s-3.68,1.31-4.1.89,0.93-2.39,3.69-2.94S613.57,171.67,613.31,172.13Z" transform="translate(-0.49 0)"/></g><path class="cls-2" d="M597.2,151.49c0.2-.11,1.38,1.89,1,5.44a12.57,12.57,0,0,1-2.13,5.74,9.52,9.52,0,0,1-6.46,4.31c-3.14.25-5.52-1.59-7.08-3.23a14.7,14.7,0,0,1-3.19-5.23c-1.13-3.33-.68-5.53-0.45-5.51s0.45,2.07,1.82,4.94a15.46,15.46,0,0,0,3.19,4.44c1.45,1.4,3.45,2.7,5.5,2.5s3.9-1.79,5.11-3.36a12.56,12.56,0,0,0,2.26-4.86C597.45,153.61,596.87,151.57,597.2,151.49Z" transform="translate(-0.49 0)"/><path class="cls-2" d="M645.36,157.2c0.22-.06.89,2.16-0.3,5.53a12.56,12.56,0,0,1-3.47,5.11,9.53,9.53,0,0,1-7.3,2.65c-3.11-.5-5-2.86-6.11-4.82a14.66,14.66,0,0,1-1.86-5.84c-0.31-3.51.65-5.53,0.87-5.45s-0.06,2.12.59,5.23a15.43,15.43,0,0,0,2,5.07c1.07,1.7,2.71,3.45,4.75,3.73s4.22-.82,5.76-2.05a12.55,12.55,0,0,0,3.36-4.22C645.1,159.31,645,157.2,645.36,157.2Z" transform="translate(-0.49 0)"/><path class="cls-2" d="M467.24,233.46c1.5,17.91,1.7,36.09,4.6,53.87,0.3,1.84,3.44,1.43,3.27-.44C473.5,269,471.92,251,468.9,233.23a0.85,0.85,0,0,0-1.67.22h0Z" transform="translate(-0.49 0)"/><path class="cls-2" d="M472.09,281.67A11.4,11.4,0,0,0,461.2,285c-1.41,1.53-2.37,3.88-1.3,5.66s3.35,2,5.32,1.81a16.29,16.29,0,0,0,9.65-4.75" transform="translate(-0.49 0)"/><path class="cls-2" d="M489.66,231.67c1,18,3.49,35.88,5.9,53.73,0.25,1.85,3.39,1.42,3.27-.44-1.12-18-5-35.73-7.51-53.51-0.13-.94-1.72-0.72-1.67.22h0Z" transform="translate(-0.49 0)"/><path class="cls-2" d="M497.32,279.58a11.39,11.39,0,0,1,11.34.78c1.71,1.18,3.17,3.25,2.53,5.23s-2.82,2.73-4.79,3a16.29,16.29,0,0,1-10.48-2.42" transform="translate(-0.49 0)"/><path class="cls-2" d="M512,177c12.69-3.76,25.14-.55,29.07,13.47a1.57,1.57,0,0,0,3-.84c-3.55-13.45-20.24-23.09-32.71-14.07A0.79,0.79,0,0,0,512,177h0Z" transform="translate(-0.49 0)"/><path class="cls-2" d="M544.14,191.06a3.63,3.63,0,0,0-4.92,1.46l-0.08.15a3.79,3.79,0,0,0,2.19,4.86,4,4,0,0,0,4.82-2.4,4.14,4.14,0,0,0-2.25-5" transform="translate(-0.49 0)"/><path class="cls-2" d="M440.78,177.05c-12.46-9-29.16.63-32.71,14.07a1.57,1.57,0,0,0,3,.84c3.93-14,16.38-17.22,29.06-13.47a0.79,0.79,0,0,0,.61-1.44h0Z" transform="translate(-0.49 0)"/><path class="cls-2" d="M408,192.54A3.63,3.63,0,0,1,413,194l0.08,0.15a3.79,3.79,0,0,1-2.19,4.86,4,4,0,0,1-4.82-2.4,4.14,4.14,0,0,1,2.25-5" transform="translate(-0.49 0)"/><path class="cls-17" d="M444.27,197.77l-25.69-62.9,20.06-11.2,13.59,34.12a4.56,4.56,0,0,0,5.6,2.67h0A4.56,4.56,0,0,0,461,156l-0.91-35.32,26.19,9.43-1.6,25.31a5.08,5.08,0,0,0,3.71,5.22h0a5.09,5.09,0,0,0,6.27-3.53l9.4-33.65,25.6,12.12-19.82,58.75,6,37.85s-34.4,23.43-72.41,4Z" transform="translate(-0.49 0)"/><path class="cls-18" d="M422.28,145.07a15.29,15.29,0,0,0,23.52-6.32l-1.25-3.88-24.42,4.29Z" transform="translate(-0.49 0)"/><path class="cls-18" d="M460,129.93l0.62,9.23s10,12.33,25.12,0l0.58-7.46Z" transform="translate(-0.49 0)"/><path class="cls-18" d="M504.17,120.3l-3.56,15.23s6.51,18.16,25.36,10.7l3.72-13Z" transform="translate(-0.49 0)"/><path class="cls-19" d="M503.15,195.74c0.29,1.11-2.4,2.76-6.07,3.32s-6.72-.2-6.78-1.35,2.71-2.25,6.15-2.79S502.87,194.61,503.15,195.74Z" transform="translate(-0.49 0)"/><path class="cls-20" d="M594.63,108.29a38.41,38.41,0,0,0-32.34-54.8h-0.85a41.12,41.12,0,0,0-70.51-22.58,41.11,41.11,0,0,0-78.45-3.86L412,27a37.51,37.51,0,0,0-39.72,34.18A37.51,37.51,0,0,0,402.15,130a32.93,32.93,0,0,0,50.24-6.21,32.92,32.92,0,0,0,52.36-4.6,32.9,32.9,0,0,0,27.44,18.3,33.47,33.47,0,0,0,3.54,0A32.92,32.92,0,1,0,594.63,108.29Z" transform="translate(-0.49 0)"/><path class="cls-11" d="M536.47,97.55a2.19,2.19,0,0,1-.3.87,14.73,14.73,0,0,1-1.3,2.32,21.94,21.94,0,0,1-22.8,9,22.91,22.91,0,0,1-15.47-12.6h1.71a28.09,28.09,0,0,1-13.54,14.05,26.79,26.79,0,0,1-21.42,1A28.1,28.1,0,0,1,449.44,101h1.73a34.9,34.9,0,0,1-24.09,15.09,32.75,32.75,0,0,1-22.25-5,33.33,33.33,0,0,1-10.64-10.81,23,23,0,0,1-1.84-3.64,4.13,4.13,0,0,1-.43-1.35c0.16-.07.91,1.72,2.87,4.6a34.8,34.8,0,0,0,10.74,10.06,31.79,31.79,0,0,0,21.29,4.32A33.35,33.35,0,0,0,449.45,99.8l0.87-1.34,0.86,1.35a26.23,26.23,0,0,0,12.91,10.36,24.87,24.87,0,0,0,19.8-.84,26.38,26.38,0,0,0,12.71-13l0.85-1.93,0.85,1.93a21.44,21.44,0,0,0,14.14,11.86,20.54,20.54,0,0,0,14.48-1.74,22.6,22.6,0,0,0,7.48-6.15C535.8,98.6,536.35,97.48,536.47,97.55Z" transform="translate(-0.49 0)"/><path class="cls-11" d="M580.87,88c0.09,0,.14,1.36-1,3.45a12.8,12.8,0,0,1-7.8,6c-4.18,1.2-9.76.14-14.24-3.46s-7.6-9.46-9-15.82l1.86,0.39a13.54,13.54,0,0,1-3.4,3.26,16.77,16.77,0,0,1-19.34-1,23.62,23.62,0,0,1-8.56-13.65,33.2,33.2,0,0,1-.61-10.8c0.26-2.53.65-3.89,0.78-3.88a30.5,30.5,0,0,1,0,3.92,38.34,38.34,0,0,0,1.31,10.41,22.71,22.71,0,0,0,8.27,12.46,15.56,15.56,0,0,0,8.12,3.05,14.49,14.49,0,0,0,8.9-2.28A11.58,11.58,0,0,0,549,77.25l1.38-1.89,0.45,2.31c1.27,6.06,4,11.51,8.09,14.81s9,4.44,12.72,3.55a12.58,12.58,0,0,0,7.49-5C580.47,89.17,580.68,87.9,580.87,88Z" transform="translate(-0.49 0)"/><path class="cls-11" d="M448.87,65.49c0.1,0-.22,1.18-1.41,2.93a16.94,16.94,0,0,1-6.92,5.64,16.74,16.74,0,0,1-13.29.35,18.24,18.24,0,0,1-10.81-12.23L418.5,62l-0.24,1.48a15.64,15.64,0,0,1-12.09,11.53,13.84,13.84,0,0,1-12.9-4.57A14.5,14.5,0,0,1,389.53,62c-0.14-2.21.29-3.39,0.39-3.37s0,1.21.42,3.26a14.81,14.81,0,0,0,4,7.58,12.45,12.45,0,0,0,11.44,3.69,13.89,13.89,0,0,0,10.42-10.1l0.2-1.24,0.82-5.09,1.23,5a16.6,16.6,0,0,0,9.51,11,15.57,15.57,0,0,0,12,.07C446.69,69.94,448.56,65.17,448.87,65.49Z" transform="translate(-0.49 0)"/><ellipse class="cls-21" cx="495.08" cy="11.36" rx="1.05" ry="5.86" transform="translate(0.59 45.95) rotate(-5.32)"/><ellipse class="cls-21" cx="504.07" cy="13.07" rx="5.35" ry="1.05" transform="translate(108.93 326.93) rotate(-39.98)"/><path class="cls-2" d="M468.06,177.46c0.22-.05,1.27,2.14,1.74,6.1a14.4,14.4,0,0,1-.91,7,10.24,10.24,0,0,1-6.55,6,8.92,8.92,0,0,1-8.47-2.69,14,14,0,0,1-3.41-6.23c-1-3.86-.9-6.25-0.68-6.3s0.82,2.32,2.08,5.84a13.86,13.86,0,0,0,3.35,5.31,7.2,7.2,0,0,0,6.66,2.08,8.68,8.68,0,0,0,5.31-4.76,14.4,14.4,0,0,0,1.19-6.18C468.26,179.9,467.73,177.52,468.06,177.46Z" transform="translate(-0.49 0)"/><path class="cls-2" d="M503.15,175.84c0.22,0,.8,2.64.06,7a15.73,15.73,0,0,1-3.17,7.1,12,12,0,0,1-8.58,4.45,10.16,10.16,0,0,1-8.51-4.6,16.19,16.19,0,0,1-2.71-7.27c-0.5-4.33-.13-6.93.09-6.95s0.52,2.64,1.36,6.68a16.2,16.2,0,0,0,2.8,6.39,8.46,8.46,0,0,0,6.9,3.65,10.45,10.45,0,0,0,7.18-3.61,15.7,15.7,0,0,0,3.19-6.18C502.87,178.51,502.8,175.82,503.15,175.84Z" transform="translate(-0.49 0)"/><path class="cls-2" d="M479.09,191.85a5.39,5.39,0,0,1,.61,2.6,6.69,6.69,0,0,1-.45,2.95,4.74,4.74,0,0,1-2.67,2.59,3.42,3.42,0,0,1-3.64-.8,5.23,5.23,0,0,1-1.39-2.66,5.68,5.68,0,0,1-.11-2.67,16.47,16.47,0,0,1,.68,2.52c0.33,1.4,1.93,3.68,4.18,2.83s2.82-3.23,2.81-4.74A19.91,19.91,0,0,1,479.09,191.85Z" transform="translate(-0.49 0)"/><path class="cls-2" d="M481.28,194.05c-0.2.07-.69-1.22-2.06-1.47s-2.27.83-2.43,0.7,0.52-1.78,2.58-1.52C481.39,192.2,481.55,194.14,481.28,194.05Z" transform="translate(-0.49 0)"/><path class="cls-2" d="M473.07,193.89c-0.11.2-1.07-.18-2.11,0.19s-1.57,1.24-1.78,1.15,0-1.4,1.51-1.94S473.25,193.73,473.07,193.89Z" transform="translate(-0.49 0)"/><path class="cls-19" d="M464.42,199.89c0.07,1.15-2.47,2.24-5.68,2.44-2.38.14-4.46-.25-5.39-0.94l0.76-.63c-0.08-.49-0.39-0.37-0.47-0.3a0.45,0.45,0,0,0-.07.41,0.31,0.31,0,0,1-.26.36h-0.05a0.75,0.75,0,0,1-.77-0.89l0.76-.63c0.85-.79,2.86-1.43,5.24-1.57C461.7,198,464.36,198.74,464.42,199.89Z" transform="translate(-0.49 0)"/><path class="cls-2" d="M496.25,170c0.31,0.47-1.91,2.12-5.09,1.76s-5-2.43-4.59-2.82,2.3,0.5,4.82.74S496,169.42,496.25,170Z" transform="translate(-0.49 0)"/><path class="cls-2" d="M459.63,171c0.49,0.29-.66,2.61-3.47,3.59s-5.16-.11-5-0.64,2.12-.55,4.26-1.34S459.16,170.67,459.63,171Z" transform="translate(-0.49 0)"/><path class="cls-2" d="M390.33,132.39c4.3-.92,8-1.85,12.19.07a13.61,13.61,0,0,1,7.41,9.15,1.57,1.57,0,0,0,3-.84c-2.44-9.37-14.91-16.9-23.4-9.71a0.8,0.8,0,0,0,.77,1.32h0Z" transform="translate(-0.49 0)"/><path class="cls-2" d="M412.52,141.88a2.52,2.52,0,0,0-3.42,1L409,143a2.62,2.62,0,0,0,1.52,3.36,2.74,2.74,0,0,0,3.31-1.69,2.87,2.87,0,0,0-1.56-3.43" transform="translate(-0.49 0)"/><path class="cls-2" d="M371.18,180.74c4.47-.4,6.27,6.57,6.27,9.71,0,3.4-1.4,6.07-3.35,8.74-0.83,1.14,1,2.5,1.94,1.49a14.92,14.92,0,0,0,3.47-14.15c-1-3.67-4-8.93-8.53-7.29-0.75.27-.71,1.58,0.2,1.5h0Z" transform="translate(-0.49 0)"/><path class="cls-2" d="M374.71,200.08a15.78,15.78,0,0,0,3.88,2.67,5.49,5.49,0,0,0,4.58.07,3.39,3.39,0,0,0,1.8-3.94,3.73,3.73,0,0,0-3.21-2.19,11,11,0,0,0-4,.61" transform="translate(-0.49 0)"/><path class="cls-2" d="M336.55,186.45c9.3,3.51,6.1,14.07,2.21,20.38a1.22,1.22,0,0,0,2.11,1.24c4.28-7.08,7.4-20.61-4-22.7a0.57,0.57,0,0,0-.3,1.09h0Z" transform="translate(-0.49 0)"/><path class="cls-2" d="M339.81,208.26a17.22,17.22,0,0,0,3.69,3,5.87,5.87,0,0,0,4.64.63,3.53,3.53,0,0,0,2.46-3.66c-0.29-1.79-2.16-2.85-3.86-3.52a8.73,8.73,0,0,0-3.1-.74,3.5,3.5,0,0,0-2.83,1.24" transform="translate(-0.49 0)"/><path class="cls-22" d="M299,176c-4.13-20.68-2.12-45.09-2.38-66.13-0.07-5.88.13-12.15,3.63-17,3.83-5.33,10.74-7.78,17.32-9.51,18.21-4.8,38.09-6.43,55.77-.1,6.42,2.3,12.83,6,15.47,12,1.44,3.27,1.62,6.89,1.77,10.43L393,161.47c0.14,3.16.25,6.46-1.15,9.34-1.89,3.9-6.14,6.25-10.27,8-26.34,11.47-57.4,10.73-82.58-2.85" transform="translate(-0.49 0)"/><g class="cls-23"><path class="cls-22" d="M299,176c-4.13-20.68-2.12-45.09-2.38-66.13-0.07-5.88.13-12.15,3.63-17,3.83-5.33,10.74-7.78,17.32-9.51,18.21-4.8,38.09-6.43,55.77-.1,6.42,2.3,12.83,6,15.47,12,1.44,3.27,1.62,6.89,1.77,10.43L393,161.47c0.14,3.16.25,6.46-1.15,9.34-1.89,3.9-6.14,6.25-10.27,8-26.34,11.47-57.4,10.73-82.58-2.85" transform="translate(-0.49 0)"/><path class="cls-22" d="M321.53,184.57c-1-4.27-2.73-7.54-4.62-11.52a54.17,54.17,0,0,1-5.13-31c1.29-10.94,7.9-21.89,5-32.81-0.65-2.45-4.45-1.41-3.79,1,2.36,8.76-3.23,19.94-4.53,28.63a63.61,63.61,0,0,0-.47,17.41c1.4,11,7.41,19.17,11.61,29.06,0.48,1.13,2.17.3,1.91-.8h0Z" transform="translate(-0.49 0)"/><path class="cls-22" d="M348.65,186.78c-6.84-15.27-14.2-30.19-10-47.35,2.39-9.64,7.26-18.1,8.86-28,0.37-2.3-3.14-3.29-3.52-1-2.16,13.28-9.86,25.39-10,39s6,26.83,12.31,38.62c0.81,1.5,2.91.18,2.24-1.31h0v0Z" transform="translate(-0.49 0)"/><path class="cls-22" d="M365.29,109.13c2.54,17.69-10.71,33.1-9,51.17A52,52,0,0,0,367.68,188c1.08,1.37,3.42-.43,2.42-1.87-9.51-13.76-13.34-28.93-8.82-45.36,3.22-11.7,8.83-19.85,5.73-32.12-0.3-1.17-1.92-.64-1.76.49h0Z" transform="translate(-0.49 0)"/><path class="cls-22" d="M387.31,175.93c-5.74-14.58-6.31-27.79-3.16-43.13,2-10,3.77-18.35,1-28.35-0.52-1.88-3.24-1.08-2.89.8,3,15.52-3.7,29.15-3.71,44.45a54.72,54.72,0,0,0,7.14,26.9c0.46,0.84,2,.26,1.58-0.67h0Z" transform="translate(-0.49 0)"/><path class="cls-22" d="M301.66,105c2.62,15.36-5.83,29.89-5.94,45.2a76.31,76.31,0,0,0,6.53,30.58c0.64,1.51,3.3.42,2.68-1.13-6.11-15.45-7.66-30.51-4-46.79,2.29-10.07,4.69-18,2.26-28.3a0.82,0.82,0,0,0-1.58.44h0Z" transform="translate(-0.49 0)"/></g><path class="cls-24" d="M373.57,107.55s-4,38.19-76.51,53.51l1.64,13.08s84.53,12.71,91.92-72.11Z" transform="translate(-0.49 0)"/><path class="cls-25" d="M303.75,97a13.83,13.83,0,0,0,4.4,4.29c9.71,6.54,23.84,4.12,35.93,4,10.24-.1,20.56-0.22,30.56-2.21,3.55-.71,7.63-2.16,8.45-5.38s-2.22-6.2-5.22-8c-6.65-4.06-14.62-6.1-22.6-6.8a122.75,122.75,0,0,0-24,.78c-5.44.6-10.93,1.34-16,3.23C315.26,86.86,300.93,92.75,303.75,97Z" transform="translate(-0.49 0)"/><path class="cls-2" d="M339.13,144.9c-0.33,0-.45-1.77-1-4.4a10.54,10.54,0,0,0-1.8-4.1,5.5,5.5,0,0,0-4.25-2.37,6.33,6.33,0,0,0-4.48,2.2,10,10,0,0,0-2.07,3.94c-0.72,2.57-.77,4.35-1.1,4.34s-0.73-1.73-.34-4.66a10.18,10.18,0,0,1,2-4.87,7.88,7.88,0,0,1,6-3,7.16,7.16,0,0,1,5.82,3.34,10.56,10.56,0,0,1,1.69,5C339.8,143.19,339.38,144.89,339.13,144.9Z" transform="translate(-0.49 0)"/><path class="cls-2" d="M378.54,142.4c-0.33,0-.45-1.77-1-4.4a10.57,10.57,0,0,0-1.8-4.1,5.5,5.5,0,0,0-4.25-2.37,6.34,6.34,0,0,0-4.48,2.2,10,10,0,0,0-2.07,3.94c-0.71,2.57-.77,4.35-1.1,4.34s-0.74-1.73-.34-4.66a10.19,10.19,0,0,1,2-4.87,7.88,7.88,0,0,1,6-3,7.17,7.17,0,0,1,5.82,3.34,10.56,10.56,0,0,1,1.69,5C379.21,140.67,378.79,142.4,378.54,142.4Z" transform="translate(-0.49 0)"/><path class="cls-2" d="M344,143.51a15.33,15.33,0,0,0,12.58-.79c1.12-.6,2.36-1.38,3.57-1a2.7,2.7,0,0,1,1.73,2.26,5.53,5.53,0,0,1-.58,2.92,11.93,11.93,0,0,1-9.47,6.89,11.6,11.6,0,0,1-10.59-4.92,5.69,5.69,0,0,1-1.06-2.65,2.91,2.91,0,0,1,1-2.57,2.17,2.17,0,0,1,2.78-.14" transform="translate(-0.49 0)"/><path class="cls-26" d="M326.08,93.77a47.71,47.71,0,0,0,36.08-1.5c-0.9-1.77-3.12-2.65-5.2-3.13a29.81,29.81,0,0,0-12.44-.22,5.79,5.79,0,0,0-3-3.48c-0.62-.3-1.54-0.44-1.89.11a1.25,1.25,0,0,0,.06,1.14,17,17,0,0,0,1.77,3.25,11.18,11.18,0,0,0-4.6-1.53,2.66,2.66,0,0,0-2,.41,1.57,1.57,0,0,0-.28,1.8,5,5,0,0,0,1.26,1.54c-3.54-.31-7.19-0.73-10,1.26" transform="translate(-0.49 0)"/><path class="cls-2" d="M300.87,140.77c-4.48-1.48-10,1-13.38,3.9a19.16,19.16,0,0,0-6.41,13.53c-0.14,2.15,3.32,2.18,3.37,0a15.19,15.19,0,0,1,5.42-11.63c3.39-2.77,6.94-2.88,11-3.92a1,1,0,0,0,0-1.89h0Z" transform="translate(-0.49 0)"/><path class="cls-2" d="M282.93,157.84a3.88,3.88,0,0,0-3,2.62,4.25,4.25,0,0,0,.81,3.94,4.69,4.69,0,0,0,3.72,1.62,3.54,3.54,0,0,0,2.44-1,3.65,3.65,0,0,0,.9-2.06,4.68,4.68,0,0,0-1.43-4.1,3.65,3.65,0,0,0-4.2-.45" transform="translate(-0.49 0)"/><g class="cls-27"><path class="cls-14" d="M358,151.45c0.29-.2-1.81-3.91-3.81-4.55a8.1,8.1,0,0,0-6.09.72,16.7,16.7,0,0,0-4.78,4S349.14,157.53,358,151.45Z" transform="translate(-0.49 0)"/><path class="cls-15" d="M344.87,143.67a2.79,2.79,0,0,0,1.22,1,7.48,7.48,0,0,0,1.52.45,18.59,18.59,0,0,0,3.57.49,8,8,0,0,0,3.51-.68,5.09,5.09,0,0,0,2.52-2.48l-12.34,1.13" transform="translate(-0.49 0)"/><path class="cls-16" d="M352,148.23c-0.07.59-1.69,0.88-3.36,1.76s-2.88,2-3.4,1.67,0.16-2.38,2.45-3.53S352.09,147.67,352,148.23Z" transform="translate(-0.49 0)"/></g><path class="cls-28" d="M305.45,107.24l54.07-27.35s11,1.79,15.81,4.11l-54.75,26.53A32.13,32.13,0,0,1,305.45,107.24Z" transform="translate(-0.49 0)"/><path class="cls-29" d="M296.42,99.32C304,112.87,319.34,112,333.22,112c17.72,0,40.35,1.21,55.94-8.5,2.09-1.3.2-4.58-1.94-3.32C368.1,111.5,313,117.81,297.59,98.42c-0.54-.68-1.57.19-1.17,0.9h0Z" transform="translate(-0.49 0)"/><path class="cls-30" d="M294.57,16c-4.47,2.47-9,12.48-7.16,22.74a23.63,23.63,0,0,0,45.72,3.16,24.72,24.72,0,0,0-9.46-27.53A25,25,0,0,0,294.56,16" transform="translate(-0.49 0)"/><path class="cls-30" d="M298.75,47.93a24.45,24.45,0,0,1-8.65,16.93,22.72,22.72,0,0,0,21.3-17.69" transform="translate(-0.49 0)"/><path class="cls-31" d="M311.54,34.42a6.34,6.34,0,0,0-2.88-5.29,5.9,5.9,0,0,0-6-.13A5.51,5.51,0,0,0,300,34.31a7,7,0,0,0,1.79,3.63,20.88,20.88,0,0,0,3.07,2.73l5,3.81a1.82,1.82,0,0,0,2.8,0,35.83,35.83,0,0,0,6-5.47,12.09,12.09,0,0,0,3-7.42,4.58,4.58,0,0,0-1.29-3.51,4.28,4.28,0,0,0-4.78-.18,7.3,7.3,0,0,0-3.86,5.77" transform="translate(-0.49 0)"/><path class="cls-2" d="M593.22,227.86c4.3-.92,8-1.85,12.19.07a13.62,13.62,0,0,1,7.41,9.15,1.57,1.57,0,0,0,3-.84c-2.44-9.37-14.91-16.9-23.4-9.71a0.8,0.8,0,0,0,.77,1.32h0Z" transform="translate(-0.49 0)"/><path class="cls-2" d="M615.41,237.35a2.51,2.51,0,0,0-3.41,1l-0.07.14a2.62,2.62,0,0,0,1.52,3.36,2.74,2.74,0,0,0,3.34-1.66,2.87,2.87,0,0,0-1.56-3.43" transform="translate(-0.49 0)"/><path class="cls-2" d="M574.07,276.21c4.47-.4,6.28,6.57,6.27,9.71,0,3.4-1.4,6.07-3.35,8.74-0.83,1.14,1,2.5,1.94,1.49A14.93,14.93,0,0,0,582.4,282c-1-3.67-4-8.93-8.53-7.29-0.75.27-.71,1.58,0.2,1.5h0Z" transform="translate(-0.49 0)"/><path class="cls-2" d="M577.6,295.55a15.77,15.77,0,0,0,3.88,2.67,5.5,5.5,0,0,0,4.58.07,3.38,3.38,0,0,0,1.79-3.94,3.72,3.72,0,0,0-3.21-2.19,11,11,0,0,0-4,.61" transform="translate(-0.49 0)"/><path class="cls-2" d="M539.44,281.92c9.3,3.51,6.1,14.07,2.21,20.38a1.22,1.22,0,0,0,2.11,1.24h0c4.28-7.08,7.4-20.61-4-22.7a0.57,0.57,0,0,0-.3,1.09h0Z" transform="translate(-0.49 0)"/><path class="cls-2" d="M542.7,303.74a17.22,17.22,0,0,0,3.69,3,5.87,5.87,0,0,0,4.64.63,3.53,3.53,0,0,0,2.46-3.66c-0.29-1.79-2.15-2.85-3.86-3.52a8.74,8.74,0,0,0-3.1-.74,3.5,3.5,0,0,0-2.83,1.24" transform="translate(-0.49 0)"/><path class="cls-32" d="M501.93,271.47c-4.13-20.68-2.12-45.09-2.38-66.13-0.07-5.88.13-12.15,3.63-17,3.83-5.33,10.74-7.78,17.32-9.51,18.21-4.8,38.09-6.43,55.77-.1,6.42,2.3,12.83,6,15.47,12,1.44,3.27,1.62,6.89,1.77,10.43l2.41,55.78c0.14,3.16.25,6.46-1.15,9.34-1.89,3.9-6.14,6.25-10.27,8-26.34,11.47-57.4,10.73-82.57-2.85" transform="translate(-0.49 0)"/><g class="cls-33"><path class="cls-32" d="M501.93,271.47c-4.13-20.68-2.12-45.09-2.38-66.13-0.07-5.88.13-12.15,3.63-17,3.83-5.33,10.74-7.78,17.32-9.51,18.21-4.8,38.09-6.43,55.77-.1,6.42,2.3,12.83,6,15.47,12,1.44,3.27,1.62,6.89,1.77,10.43l2.41,55.78c0.14,3.16.25,6.46-1.15,9.34-1.89,3.9-6.14,6.25-10.27,8-26.34,11.47-57.4,10.73-82.57-2.85" transform="translate(-0.49 0)"/></g><path class="cls-34" d="M576.46,203s-4,38.19-76.51,53.51l1.64,13.14s84.53,12.71,91.92-72.11Z" transform="translate(-0.49 0)"/><path class="cls-25" d="M506.64,192.49a13.84,13.84,0,0,0,4.4,4.29c9.71,6.54,23.84,4.12,35.93,4,10.24-.1,20.56-0.22,30.56-2.21,3.55-.71,7.63-2.16,8.45-5.38s-2.19-6.22-5.23-8.07c-6.65-4.06-14.62-6.11-22.6-6.8a122.76,122.76,0,0,0-24,.78c-5.44.6-10.93,1.34-16,3.23C518.15,182.33,503.82,188.22,506.64,192.49Z" transform="translate(-0.49 0)"/><path class="cls-2" d="M542,240.37c-0.32,0-.45-1.77-1-4.4a10.59,10.59,0,0,0-1.8-4.1A5.5,5.5,0,0,0,535,229.5a6.34,6.34,0,0,0-4.48,2.2,10.07,10.07,0,0,0-2.07,3.94c-0.71,2.57-.77,4.35-1.1,4.34s-0.74-1.73-.34-4.66a10.18,10.18,0,0,1,2-4.87,7.88,7.88,0,0,1,6-3,7.16,7.16,0,0,1,5.82,3.34,10.57,10.57,0,0,1,1.7,5C542.68,238.67,542.27,240.36,542,240.37Z" transform="translate(-0.49 0)"/><path class="cls-2" d="M581.43,237.88c-0.33,0-.45-1.77-1-4.4a10.6,10.6,0,0,0-1.8-4.1,5.5,5.5,0,0,0-4.25-2.37,6.34,6.34,0,0,0-4.48,2.2,10,10,0,0,0-2.07,3.94c-0.71,2.57-.77,4.35-1.1,4.34s-0.74-1.73-.34-4.66a10.18,10.18,0,0,1,2-4.87,7.88,7.88,0,0,1,6-3,7.16,7.16,0,0,1,5.82,3.34,10.59,10.59,0,0,1,1.7,5C582.09,236.16,581.67,237.87,581.43,237.88Z" transform="translate(-0.49 0)"/><path class="cls-2" d="M546.87,239a15.33,15.33,0,0,0,12.58-.79c1.12-.6,2.36-1.38,3.57-1a2.7,2.7,0,0,1,1.73,2.26,5.49,5.49,0,0,1-.58,2.92,11.93,11.93,0,0,1-9.47,6.89,11.6,11.6,0,0,1-10.59-4.92,5.7,5.7,0,0,1-1.06-2.65,2.91,2.91,0,0,1,1-2.57,2.17,2.17,0,0,1,2.78-.14" transform="translate(-0.49 0)"/><path class="cls-26" d="M529,189.24a47.71,47.71,0,0,0,36.08-1.5c-0.9-1.77-3.12-2.65-5.2-3.13a29.81,29.81,0,0,0-12.44-.22,5.79,5.79,0,0,0-3-3.48c-0.62-.3-1.54-0.44-1.89.11a1.25,1.25,0,0,0,.06,1.14,17,17,0,0,0,1.77,3.25,11.18,11.18,0,0,0-4.6-1.53,2.66,2.66,0,0,0-2,.41,1.57,1.57,0,0,0-.28,1.8,5,5,0,0,0,1.26,1.54c-3.54-.31-7.19-0.73-10,1.26" transform="translate(-0.49 0)"/><path class="cls-2" d="M503.71,236.24c-4.48-1.48-10,1-13.38,3.9a19.17,19.17,0,0,0-6.46,13.53c-0.14,2.15,3.32,2.18,3.37,0A15.19,15.19,0,0,1,492.71,242c3.39-2.77,6.94-2.88,11-3.92a1,1,0,0,0,0-1.89h0Z" transform="translate(-0.49 0)"/><path class="cls-2" d="M485.81,253.31a3.88,3.88,0,0,0-3,2.62,4.25,4.25,0,0,0,.81,3.94,4.69,4.69,0,0,0,3.72,1.62,3.55,3.55,0,0,0,2.44-1,3.66,3.66,0,0,0,.9-2.06,4.68,4.68,0,0,0-1.43-4.1,3.65,3.65,0,0,0-4.2-.45" transform="translate(-0.49 0)"/><g class="cls-35"><path class="cls-14" d="M560.93,246.92c0.29-.2-1.81-3.91-3.81-4.55a8.1,8.1,0,0,0-6.09.72,16.73,16.73,0,0,0-4.79,4S552,253,560.93,246.92Z" transform="translate(-0.49 0)"/><path class="cls-15" d="M547.76,239.11a2.79,2.79,0,0,0,1.22,1,7.54,7.54,0,0,0,1.52.45,18.57,18.57,0,0,0,3.57.49,8,8,0,0,0,3.52-.68,5.09,5.09,0,0,0,2.52-2.48l-12.33,1.18" transform="translate(-0.49 0)"/><path class="cls-16" d="M554.87,243.67c-0.07.59-1.69,0.88-3.36,1.76s-2.88,2-3.4,1.67,0.16-2.37,2.45-3.53S555,243.14,554.87,243.67Z" transform="translate(-0.49 0)"/></g><path class="cls-28" d="M508.33,202.67l54.07-27.35s11,1.79,15.81,4.11L523.47,206A32.13,32.13,0,0,1,508.33,202.67Z" transform="translate(-0.49 0)"/><path class="cls-36" d="M499.3,194.79c7.56,13.55,22.92,12.64,36.8,12.68,17.72,0,40.35,1.21,55.94-8.5,2.09-1.3.2-4.58-1.94-3.32C571,207,515.89,213.28,500.47,193.89c-0.54-.68-1.57.19-1.17,0.9h0Z" transform="translate(-0.49 0)"/><path class="cls-2" d="M305,325.67a157.58,157.58,0,0,0,8.67,31.26c0.64,1.65,3.1.47,2.48-1.17q-5.57-14.94-10.08-30.28a0.55,0.55,0,0,0-1.08.19h0Z" transform="translate(-0.49 0)"/><path class="cls-2" d="M313.24,352.09a11.92,11.92,0,0,0-8.11,5.87c-0.69,1.26-1,3.07.1,3.94a3.18,3.18,0,0,0,3,.06,15.28,15.28,0,0,0,6.77-4.88" transform="translate(-0.49 0)"/><path class="cls-2" d="M321.47,322.16c4,10,7.58,20.13,10.84,30.36,0.46,1.46,3,.66,2.6-0.83a157.9,157.9,0,0,0-12.44-30,0.55,0.55,0,1,0-1,.47h0Z" transform="translate(-0.49 0)"/><path class="cls-2" d="M332.26,347.55a11.9,11.9,0,0,1,10-.38c1.32,0.56,2.71,1.77,2.35,3.16a3.19,3.19,0,0,1-2.31,1.87,15.24,15.24,0,0,1-8.34.33" transform="translate(-0.49 0)"/><polygon class="cls-26" points="245.31 80.54 238.25 39.99 251.69 37.65 257.1 68.7 261.1 41.57 273.44 42.59 269.14 99.92 249.92 100.36 245.31 80.54"/><polygon class="cls-37" points="252.44 126.09 216.89 63.42 234.76 52.29 252.73 95.38 245.96 56.47 262.51 54.53 265.67 95.01 268.66 70.91 282.95 71.72 274.76 122.2 252.44 126.09"/><path class="cls-38" d="M256.62,115.67a402.34,402.34,0,0,0-23.75-46.19c-1.16-2-4.3-.59-3.27,1.54a406.13,406.13,0,0,0,25.51,45.65c0.58,0.88,1.89-.07,1.51-1h0Z" transform="translate(-0.49 0)"/><path class="cls-38" d="M264.28,114.29c0-7.08-1.45-14.08-2.3-21.1-1-8-1.21-16.31-3.19-24.16a0.89,0.89,0,0,0-1.75.07c-1.19,14,1.07,32.2,5.31,45.53a1,1,0,0,0,1.93-.34h0Z" transform="translate(-0.49 0)"/><path class="cls-38" d="M270.72,113.67c2.47-4.42,2.69-9.94,3.46-14.89,0.88-5.69,2.41-11.68,2.07-17.44-0.07-1.28-2-1.3-2.39-.22C272,86.2,271.78,92,271,97.32s-2.28,11-1.12,16.17a0.46,0.46,0,0,0,.82.18h0Z" transform="translate(-0.49 0)"/><path class="cls-2" d="M247.46,213.5c-13.48-1.16-21.82,14.29-20.54,25.84,0.24,2.14,3.63,1.58,3.32-.58a19.84,19.84,0,0,1,4.48-16.09c3.63-4.17,8.12-5.4,13.07-7.27a1,1,0,0,0-.32-1.86h0v0Z" transform="translate(-0.49 0)"/><path class="cls-2" d="M228.76,238.54a5,5,0,0,0-3.19,3.95,5.4,5.4,0,0,0,1.88,4.76,6,6,0,0,0,5,1.22,4.53,4.53,0,0,0,2.85-1.77,4.66,4.66,0,0,0,.68-2.79,6,6,0,0,0-2.69-4.83,4.65,4.65,0,0,0-5.36.34" transform="translate(-0.49 0)"/><path class="cls-2" d="M312.22,183.27C325.7,184.43,334,169,332.76,157.43c-0.24-2.15-3.63-1.58-3.32.58A19.84,19.84,0,0,1,325,174.15c-3.63,4.18-8.12,5.4-13.07,7.27a1,1,0,0,0,.32,1.86h0Z" transform="translate(-0.49 0)"/><path class="cls-2" d="M330.87,158.22a5,5,0,0,0,3.19-3.95,5.41,5.41,0,0,0-1.88-4.76,6,6,0,0,0-5-1.22,4.51,4.51,0,0,0-2.85,1.77,4.66,4.66,0,0,0-.68,2.79,6,6,0,0,0,2.69,4.83,4.65,4.65,0,0,0,5.36-.35" transform="translate(-0.49 0)"/><path class="cls-39" d="M305.87,132.84C317.51,188,319.32,244.77,326,300.74c1.19,9.93,1.41,22.08-7,27.49-6.82,4.39-16.13,1.72-22.62-3.13-12.08-9-18-24-23.24-38.07L236.37,188.8c-6.39-17.05-12.7-36.5-4.63-52.82,5.13-10.41,15.46-17.5,26.43-21.31s13.34-4.48,24.91-5.3C283.08,109.42,300.41,107,305.87,132.84Z" transform="translate(-0.49 0)"/><path class="cls-40" d="M280.18,188.54c0.48,1-8.27,5.85-20.31,7.65S238,196,238.21,195s9.61-1.1,21-2.89S279.71,187.42,280.18,188.54Z" transform="translate(-0.49 0)"/><path class="cls-40" d="M315.93,212.24c0.59,0.91-10.41,8.61-26,13.58s-29,5.2-29.08,4.11,12.71-3.2,27.81-8.1S315.33,211.18,315.93,212.24Z" transform="translate(-0.49 0)"/><path class="cls-40" d="M299.2,255.44c0.51,1-6.89,5.54-17.25,7.51s-18.91.54-18.81-.56,8.24-1.63,18-3.55S298.7,254.35,299.2,255.44Z" transform="translate(-0.49 0)"/><path class="cls-40" d="M322.24,277.75c0.64,0.9-6.13,6.61-16.26,10.3s-19,3.79-19.07,2.68,8-3,17.62-6.61S321.58,276.75,322.24,277.75Z" transform="translate(-0.49 0)"/><path class="cls-41" d="M287.12,300.13c-2.48,1.27-20.1-28.89-34.36-69.35s-19.65-75-16.92-75.53c2.91-.67,12.63,32.28,26.78,72S289.8,298.82,287.12,300.13Z" transform="translate(-0.49 0)"/><path class="cls-40" d="M305.07,133.79c0.39,0.37-1,2.73-4.14,5.83a50.72,50.72,0,0,1-30.82,13.81c-4.39.28-7.09-.25-7.1-0.79,0-1.24,10.47-2,22-7.29C296.58,140.25,304.17,132.93,305.07,133.79Z" transform="translate(-0.49 0)"/><path class="cls-40" d="M297.34,118.67c1,0.53-.17,4.24-4.06,6.48s-7.69,1.38-7.64.25,2.7-2.19,5.56-3.88S296.34,118.05,297.34,118.67Z" transform="translate(-0.49 0)"/><circle class="cls-2" cx="292.24" cy="163.31" r="1.49" transform="translate(-24.17 52.57) rotate(-9.88)"/><circle class="cls-2" cx="250.43" cy="172.14" r="1.49" transform="translate(-26.29 45.48) rotate(-9.87)"/><path class="cls-2" d="M291.75,151.33c0,0.59-1.26,1-2.65,1.39s-2.64.68-3,.2,0.64-1.72,2.41-2.22S291.8,150.76,291.75,151.33Z" transform="translate(-0.49 0)"/><path class="cls-2" d="M251.46,159c0,0.59-1.25,1-2.65,1.39s-2.64.68-3,.2,0.63-1.72,2.41-2.22S251.51,158.47,251.46,159Z" transform="translate(-0.49 0)"/><ellipse class="cls-37" cx="230.18" cy="110.08" rx="1.05" ry="4.4" transform="translate(23.33 260.12) rotate(-61.58)"/><path class="cls-37" d="M222.87,118.16c-0.24-.51,2.18-2.13,5.56-3.13s6.29-1,6.37-.42-2.55,1.46-5.77,2.43S223.15,118.67,222.87,118.16Z" transform="translate(-0.49 0)"/><path class="cls-2" d="M285.35,165.38a3.34,3.34,0,0,1-.14,1.29,12.52,12.52,0,0,1-1.27,3.31,14.19,14.19,0,0,1-19.19,5.87q-0.62-.33-1.21-0.72a12.57,12.57,0,0,1-2.69-2.31,3.3,3.3,0,0,1-.74-1.07,28.77,28.77,0,0,0,3.76,2.92,14.13,14.13,0,0,0,19.41-4.75l0.15-.25A28.74,28.74,0,0,0,285.35,165.38Z" transform="translate(-0.49 0)"/><path class="cls-2" d="M287.87,165.06c-0.07.23-1.28,0-2.71,0.34s-2.46,1-2.62.77,0.78-1.25,2.45-1.59S287.93,164.86,287.87,165.06Z" transform="translate(-0.49 0)"/><path class="cls-2" d="M262.72,170.85c0.07,0.23-1,.78-2.24,1.67s-2.07,1.79-2.26,1.65,0.43-1.34,1.77-2.32S262.66,170.67,262.72,170.85Z" transform="translate(-0.49 0)"/><path class="cls-2" d="M676.34,335c4.86,1.44,3.78,9.46,2.43,12.72-1.45,3.5-4,5.7-7.17,7.6-1.2.73,0,2.7,1.22,2.12a16.46,16.46,0,0,0,9.44-12.94c0.5-4.14-.31-10.69-5.54-11-0.8,0-1.26,1.2-.38,1.46h0v0Z" transform="translate(-0.49 0)"/><path class="cls-2" d="M671.78,356.41a17.46,17.46,0,0,0,2.85,4.37,6.09,6.09,0,0,0,4.66,2,3.75,3.75,0,0,0,3.5-3.28,4.13,4.13,0,0,0-2.37-3.59,12.16,12.16,0,0,0-4.39-1.07" transform="translate(-0.49 0)"/><path class="cls-2" d="M638.45,326.32c8.19,7.51.4,17.11-6.28,22a1.22,1.22,0,0,0,1.48,1.94c7.34-5.43,16.17-17.81,5.49-24.81a0.57,0.57,0,0,0-.69.89h0v0Z" transform="translate(-0.49 0)"/><path class="cls-2" d="M632.56,350.09a19.09,19.09,0,0,0,2.5,4.68,6.5,6.5,0,0,0,4.49,2.6,3.91,3.91,0,0,0,4.06-2.71c0.45-2-1-3.83-2.47-5.23a9.58,9.58,0,0,0-2.87-2.07,3.88,3.88,0,0,0-3.43.08" transform="translate(-0.49 0)"/><path class="cls-42" d="M720.3,115.25l-1.43,3.51s-3.11-.07-3.92,2.49a4.32,4.32,0,0,0,1.12,4.32L708,145.2s-32.29,5.08-33.14,7.15-60.72,166.88-60.72,166.88l83,29.74s59.35-157.25,62-171.38L741.07,154l7.1-17.86s3.45-.76,4-2.7-2.21-2.84-2.21-2.84l0.9-2.77Z" transform="translate(-0.49 0)"/><polygon class="cls-43" points="754.4 131.05 716.51 115.47 723.63 100.65 758.51 114.99 754.4 131.05"/><path class="cls-42" d="M667.21,173.52a27.2,27.2,0,0,1,28.43,2.64c4.22,3.15,7.62,7.51,12.41,9.69,7.37,3.35,15.91.74,23.78-1.19s26.19-3.3,24.83,4.69c-0.68,4-36.9,104.3-58.61,160L611.3,318.27Z" transform="translate(-0.49 0)"/><polygon class="cls-44" points="646.89 224.87 734.94 248.93 716.99 297.68 630.03 269.34 646.89 224.87"/><path class="cls-45" d="M659.08,236.76c10.56-25.68,32-41.19,47.94-34.64s20.27,32.67,9.71,58.35" transform="translate(-0.49 0)"/><polygon class="cls-46" points="754.4 131.05 716.51 115.47 723.63 100.65 758.51 114.99 754.4 131.05"/><ellipse class="cls-2" cx="723.03" cy="109.74" rx="5.9" ry="0.42" transform="translate(305.38 710.4) rotate(-63.85)"/><ellipse class="cls-2" cx="726.4" cy="110.93" rx="5.5" ry="0.42" transform="translate(354.26 744.84) rotate(-68.3)"/><path class="cls-2" d="M728.73,118.46c-0.22,0,.07-2.71,1-5.88s2.07-5.59,2.28-5.51-0.58,2.61-1.48,5.74S729,118.5,728.73,118.46Z" transform="translate(-0.49 0)"/><ellipse class="cls-2" cx="731.36" cy="111.65" rx="6.13" ry="0.42" transform="translate(440.22 792) rotate(-75.55)"/><path class="cls-2" d="M735.19,121.76c-0.22,0,.16-2.74,1.21-5.92s2.33-5.58,2.54-5.49-0.72,2.61-1.74,5.75S735.43,121.81,735.19,121.76Z" transform="translate(-0.49 0)"/><ellipse class="cls-2" cx="740.51" cy="117.36" rx="5.9" ry="0.42" transform="translate(385.89 778.21) rotate(-70.82)"/><ellipse class="cls-2" cx="744.22" cy="118.58" rx="5.42" ry="0.42" transform="translate(408.15 793.34) rotate(-72.61)"/><ellipse class="cls-2" cx="748.15" cy="120.08" rx="5.39" ry="0.42" transform="translate(474.04 826.68) rotate(-77.95)"/><ellipse class="cls-2" cx="753.07" cy="121.62" rx="5.54" ry="0.42" transform="translate(508.09 844.2) rotate(-80.48)"/><circle class="cls-2" cx="704.29" cy="263.69" r="1.49" transform="translate(191.92 814.62) rotate(-67.63)"/><circle class="cls-2" cx="664.22" cy="248.81" r="1.49" transform="translate(180.85 768.35) rotate(-67.63)"/><path class="cls-2" d="M710.25,253.24c-0.35.48-1.58,0.16-3-.24s-2.6-.83-2.63-1.42,1.45-1.12,3.22-.59S710.6,252.79,710.25,253.24Z" transform="translate(-0.49 0)"/><path class="cls-2" d="M672.06,238.28c-0.35.48-1.59,0.16-3-.24s-2.6-.83-2.63-1.42,1.45-1.11,3.22-.59S672.41,237.83,672.06,238.28Z" transform="translate(-0.49 0)"/><path class="cls-2" d="M697.35,261.72a3.29,3.29,0,0,1-.81,1,12.52,12.52,0,0,1-2.84,2.12,14.19,14.19,0,0,1-19.36-5.27q-0.35-.61-0.64-1.25a12.49,12.49,0,0,1-1-3.38,3.44,3.44,0,0,1,0-1.3,29.14,29.14,0,0,0,1.63,4.42,14.13,14.13,0,0,0,18.93,6.4l0.27-.14A28.91,28.91,0,0,0,697.35,261.72Z" transform="translate(-0.49 0)"/><path class="cls-2" d="M699.62,262.78c-0.18.16-1.1-.66-2.47-1.16s-2.59-.51-2.62-0.75,1.32-.64,2.92,0S699.81,262.67,699.62,262.78Z" transform="translate(-0.49 0)"/><path class="cls-2" d="M675.29,254.27c-0.06.23-1.29,0.1-2.79,0.22s-2.7.41-2.79,0.19,1.08-.91,2.73-1S675.36,254.06,675.29,254.27Z" transform="translate(-0.49 0)"/><path class="cls-2" d="M641.73,239.84c-10,.62-24.21,6.28-27.4,17-4,13.27,16.9,14.83,25.09,14.77a1.39,1.39,0,1,0,0-2.76,54,54,0,0,1-12.77-1.18c-4.26-.94-10.54-2.63-10.38-8.87,0.07-2.55,2.45-5.46,4.11-7.22,5.68-6,13.46-9.26,21.53-10.42a0.68,0.68,0,0,0-.19-1.34h0v0Z" transform="translate(-0.49 0)"/><path class="cls-2" d="M643.12,266.81a3.71,3.71,0,1,1-1.33-.54" transform="translate(-0.49 0)"/><path class="cls-2" d="M729,267.24c15.43,3.34,29.87-8.92,32.81-23.56,0.26-1.29-1.69-1.47-2-.24-3.89,15.34-15.82,22.06-30.83,22.23-1,0-.8,1.41,0,1.58h0Z" transform="translate(-0.49 0)"/><path class="cls-2" d="M760.5,243.1a3.27,3.27,0,0,0,4.59.55l0.2-.17a4.25,4.25,0,0,0,.56-5.05,4.51,4.51,0,0,0-4.21-2.28,3.79,3.79,0,0,0-3.36,3.25,3.27,3.27,0,0,0,2.9,3.49" transform="translate(-0.49 0)"/><path class="cls-2" d="M615.4,315.22c7.26,8.48,16.67,9,27.34,9,14.77-.08,25.44,1.27,37,11.6,5.55,5,9.08,7.24,16.55,7.65,1.75,0.09,2.11-2.61.33-2.73C682.37,339.82,676.39,325,663,322c-16.26-3.64-32.08,3.83-46.64-7.76a0.71,0.71,0,0,0-1,1h0v0Z" transform="translate(-0.49 0)"/><ellipse class="cls-19" cx="707.39" cy="272.32" rx="2.09" ry="8.6" transform="translate(192.62 829.16) rotate(-68.33)"/><ellipse class="cls-19" cx="657.47" cy="254.26" rx="2.09" ry="7.83" transform="translate(219.2 806.76) rotate(-72.75)"/><path class="cls-2" d="M709.87,223a10.3,10.3,0,0,1,.24,2.26,12.29,12.29,0,0,1-1,6.18,6.9,6.9,0,0,1-3.13,3.14,5.45,5.45,0,0,1-5.09-.37,7.74,7.74,0,0,1-3.44-4.5,15,15,0,0,1-.38-6.06l0.16-1.45,0.63,1.32a9.54,9.54,0,0,1,.72,2,6.8,6.8,0,0,1-1.48,6.27,5.07,5.07,0,0,1-5.81,1.29,8.73,8.73,0,0,1-3.89-3.84,14.6,14.6,0,0,1-1.59-4.44,14.81,14.81,0,0,1,.28-6.75,9,9,0,0,1,1-2.29,17,17,0,0,0-.65,8.92c0.6,2.59,2,6.12,5.2,7.68a4.28,4.28,0,0,0,4.91-1.15,6,6,0,0,0,1.26-5.52,8.71,8.71,0,0,0-.65-1.87l0.79-.13c-0.56,3.91.35,8.1,3.38,9.81a4.77,4.77,0,0,0,4.43.4,6.4,6.4,0,0,0,2.9-2.8,12.78,12.78,0,0,0,1.24-5.9A15.24,15.24,0,0,1,709.87,223Z" transform="translate(-0.49 0)"/><path class="cls-2" d="M391.87,259.67c5-.51,7.09,7.31,7.09,10.84,0,3.79-1.55,6.79-3.74,9.76-0.83,1.13,1,2.51,1.94,1.49A16.47,16.47,0,0,0,401,266.21c-1.12-4-4.35-9.77-9.3-8-0.76.26-.71,1.59,0.2,1.5h0v0Z" transform="translate(-0.49 0)"/><path class="cls-2" d="M395.78,281.14a17.41,17.41,0,0,0,4.3,3,6.09,6.09,0,0,0,5.07.08,3.75,3.75,0,0,0,2-4.36,4.13,4.13,0,0,0-3.55-2.43,12.15,12.15,0,0,0-4.46.68" transform="translate(-0.49 0)"/><path class="cls-2" d="M353.51,266c10.43,3.83,6.88,15.67,2.55,22.71a1.22,1.22,0,0,0,2.11,1.23c4.72-7.82,8.18-22.62-4.36-25a0.57,0.57,0,0,0-.3,1.09h0v0Z" transform="translate(-0.49 0)"/><path class="cls-2" d="M357.1,290.22a19.11,19.11,0,0,0,4.09,3.38,6.51,6.51,0,0,0,5.14.69,3.91,3.91,0,0,0,2.73-4.06c-0.32-2-2.39-3.16-4.28-3.9a9.68,9.68,0,0,0-3.44-.82,3.88,3.88,0,0,0-3.14,1.38" transform="translate(-0.49 0)"/><path class="cls-47" d="M371.46,179.79c-12.4-6.87-27.58-8.82-41.13-4.65S305.15,189.67,300.11,203,297,232,305.55,243.33c9.39,12.36,25.06,18.19,40.29,21.2,15,3,30.61,3.8,45.58.67s29.32-10.41,39.46-21.87,15.7-27.26,13.34-42.38S431,172,416.38,167.47s-32.24,1.63-39.72,15" transform="translate(-0.49 0)"/><path class="cls-37" d="M380.37,174.9s-18.18-9.37-20.43-8.62S367.06,178,371.56,178c0,0-15.55,3.23-12.74,5.86s16.86,0.75,19.86-2.44c0,0,5.16,8.39,6.52,5.7s1.17-7,1.17-7,12,4.4,16.11-2.11L389.74,177s9.93-4.69,8.62-8.62-10.87,3.94-10.87,3.94,4.68-10.12,8.43-12a8.71,8.71,0,0,0-8.62-4.5Z" transform="translate(-0.49 0)"/><path class="cls-48" d="M314,211.67c-0.82,0-1.57-2-1.3-5.23a23,23,0,0,1,14.88-18.77c3.08-1,5.15-.71,5.39.07,0.47,1.73-5.67,4.79-10.54,11.13C317.37,205.07,315.79,211.75,314,211.67Z" transform="translate(-0.49 0)"/><ellipse class="cls-48" cx="311.72" cy="223.32" rx="3.14" ry="4.27" transform="translate(-45.35 82.29) rotate(-14.04)"/><ellipse class="cls-48" cx="408.35" cy="171.53" rx="3.3" ry="3.14" transform="translate(-14.91 39.49) rotate(-5.44)"/><path class="cls-2" d="M362.64,231.13c-0.32,0-.45-1.77-1-4.4a10.6,10.6,0,0,0-1.77-4.06,5.5,5.5,0,0,0-4.25-2.37,6.34,6.34,0,0,0-4.48,2.2,10.08,10.08,0,0,0-2.07,3.94c-0.71,2.57-.77,4.35-1.1,4.34s-0.74-1.73-.34-4.66a10.2,10.2,0,0,1,2-4.87,7.88,7.88,0,0,1,6-3,7.16,7.16,0,0,1,5.82,3.34,10.56,10.56,0,0,1,1.7,5C363.31,229.42,362.87,231.13,362.64,231.13Z" transform="translate(-0.49 0)"/><path class="cls-2" d="M402,228.67c-0.32,0-.45-1.77-1-4.4a10.55,10.55,0,0,0-1.8-4.1A5.5,5.5,0,0,0,395,217.8a6.34,6.34,0,0,0-4.48,2.2,10.11,10.11,0,0,0-2.07,3.94c-0.71,2.57-.77,4.35-1.1,4.34s-0.74-1.73-.34-4.66a10.21,10.21,0,0,1,2-4.87,7.88,7.88,0,0,1,6-3,7.16,7.16,0,0,1,5.82,3.34,10.57,10.57,0,0,1,1.69,5C402.72,226.93,402.3,228.67,402,228.67Z" transform="translate(-0.49 0)"/><path class="cls-2" d="M367.5,229.75a15.33,15.33,0,0,0,12.58-.79c1.12-.6,2.36-1.38,3.57-1a2.69,2.69,0,0,1,1.73,2.26,5.51,5.51,0,0,1-.57,2.92,11.94,11.94,0,0,1-9.47,6.89,11.6,11.6,0,0,1-10.59-4.92,5.69,5.69,0,0,1-1.06-2.65,2.91,2.91,0,0,1,1-2.57,2.17,2.17,0,0,1,2.78-.14" transform="translate(-0.49 0)"/><g class="cls-49"><path class="cls-14" d="M381.56,237.67c0.29-.19-1.81-3.9-3.81-4.54a8.09,8.09,0,0,0-6.09.72,16.7,16.7,0,0,0-4.78,4S372.65,243.77,381.56,237.67Z" transform="translate(-0.49 0)"/><path class="cls-15" d="M368.38,229.88a2.8,2.8,0,0,0,1.22,1,7.65,7.65,0,0,0,1.53.45,18.57,18.57,0,0,0,3.57.48,7.94,7.94,0,0,0,3.51-.68,5.08,5.08,0,0,0,2.52-2.48l-12.33,1.18" transform="translate(-0.49 0)"/><path class="cls-16" d="M375.48,234.46c-0.07.59-1.69,0.88-3.35,1.76s-2.88,2-3.4,1.67,0.16-2.38,2.45-3.53S375.6,233.91,375.48,234.46Z" transform="translate(-0.49 0)"/></g><path class="cls-2" d="M444.28,207.32c12.69-3.76,25.14-.55,29.06,13.47a1.57,1.57,0,0,0,3-.84c-3.55-13.45-20.24-23.09-32.71-14.08a0.79,0.79,0,0,0,.61,1.45h0Z" transform="translate(-0.49 0)"/><path class="cls-2" d="M476.41,221.36a3.63,3.63,0,0,0-4.92,1.46l-0.08.15a3.78,3.78,0,0,0,2.19,4.86,4,4,0,0,0,4.82-2.4,4.14,4.14,0,0,0-2.25-5" transform="translate(-0.49 0)"/><path class="cls-2" d="M317.48,238.86c-12.46-9-29.15.63-32.7,14.08a1.57,1.57,0,0,0,3,.84c3.93-14,16.38-17.23,29.07-13.47a0.79,0.79,0,0,0,.61-1.45h0Z" transform="translate(-0.49 0)"/><path class="cls-2" d="M284.75,254.35a3.63,3.63,0,0,1,4.92,1.46l0.08,0.15a3.79,3.79,0,0,1-2.19,4.86,4,4,0,0,1-4.82-2.4,4.14,4.14,0,0,1,2.25-5" transform="translate(-0.49 0)"/><path class="cls-31" d="M84.14,86a11.55,11.55,0,0,0-5.25-9.64A10.74,10.74,0,0,0,68,76.18a10,10,0,0,0-4.82,9.68,12.72,12.72,0,0,0,3.25,6.61A38.16,38.16,0,0,0,72,97.38l9.07,6.94a4.41,4.41,0,0,0,2.52,1.17,4.43,4.43,0,0,0,2.58-1.22,63.59,63.59,0,0,0,11-10c3.15-3.88,5.4-8.57,5.41-13.52,0-2.35-.59-4.86-2.36-6.4-2.32-2-6-1.75-8.71-.33a13.32,13.32,0,0,0-7,10.7" transform="translate(-0.49 0)"/><path class="cls-30" d="M386.76,323.35a24.43,24.43,0,0,1-8.65,16.93,22.72,22.72,0,0,0,21.3-17.69" transform="translate(-0.49 0)"/><path class="cls-31" d="M399.55,309.83a6.35,6.35,0,0,0-2.89-5.29,5.9,5.9,0,0,0-6-.13,5.51,5.51,0,0,0-2.65,5.31,7,7,0,0,0,1.79,3.63,21,21,0,0,0,3.08,2.7l5,3.81a1.82,1.82,0,0,0,2.8,0,36,36,0,0,0,6-5.47,12.1,12.1,0,0,0,3-7.42,4.59,4.59,0,0,0-1.29-3.51,4.28,4.28,0,0,0-4.78-.18,7.3,7.3,0,0,0-3.85,5.87" transform="translate(-0.49 0)"/><path class="cls-31" d="M878.76,55a11.55,11.55,0,0,0-5.25-9.64,10.74,10.74,0,0,0-10.9-.23,10,10,0,0,0-4.82,9.68A12.72,12.72,0,0,0,861,61.42a38.16,38.16,0,0,0,5.62,4.91l9.07,6.94a3.32,3.32,0,0,0,5.1,0,63.6,63.6,0,0,0,11-10c3.15-3.88,5.4-8.57,5.41-13.52,0-2.35-.59-4.86-2.36-6.4-2.32-2-6-1.75-8.71-.33a13.32,13.32,0,0,0-7,10.7" transform="translate(-0.49 0)"/><path class="cls-31" d="M131.63,285.15a6.35,6.35,0,0,0-2.89-5.29,5.9,5.9,0,0,0-6-.13,5.51,5.51,0,0,0-2.65,5.31,7,7,0,0,0,1.78,3.63,21,21,0,0,0,3.08,2.7l5,3.81a1.82,1.82,0,0,0,2.8,0,36,36,0,0,0,6-5.47,12.1,12.1,0,0,0,3-7.42,4.59,4.59,0,0,0-1.29-3.51,4.28,4.28,0,0,0-4.78-.18,7.3,7.3,0,0,0-3.85,5.87" transform="translate(-0.49 0)"/><path class="cls-31" d="M874.37,256.41a11.55,11.55,0,0,0-5.25-9.64,10.74,10.74,0,0,0-10.9-.23,10,10,0,0,0-4.82,9.68,12.72,12.72,0,0,0,3.25,6.61,38.16,38.16,0,0,0,5.62,4.91l9.07,6.94a3.32,3.32,0,0,0,5.1,0,63.6,63.6,0,0,0,11-10c3.15-3.88,5.4-8.57,5.41-13.52,0-2.35-.59-4.86-2.36-6.4-2.32-2-6-1.75-8.71-.33a13.32,13.32,0,0,0-7,10.7" transform="translate(-0.49 0)"/><path class="cls-31" d="M700.36,50.55a6.34,6.34,0,0,0-2.88-5.29,5.9,5.9,0,0,0-6-.13,5.51,5.51,0,0,0-2.61,5.32,7,7,0,0,0,1.79,3.63,20.88,20.88,0,0,0,3.08,2.7l5,3.81a1.82,1.82,0,0,0,2.8,0,35.83,35.83,0,0,0,6-5.47,12.09,12.09,0,0,0,3-7.42,4.58,4.58,0,0,0-1.29-3.51,4.28,4.28,0,0,0-4.78-.18,7.3,7.3,0,0,0-3.85,5.87" transform="translate(-0.49 0)"/><path class="cls-31" d="M15.62,238.41a8.31,8.31,0,0,0-3.78-6.94A7.73,7.73,0,0,0,4,231.31a7.2,7.2,0,0,0-3.47,7A9.16,9.16,0,0,0,2.87,243a27.47,27.47,0,0,0,4,3.53l6.53,5a2.39,2.39,0,0,0,3.67,0,45.78,45.78,0,0,0,7.92-7.2,15.8,15.8,0,0,0,3.89-9.73,6,6,0,0,0-1.7-4.61c-1.67-1.44-4.32-1.26-6.27-.24a9.59,9.59,0,0,0-5,7.7" transform="translate(-0.49 0)"/><path class="cls-31" d="M945.43,160.8a5.33,5.33,0,0,0-2.42-4.45,5,5,0,0,0-5-.11,4.62,4.62,0,0,0-2.23,4.47,5.87,5.87,0,0,0,1.5,3.05,17.62,17.62,0,0,0,2.59,2.27l4.19,3.2a1.53,1.53,0,0,0,2.35,0,29.36,29.36,0,0,0,5.08-4.62,10.14,10.14,0,0,0,2.5-6.24,3.86,3.86,0,0,0-1.09-3,3.7,3.7,0,0,0-4-.15,6.15,6.15,0,0,0-3.23,4.94" transform="translate(-0.49 0)"/></svg>