<svg id="Capa_1" data-name="Capa 1" xmlns="http://www.w3.org/2000/svg" xmlns:xlink="http://www.w3.org/1999/xlink" viewBox="0 0 956.01 364.41"><defs><style>.cls-1,.cls-15,.cls-16{fill:none;}.cls-2{fill:#cedd83;}.cls-3{fill:#bed465;}.cls-4{fill:#5ea571;}.cls-5{fill:#aaca49;}.cls-6{fill:#000100;}.cls-7{fill:url(#Degradado_sin_nombre_2);}.cls-8{fill:#77bc81;}.cls-9{fill:#2d612c;}.cls-10{fill:#ebbaa9;}.cls-11{fill:#ebb9a7;}.cls-12{fill:#e7b4a6;}.cls-13{fill:#6d5c20;}.cls-14{fill:#070406;}.cls-15{stroke:#070406;}.cls-15,.cls-16{stroke-miterlimit:10;}.cls-16{stroke:#9e7e4b;}.cls-17{fill:#edbda9;}.cls-18{fill:#e9b4b0;}.cls-19{fill:#50404b;}.cls-20{fill:#604e5a;}.cls-21{fill:#6f5967;}.cls-22{fill:#f9af27;}.cls-23{fill:url(#hojitas);}.cls-24{fill:#ef7e51;}.cls-25{opacity:0.92;}.cls-26{fill:#e79e4a;}.cls-27{fill:#eebc4d;}.cls-28{opacity:0.81;}.cls-29{fill:#7fa24c;opacity:0.1;isolation:isolate;}</style><linearGradient id="Degradado_sin_nombre_2" x1="370.35" y1="233.81" x2="691.86" y2="233.81" gradientTransform="matrix(1, 0, 0, -1, -58.91, 346.56)" gradientUnits="userSpaceOnUse"><stop offset="0" stop-color="#fff"/><stop offset="0" stop-color="#f5a485"/><stop offset="0.44" stop-color="#ef7e51"/></linearGradient><pattern id="hojitas" data-name="hojitas" width="78.68" height="60.01" patternTransform="matrix(0.31, 0, 0, -0.31, -38.94, 614.15)" patternUnits="userSpaceOnUse" viewBox="0 0 78.68 60.01"><rect class="cls-1" width="78.68" height="60.01"/><rect class="cls-1" width="78.68" height="60.01"/><path class="cls-2" d="M76.93-17.83A13.94,13.94,0,0,0,64.72-4a27,27,0,0,0,.21,3.36,29.45,29.45,0,0,0,4,11.31,38.62,38.62,0,0,0,8,9.52c1.06,0.9,1.74,1.37,1.74,1.37s0.68-.47,1.74-1.37a38.62,38.62,0,0,0,8-9.52,29.45,29.45,0,0,0,4-11.31A27,27,0,0,0,92.61-4,13.94,13.94,0,0,0,80.4-17.83H76.93Z"/><path class="cls-3" d="M80.83-17.77A13.94,13.94,0,0,0,69.06-4a27,27,0,0,0,.21,3.36,29.45,29.45,0,0,0,4,11.31,38.57,38.57,0,0,0,7.61,9.14l-0.43.38c-1.06.9-1.74,1.37-1.74,1.37S78,21.1,77,20.2a38.62,38.62,0,0,1-8-9.52A29.45,29.45,0,0,1,65-.63,27,27,0,0,1,64.72-4,13.94,13.94,0,0,1,76.93-17.83H80.4l0.43,0.06h0Z"/><path class="cls-4" d="M78.67,21.56s-0.68-.47-1.74-1.37V15.84a39.81,39.81,0,0,0,3.47,3.59v0.76C79.34,21.09,78.67,21.56,78.67,21.56Z"/><path class="cls-5" d="M78.67,21.56s-0.68-.47-1.74-1.37v-40a1.74,1.74,0,0,1,1.6-1.87,1.74,1.74,0,0,1,1.87,1.6,1.74,1.74,0,0,1,0,.26v40C79.34,21.09,78.67,21.56,78.67,21.56Z"/><path class="cls-6" d="M93-.56a17.53,17.53,0,0,0-1-9.31,0.65,0.65,0,0,0-.84-0.37,0.65,0.65,0,0,0-.37.84l0,0.05a15.27,15.27,0,0,1,1,7.6L81.05-8.5v-8.57a13.38,13.38,0,0,1,8.19,5,0.65,0.65,0,0,0,.87.29,0.65,0.65,0,0,0,.29-0.87,0.65,0.65,0,0,0-.16-0.2A14.68,14.68,0,0,0,81-18.42v-1.43a2.39,2.39,0,0,0-2.54-2.23,2.39,2.39,0,0,0-2.23,2.23v1.45c-9.36,1.65-13,9.6-12,17.84,1.1,8.81,6.72,17.6,14,22.65a0.65,0.65,0,0,0,.74,0C86.34,17,92.11,8.82,93-.56h0ZM76.28,18.74a38.25,38.25,0,0,1-6.5-7.86l6.5-4.07V18.74h0ZM65.37-4a13.3,13.3,0,0,1,10.9-13.07V-8.5l-4.8,3a0.65,0.65,0,0,0-.16.9,0.65,0.65,0,0,0,.85.2L76.28-7V5.28L69.12,9.76A28.66,28.66,0,0,1,65.64-.31l3.7-2.32a0.65,0.65,0,0,0,.16-0.9,0.65,0.65,0,0,0-.85-0.2l-3.17,2c-0.06-.75-0.1-1.51-0.1-2.26h0ZM79.75,10.77a0.65,0.65,0,1,0,1.3,0v-4l6.5,4.07a38.25,38.25,0,0,1-6.5,7.86V13.61a0.65,0.65,0,1,0-1.3,0v6.28c-0.46.38-.83,0.68-1.08,0.87-0.25-.19-0.63-0.48-1.08-0.87V-19.83a1.08,1.08,0,0,1,1.08-1.08,1.08,1.08,0,0,1,1.08,1.08v30.6h0ZM81.05-7L91.69-.33A28.66,28.66,0,0,1,88.21,9.74L81.05,5.26V-7Z"/><path class="cls-2" d="M-1.75-17.83A13.94,13.94,0,0,0-14-4a27,27,0,0,0,.21,3.36,29.45,29.45,0,0,0,4,11.31,38.62,38.62,0,0,0,8,9.52C-0.69,21.09,0,21.56,0,21.56s0.68-.47,1.74-1.37a38.62,38.62,0,0,0,8-9.52,29.45,29.45,0,0,0,4-11.31A27,27,0,0,0,13.93-4,13.94,13.94,0,0,0,1.72-17.83H-1.75Z"/><path class="cls-3" d="M2.15-17.77A13.94,13.94,0,0,0-9.62-4,27,27,0,0,0-9.41-.63a29.45,29.45,0,0,0,4,11.31,38.57,38.57,0,0,0,7.56,9.13l-0.43.38C0.66,21.09,0,21.56,0,21.56s-0.68-.47-1.74-1.37a38.62,38.62,0,0,1-8-9.52,29.45,29.45,0,0,1-4-11.31A27,27,0,0,1-14-4,13.94,13.94,0,0,1-1.75-17.83H1.72l0.43,0.06h0Z"/><path class="cls-4" d="M0,21.56s-0.68-.47-1.74-1.37V15.84a39.81,39.81,0,0,0,3.47,3.59v0.76C0.66,21.09,0,21.56,0,21.56Z"/><path class="cls-5" d="M0,21.56s-0.68-.47-1.74-1.37v-40A1.74,1.74,0,0,1,0-21.56H0a1.74,1.74,0,0,1,1.74,1.74v40C0.66,21.09,0,21.56,0,21.56Z"/><path class="cls-6" d="M14.36-.56a17.53,17.53,0,0,0-1-9.31,0.65,0.65,0,0,0-.84-0.37,0.65,0.65,0,0,0-.37.84l0,0.05a15.27,15.27,0,0,1,1,7.6L2.37-8.5v-8.57a13.38,13.38,0,0,1,8.19,5,0.65,0.65,0,0,0,.87.29,0.65,0.65,0,0,0,.29-0.87,0.65,0.65,0,0,0-.16-0.2,14.68,14.68,0,0,0-9.23-5.56v-1.43A2.39,2.39,0,0,0,0-22.22a2.39,2.39,0,0,0-2.4,2.38h0v1.43c-9.36,1.65-13,9.6-12,17.84C-13.3,8.25-7.68,17-.4,22.09a0.65,0.65,0,0,0,.74,0C7.65,17,13.42,8.81,14.34-.56h0ZM-2.4,18.74a38.25,38.25,0,0,1-6.5-7.86l6.5-4.07V18.74h0ZM-13.31-4A13.3,13.3,0,0,1-2.4-17.08V-8.5l-4.8,3a0.65,0.65,0,0,0-.21.89h0a0.65,0.65,0,0,0,.89.21h0L-2.4-7V5.28L-9.56,9.76A28.66,28.66,0,0,1-13-.31l3.7-2.32a0.65,0.65,0,0,0,.21-0.89h0A0.66,0.66,0,0,0-10-3.74l-3.17,2c-0.06-.75-0.1-1.51-0.1-2.26h-0.05ZM1.07,10.77a0.65,0.65,0,0,0,1.3,0h0v-4l6.5,4.07a38.25,38.25,0,0,1-6.5,7.86V13.61a0.65,0.65,0,1,0-1.3,0v6.28C0.61,20.27.24,20.56,0,20.75c-0.25-.19-0.63-0.48-1.08-0.87V-19.83A1.09,1.09,0,0,1,0-20.91a1.09,1.09,0,0,1,1.08,1.08v30.6h0ZM2.37-7L13-.31A28.66,28.66,0,0,1,9.53,9.76L2.37,5.28V-7Z"/><path class="cls-2" d="M76.93,42.18A13.94,13.94,0,0,0,64.72,56a27,27,0,0,0,.21,3.36,29.45,29.45,0,0,0,4,11.31,38.62,38.62,0,0,0,8,9.52c1.06,0.9,1.74,1.37,1.74,1.37s0.68-.47,1.74-1.37a38.62,38.62,0,0,0,8-9.52,29.45,29.45,0,0,0,4-11.31A27,27,0,0,0,92.61,56,13.94,13.94,0,0,0,80.4,42.18H76.93Z"/><path class="cls-3" d="M80.83,42.24A13.94,13.94,0,0,0,69.06,56a27,27,0,0,0,.21,3.36,29.45,29.45,0,0,0,4,11.31,38.57,38.57,0,0,0,7.61,9.14l-0.43.38c-1.06.9-1.74,1.37-1.74,1.37S78,81.1,77,80.2a38.62,38.62,0,0,1-8-9.52,29.45,29.45,0,0,1-4-11.31A27,27,0,0,1,64.72,56,13.94,13.94,0,0,1,76.93,42.18H80.4l0.43,0.06h0Z"/><path class="cls-4" d="M76.93,43.46V42.18H80.4v0.13A13.8,13.8,0,0,0,76.93,43.46Z"/><path class="cls-5" d="M78.67,81.57S78,81.1,76.93,80.2v-40a1.74,1.74,0,0,1,3.47,0v40C79.34,81.1,78.67,81.57,78.67,81.57Z"/><path class="cls-6" d="M93,59.46a17.53,17.53,0,0,0-1-9.31,0.65,0.65,0,0,0-1.19.52,15.27,15.27,0,0,1,1,7.6L81.05,51.51V42.94a13.38,13.38,0,0,1,8.19,5,0.65,0.65,0,0,0,1-.79A14.68,14.68,0,0,0,81,41.59V40.16a2.39,2.39,0,0,0-4.77,0v1.46c-9.36,1.65-13,9.6-12,17.84C65.39,68.27,71,77,78.29,82.11a0.65,0.65,0,0,0,.74,0C86.34,77,92.11,68.83,93,59.46h0ZM76.28,78.75a38.25,38.25,0,0,1-6.5-7.86l6.5-4.07V78.75h0ZM65.37,56a13.3,13.3,0,0,1,10.9-13.07v8.57l-4.8,3a0.65,0.65,0,0,0,.69,1.1L76.28,53V65.29l-7.16,4.48A28.66,28.66,0,0,1,65.64,59.7l3.7-2.32a0.65,0.65,0,0,0-.69-1.1l-3.17,2c-0.06-.75-0.1-1.51-0.1-2.26h0ZM79.75,70.79a0.65,0.65,0,0,0,.65.65h0a0.65,0.65,0,0,0,.65-0.65h0v-4l6.5,4.07a38.25,38.25,0,0,1-6.5,7.86V73.59a0.65,0.65,0,0,0-.65-0.65h0a0.65,0.65,0,0,0-.65.65h0v6.28c-0.46.38-.83,0.68-1.08,0.87-0.25-.19-0.63-0.48-1.08-0.87V40.18a1.08,1.08,0,1,1,2.17,0v30.6h0ZM81.05,53L91.69,59.7a28.66,28.66,0,0,1-3.48,10.07l-7.16-4.48V53Z"/><path class="cls-2" d="M37.59,12.17A13.94,13.94,0,0,0,25.38,26a27,27,0,0,0,.21,3.36,29.45,29.45,0,0,0,4,11.31,38.62,38.62,0,0,0,8,9.52c1.06,0.9,1.74,1.37,1.74,1.37s0.67-.47,1.73-1.38a38.62,38.62,0,0,0,8-9.52,29.45,29.45,0,0,0,4-11.31A27,27,0,0,0,53.27,26,13.94,13.94,0,0,0,41.06,12.17H37.59Z"/><path class="cls-3" d="M41.49,12.23A13.94,13.94,0,0,0,29.72,26a27,27,0,0,0,.21,3.36,29.45,29.45,0,0,0,4,11.31,38.57,38.57,0,0,0,7.61,9.14l-0.43.38c-1.06.9-1.74,1.37-1.74,1.37s-0.68-.47-1.74-1.37a38.62,38.62,0,0,1-8-9.52,29.45,29.45,0,0,1-4-11.31A27,27,0,0,1,25.38,26,13.94,13.94,0,0,1,37.59,12.17h3.47l0.43,0.06h0Z"/><path class="cls-4" d="M39.32,51.57s-0.68-.47-1.74-1.37V45.85A39.81,39.81,0,0,0,41,49.44v0.75C40,51.1,39.32,51.57,39.32,51.57Z"/><path class="cls-4" d="M37.59,13.45V12.17h3.47v0.14A13.8,13.8,0,0,0,37.59,13.45Z"/><path class="cls-5" d="M39.32,51.57s-0.68-.47-1.74-1.37v-40a1.74,1.74,0,0,1,3.47,0v40C40,51.1,39.32,51.57,39.32,51.57Z"/><path class="cls-6" d="M53.7,29.45a17.53,17.53,0,0,0-1-9.31,0.65,0.65,0,0,0-1.19.52,15.27,15.27,0,0,1,1,7.6L41.71,21.5V12.93a13.38,13.38,0,0,1,8.19,5,0.65,0.65,0,0,0,1-.79,14.68,14.68,0,0,0-9.23-5.56V10.15a2.39,2.39,0,0,0-4.77,0v1.46c-9.36,1.65-13,9.6-12,17.84C26,38.26,31.66,47,39,52.1a0.65,0.65,0,0,0,.74,0c7.26-5.09,13-13.28,14-22.65h0ZM36.94,48.74a38.25,38.25,0,0,1-6.5-7.86l6.5-4.07V48.74h0ZM26,26A13.3,13.3,0,0,1,36.9,12.94V21.5l-4.8,3a0.65,0.65,0,0,0,.64,1.13l0.05,0L36.94,23V35.28l-7.16,4.48A28.66,28.66,0,0,1,26.3,29.7L30,27.38a0.65,0.65,0,0,0-.69-1.1l-3.17,2C26.07,27.51,26,26.76,26,26h0ZM40.41,40.78a0.65,0.65,0,0,0,1.3,0v-4l6.5,4.07a38.25,38.25,0,0,1-6.5,7.86V43.58a0.65,0.65,0,0,0-1.3,0v6.31a10.17,10.17,0,0,1-1.09.87c-0.25-.19-0.63-0.48-1.08-0.87V10.18a1.08,1.08,0,0,1,2.17,0v30.6ZM41.71,23l10.64,6.66a28.66,28.66,0,0,1-3.48,10.07l-7.16-4.48V23Z"/><path class="cls-2" d="M-1.75,42.18A13.94,13.94,0,0,0-14,56a27,27,0,0,0,.25,3.36,29.45,29.45,0,0,0,4,11.31,38.62,38.62,0,0,0,8,9.52C-0.69,81.1,0,81.57,0,81.57s0.68-.47,1.74-1.37a38.62,38.62,0,0,0,8-9.52,29.45,29.45,0,0,0,4-11.31A27,27,0,0,0,13.93,56,13.94,13.94,0,0,0,1.72,42.18H-1.75Z"/><path class="cls-3" d="M2.15,42.24A13.94,13.94,0,0,0-9.62,56a27,27,0,0,0,.21,3.36,29.45,29.45,0,0,0,4,11.31A38.57,38.57,0,0,0,2.2,79.82l-0.43.38C0.66,81.1,0,81.57,0,81.57s-0.68-.47-1.74-1.37a38.62,38.62,0,0,1-8-9.52,29.45,29.45,0,0,1-4-11.31A27,27,0,0,1-14,56,13.94,13.94,0,0,1-1.75,42.18H1.72l0.43,0.06h0Z"/><path class="cls-4" d="M-1.75,43.46V42.18H1.72v0.13A13.8,13.8,0,0,0-1.75,43.46Z"/><path class="cls-5" d="M0,81.57s-0.68-.47-1.74-1.37v-40A1.74,1.74,0,0,1,0,38.45H0a1.74,1.74,0,0,1,1.74,1.74v40C0.66,81.1,0,81.57,0,81.57Z"/><path class="cls-6" d="M14.36,59.46a17.53,17.53,0,0,0-1-9.31,0.65,0.65,0,0,0-1.19.52,15.27,15.27,0,0,1,1,7.6L2.37,51.51V42.94a13.38,13.38,0,0,1,8.19,5,0.65,0.65,0,0,0,1-.79,14.68,14.68,0,0,0-9.23-5.56V40.16A2.39,2.39,0,0,0,0,37.8a2.39,2.39,0,0,0-2.4,2.38h0v1.44c-9.36,1.65-13,9.6-12,17.84,1.1,8.81,6.72,17.6,14,22.65a0.65,0.65,0,0,0,.74,0c7.32-5.1,13.09-13.28,14-22.65h0ZM-2.4,78.75a38.25,38.25,0,0,1-6.5-7.86l6.5-4.07V78.75h0ZM-13.31,56A13.3,13.3,0,0,1-2.4,42.94v8.57l-4.8,3a0.65,0.65,0,0,0-.2.9h0a0.65,0.65,0,0,0,.89.21h0L-2.4,53V65.29l-7.16,4.48A28.66,28.66,0,0,1-13,59.7l3.7-2.32a0.65,0.65,0,0,0,.21-0.89h0a0.66,0.66,0,0,0-.9-0.21l-3.17,2c-0.06-.75-0.1-1.51-0.1-2.26h-0.05ZM1.07,70.79a0.65,0.65,0,0,0,1.3,0v-4l6.5,4.07a38.25,38.25,0,0,1-6.5,7.86V73.59a0.65,0.65,0,0,0-1.3,0v6.28c-0.46.41-.83,0.7-1.07,0.9-0.25-.19-0.63-0.48-1.08-0.87V40.18A1.09,1.09,0,0,1,0,39.1a1.09,1.09,0,0,1,1.08,1.08v30.6h0ZM2.37,53L13,59.7A28.66,28.66,0,0,1,9.53,69.77L2.37,65.29V53Z"/></pattern></defs><title>banner1</title><path class="cls-7" d="M472.2,224.55c100.61,0,173.7-104.28,158.83-130.67a182.24,182.24,0,0,0-317.67,0C298.5,120.26,371.58,224.53,472.2,224.53h0v0Z" transform="translate(-0.01 -0.95)"/><path class="cls-8" d="M632.5,269.78a182.61,182.61,0,0,1-35.85,46.43c-0.49.46-31.49,24.84-49,32.82a182.37,182.37,0,0,1-235.76-79.25H632.5Z" transform="translate(-0.01 -0.95)"/><path class="cls-9" d="M654.37,183.17a181.38,181.38,0,0,1-22,86.8c-5.85,10.87-104.86,29.27-160.18,29.27S317.86,280.84,312,270q-3.51-6.44-6.49-13.19a182.5,182.5,0,0,1,8.48-164,182.23,182.23,0,0,0,316.42,0A181.31,181.31,0,0,1,654.37,183.17Z" transform="translate(-0.01 -0.95)"/><polygon class="cls-10" points="439.17 278.96 442.02 292.11 465.5 293.18 470.84 290.51 468.23 282.88 461.74 283.92 439.17 278.96"/><polygon class="cls-11" points="477.51 291.54 481.18 292.62 503.01 292.62 507.29 281.62 477.51 291.54"/><path class="cls-11" d="M468.09,168.58l3.92-.78a1.33,1.33,0,0,1,1.2.37l11.88,12.09a1.32,1.32,0,0,1,.38.93v2a1.32,1.32,0,0,0,1.73,1.26l0.34-.11a1.33,1.33,0,0,1,.76,0l1.5,0.42a1.32,1.32,0,0,1,1,1.27v2.28a2.93,2.93,0,0,1-.44,1.55L486.89,193a1.33,1.33,0,0,1-.89.34h-1.71a2.75,2.75,0,0,0-.8.84l-8.64,5.45a1.33,1.33,0,0,1-.8.27H470.7a1.33,1.33,0,0,1-.83-0.29L465.31,197,461.09,193a1.33,1.33,0,0,0-1-.28l-1.43.22a1.33,1.33,0,0,1-1.11-.35l-3.2-2.46a5.47,5.47,0,0,1-.41-2.09V186a1.32,1.32,0,0,1,.73-1.18l1.69-.85a1.33,1.33,0,0,1,.9-0.1h0a1.32,1.32,0,0,0,1.53-1l0.3-1.9a1.32,1.32,0,0,1,.22-0.53l7.89-11.28A1.32,1.32,0,0,1,468.09,168.58Z" transform="translate(-0.01 -0.95)"/><path class="cls-12" d="M465.51,198.18V204a1.78,1.78,0,0,0,0,.43l1.17,4.71a1.78,1.78,0,0,0,1.58,1.34l3.42,0.28h3.09l1.84-.09a1.78,1.78,0,0,0,1.62-1.27l1-3.36a1.78,1.78,0,0,0,.07-0.51v-7.14c0.22-2.89-1.4-2.19-2.58-1.59l-2.79,1.4a1.78,1.78,0,0,1-1.45.07l-4.6-1.81A1.78,1.78,0,0,0,465.51,198.18Z" transform="translate(-0.01 -0.95)"/><path class="cls-13" d="M479.29,206.33l14,0.16a2.5,2.5,0,0,0,2.75-1l3-4.64a1,1,0,0,0,.17-0.56v-4.72a1,1,0,0,0-.1-0.44L488.31,172a1,1,0,0,1-.06-0.18l-1.85-7.09a1,1,0,0,0-.65-0.71L479,161.56l-5-2a1,1,0,0,1-.59-0.63l-1.09-3.21a1,1,0,0,0-1-.7l-2.61.11a1,1,0,0,0-.72.34l-2.65,2.91a1,1,0,0,0-.26.84l0.24,1.66a1,1,0,0,1-.51,1L460,164.62a1,1,0,0,0-.44.51l-5,12.11a1,1,0,0,0-.06.18l-1.31,6.42a1,1,0,0,1-.19.42l-8,10.57a1,1,0,0,0-.16.32l-1.55,5a1,1,0,0,0,.08.8l3.3,6a1,1,0,0,0,1.34.44h0l3.8-1.9a2.32,2.32,0,0,1,1-.24l10.08,0.33c1.19,0,2.78.26,2.86-.94l0.18-4.39c0.06-.81.42-3.77-1-3.89L463,194.18c-3.32-2.19-3.13-1.58-3.51-1.62l-1.42.38c-0.72-.08-1.36-1.11-1.73-1.73L454.44,190a2.31,2.31,0,0,1,0-2.27l0.8-2c0.34-.63.94-0.46,1.64-0.58l1.45-.15c0.65-.11.6-1.72,1-2.27l3.21-5.12a2.31,2.31,0,0,0,.25-0.54l4.82-7c0.21-.66.7-0.65,1.34-0.85a0.52,0.52,0,0,1,.23,0l0.64,0.1c0.8-.27,1.69-0.7,2.31-0.14l7,5.69,6.55,6.32c0.11,0.12-.4,3.3-0.32,3.44l1.38,0.48c0.42,0.69,1.9.24,2.7,0.24h-0.57c1.41,0,0,0,1.69.81l-0.06,3.16a26.85,26.85,0,0,1-3.47,3.7l-2.58.34c-0.61,0-4.51,2.8-4.94,3.23" transform="translate(-0.01 -0.95)"/><path class="cls-14" d="M463.91,178.84c0-.76,2-1.37,4.59-1.37" transform="translate(-0.01 -0.95)"/><path class="cls-14" d="M482,178.84c0-.76-2-1.37-4.59-1.37" transform="translate(-0.01 -0.95)"/><path class="cls-1" d="M463.09,182.6c1.73,1.06,6.17,1,6.89-.23" transform="translate(-0.01 -0.95)"/><path class="cls-15" d="M475.33,182.6c1.73,1.06,6.17,1,6.89-.23" transform="translate(-0.01 -0.95)"/><path class="cls-15" d="M463.09,182.6c1.73,1.06,6.17,1,6.89-.23" transform="translate(-0.01 -0.95)"/><path class="cls-15" d="M470.5,189.65a3.78,3.78,0,0,0,5.33-.28" transform="translate(-0.01 -0.95)"/><path class="cls-15" d="M473.17,187.84h0a0.85,0.85,0,0,1-.85-0.85v-1.8" transform="translate(-0.01 -0.95)"/><ellipse class="cls-16" cx="458.75" cy="191.52" rx="1.43" ry="3.1"/><ellipse class="cls-16" cx="486.9" cy="190.91" rx="1.43" ry="3.1"/><polygon class="cls-17" points="409.75 249.97 407.95 248.22 406.32 246.34 403.72 246.26 405.53 247.22 406.12 248.16 406.08 249.72 404.55 249.68 402.96 246.25 402.87 249.63 401.38 247.9 402.22 250.96 399.19 249.53 401.87 252.38 399.87 252.94 403.68 253.47 405.08 252.47 408.85 252.66 409.75 249.97"/><polygon class="cls-18" points="532.43 248.13 535.64 248.13 536.88 246.28 539.47 246.28 537.63 247.21 536.88 248.88 537.63 249.81 539.01 249.03 540.23 246.28 540.23 249.81 541.76 247.35 540.69 251.03 543.14 249.81 541 252.44 543.14 253.06 539.16 253.06 534.88 252.09 532.43 251.03 532.43 248.13"/><polygon class="cls-19" points="454.94 250.41 445.99 260.39 474.3 277.5 497.71 260.8 487.92 250.41 454.94 250.41"/><path class="cls-20" d="M435.67,253.5l39.18,23.19a0.69,0.69,0,0,1,.21,1l0,0-5.1,6.24a0.69,0.69,0,0,1-.4.24l-7.13,1.38a0.69,0.69,0,0,1-.33,0l-8.78-2.62h-0.07l-11-2.12a0.69,0.69,0,0,0-.79.47l-0.8,2.53a0.69,0.69,0,0,1-.85.48l-0.15-.06-11.85-5.58-0.15-.1-11.54-9.71a0.69,0.69,0,0,1-.22-0.34l-1.71-6.08a0.69,0.69,0,0,1,0-.45l3.4-8.11a0.69,0.69,0,0,1,.64-0.42h17.1A0.69,0.69,0,0,1,435.67,253.5Z" transform="translate(-0.01 -0.95)"/><path class="cls-21" d="M510.94,252.84h20.15a3,3,0,0,1,3,2.74l0.42,4.06a3,3,0,0,1-.56,2.09l-6.71,9.34a3,3,0,0,1-.91.84l-17.93,10.7a3.05,3.05,0,0,1-.61.28l-32.65,10.76a3.06,3.06,0,0,1-2,0l-1-.37a3,3,0,0,1-1.78-1.76l-2.19-5.69a3,3,0,0,1,1.06-3.56l39.93-28.8A3.06,3.06,0,0,1,510.94,252.84Z" transform="translate(-0.01 -0.95)"/><path class="cls-22" d="M533.82,249.62v2.13a2.06,2.06,0,0,1-2.06,2.06H512.09a4.68,4.68,0,0,1-1.15-.15l-20.85-5.35-1.56,2.33A3,3,0,0,1,486,252H457.18a2.54,2.54,0,0,1-2.52-2.21l-0.38-3L432,253.58a4.87,4.87,0,0,1-1.4.21H408.39a0.51,0.51,0,0,1-.51-0.51h0v-0.82a3.23,3.23,0,0,1,1.84-2.91l28.64-13.6,7.5-25.08a3.53,3.53,0,0,1,.4-0.88l2.28-3.59a3.87,3.87,0,0,1,3.27-1.8h13.78l3,5.8h8.5l1.74-4.47h13.24a3.8,3.8,0,0,1,2.24,1.08l2.5,2.5a4.62,4.62,0,0,1,1.18,2l6.92,24.06a0.76,0.76,0,0,0,.41.48l28.16,13A0.51,0.51,0,0,1,533.82,249.62Z" transform="translate(-0.01 -0.95)"/><path class="cls-23" d="M532.91,249.62v2.13a2.06,2.06,0,0,1-2.06,2.06H511.16a4.68,4.68,0,0,1-1.15-.15l-20.85-5.36-1.56,2.33a3,3,0,0,1-2.5,1.34H456.27a2.54,2.54,0,0,1-2.52-2.21l-0.38-3-22.28,6.84a4.87,4.87,0,0,1-1.4.21H407.48a0.51,0.51,0,0,1-.51-0.51h0v-0.82a3.23,3.23,0,0,1,1.84-2.91L437.45,236l7.5-25.08a3.53,3.53,0,0,1,.4-0.88l2.28-3.59a3.87,3.87,0,0,1,3.27-1.8h13.78l3,5.8h8.56l1.74-4.47h13.24a3.8,3.8,0,0,1,2.24,1.08l2.5,2.5a4.62,4.62,0,0,1,1.18,2l7,24.11a0.76,0.76,0,0,0,.41.48l28.16,13A0.51,0.51,0,0,1,532.91,249.62Z" transform="translate(-0.01 -0.95)"/><path class="cls-24" d="M694.56,132.84a2.36,2.36,0,0,0,1.07-2.43L695,126.3l0.2,0.14a2.48,2.48,0,0,0,3.1-.19l12.92-11.81a2.5,2.5,0,0,0-.63-4l-6.85-3,0.41-.21a2.41,2.41,0,0,0,1.29-2l0.68-17.39a2.41,2.41,0,0,0-3.25-2.35l-16.3,6.06A2.41,2.41,0,0,0,685,93.42l-0.07.46-5-5.56a2.41,2.41,0,0,0-4,.63l-7.21,16a2.26,2.26,0,0,0,.76,2.85l0.2,0.14-4.11.66a2.51,2.51,0,0,0-2,1.93,2.41,2.41,0,0,0,.93,2.51l4.24,3.07a18.73,18.73,0,0,0,11.78,3.58,18.73,18.73,0,0,0,7.07,10.08l4.24,3.07A2.41,2.41,0,0,0,694.56,132.84Z" transform="translate(-0.01 -0.95)"/><path class="cls-24" d="M680.32,133.51a2.41,2.41,0,0,0,.87-3.29h0a7.25,7.25,0,0,1,.39-7.89L691,109.27a2.41,2.41,0,1,0-3.83-2.92l-0.07.09-9.45,13.05a12.49,12.49,0,0,0-.65,13.14A2.41,2.41,0,0,0,680.32,133.51Z" transform="translate(-0.01 -0.95)"/><path class="cls-24" d="M786.94,309.43a2.62,2.62,0,0,0,1.19-2.68l-0.71-4.56,0.22,0.16a2.75,2.75,0,0,0,3.44-.2l14.37-13a2.77,2.77,0,0,0-.68-4.39l-7.58-3.4,0.45-.23a2.67,2.67,0,0,0,1.45-2.24l0.83-19.25a2.67,2.67,0,0,0-3.59-2.62l-18.09,6.64a2.67,2.67,0,0,0-1.71,2.06l-0.09.5L770.89,260a2.67,2.67,0,0,0-4.39.68l-8.07,17.66a2.51,2.51,0,0,0,.83,3.16l0.22,0.16-4.56.71a2.78,2.78,0,0,0-2.17,2.13,2.67,2.67,0,0,0,1,2.79l4.68,3.42a20.76,20.76,0,0,0,13,4,20.76,20.76,0,0,0,7.86,11.15l4.68,3.42A2.67,2.67,0,0,0,786.94,309.43Z" transform="translate(-0.01 -0.95)"/><path class="cls-24" d="M771.16,310.08a2.67,2.67,0,0,0,1-3.64h0a8,8,0,0,1,.47-8.74l10.54-14.42a2.67,2.67,0,0,0-4.31-3.15L768.3,294.54a13.84,13.84,0,0,0-.78,14.56A2.67,2.67,0,0,0,771.16,310.08Z" transform="translate(-0.01 -0.95)"/><g class="cls-25"><path class="cls-24" d="M297.5,115.84a2.62,2.62,0,0,0-2.47-1.59h-4.62l0.19-.19a2.75,2.75,0,0,0,.33-3.43L280.24,94.42a2.77,2.77,0,0,0-4.45,0l-4.53,7-0.16-.49a2.67,2.67,0,0,0-2-1.77l-18.89-3.78a2.67,2.67,0,0,0-3.14,3.14l3.78,18.89a2.67,2.67,0,0,0,1.77,2l0.49,0.16-7,4.53a2.67,2.67,0,0,0,0,4.45l16.21,10.69a2.51,2.51,0,0,0,3.25-.33l0.19-.19v4.62a2.78,2.78,0,0,0,1.77,2.47,2.67,2.67,0,0,0,2.91-.58l4.1-4.1a20.76,20.76,0,0,0,6-12.27,20.76,20.76,0,0,0,12.27-6l4.1-4.1A2.67,2.67,0,0,0,297.5,115.84Z" transform="translate(-0.01 -0.95)"/><path class="cls-24" d="M295.71,131.53a2.67,2.67,0,0,0-3.45-1.53,8,8,0,0,1-8.56-1.81l-12.61-12.63a2.67,2.67,0,0,0-3.78,3.78L279.94,132a13.84,13.84,0,0,0,14.27,3A2.67,2.67,0,0,0,295.71,131.53Z" transform="translate(-0.01 -0.95)"/></g><path class="cls-26" d="M39.57,64.29a1.75,1.75,0,0,0-1.65-1.06H34.83L35,63.1a1.84,1.84,0,0,0,.22-2.26L28,50a1.86,1.86,0,0,0-3,0l-3,4.66-0.11-.32a1.79,1.79,0,0,0-1.34-1.19L7.93,50.58a1.79,1.79,0,0,0-2.1,2.1L8.36,65.32a1.79,1.79,0,0,0,1.19,1.34l0.32,0.11-4.66,3a1.79,1.79,0,0,0,0,3l10.88,7.17a1.68,1.68,0,0,0,2.18-.22l0.13-.13v3.09a1.86,1.86,0,0,0,1.18,1.65,1.79,1.79,0,0,0,1.95-.39l2.74-2.74a13.89,13.89,0,0,0,4-8.21,13.89,13.89,0,0,0,8.21-4l2.74-2.74A1.79,1.79,0,0,0,39.57,64.29Z" transform="translate(-0.01 -0.95)"/><path class="cls-27" d="M38.38,74.84a1.79,1.79,0,0,0-2.31-1,5.37,5.37,0,0,1-5.73-1.21l-8.45-8.45a1.79,1.79,0,0,0-2.53,2.53l8.45,8.45a9.26,9.26,0,0,0,9.55,2,1.79,1.79,0,0,0,1-2.32h0Z" transform="translate(-0.01 -0.95)"/><path class="cls-24" d="M933.83,65.74a1.68,1.68,0,0,0,.76-1.72l-0.5-2.91,0.14,0.1a1.76,1.76,0,0,0,2.2-.13l9.2-8.36a1.77,1.77,0,0,0-.44-2.81l-4.85-2.18,0.29-.15a1.71,1.71,0,0,0,.92-1.45l0.54-12.29a1.71,1.71,0,0,0-2.3-1.68l-11.58,4.25a1.71,1.71,0,0,0-1.1,1.32l0,0.31-3.55-4a1.71,1.71,0,0,0-2.81.44l-5.15,11.36a1.6,1.6,0,0,0,.53,2l0.14,0.1-2.92.45a1.78,1.78,0,0,0-1.39,1.36,1.71,1.71,0,0,0,.65,1.78l3,2.19a13.29,13.29,0,0,0,8.35,2.57,13.29,13.29,0,0,0,5,7.17l3,2.19A1.71,1.71,0,0,0,933.83,65.74Z" transform="translate(-0.01 -0.95)"/><path class="cls-24" d="M923.72,66.16a1.71,1.71,0,0,0,.63-2.33h0a5.14,5.14,0,0,1,.3-5.59L931.39,49a1.71,1.71,0,0,0-2.76-2l-6.74,9.23a8.86,8.86,0,0,0-.5,9.32A1.71,1.71,0,0,0,923.72,66.16Z" transform="translate(-0.01 -0.95)"/><path class="cls-24" d="M34.27,315.48a2.62,2.62,0,0,0,1.19-2.64l-0.71-4.56L35,308.44a2.75,2.75,0,0,0,3.44-.2l14.37-13a2.77,2.77,0,0,0-.68-4.39l-7.58-3.4,0.45-.23a2.67,2.67,0,0,0,1.44-2.26l0.83-19.25A2.67,2.67,0,0,0,43.65,263l-18.09,6.64a2.67,2.67,0,0,0-1.71,2.06l-0.09.5L18.21,266a2.67,2.67,0,0,0-4.39.68L5.75,284.39a2.51,2.51,0,0,0,.83,3.16l0.22,0.16-4.56.71a2.78,2.78,0,0,0-2.15,2.09,2.67,2.67,0,0,0,1,2.79l4.68,3.42a20.76,20.76,0,0,0,13,4,20.76,20.76,0,0,0,7.79,11.2l4.68,3.42A2.67,2.67,0,0,0,34.27,315.48Z" transform="translate(-0.01 -0.95)"/><path class="cls-24" d="M18.48,316.13a2.67,2.67,0,0,0,1-3.64h0a8,8,0,0,1,.47-8.74l10.54-14.42a2.67,2.67,0,0,0-4.31-3.15L15.62,300.59a13.84,13.84,0,0,0-.78,14.56A2.67,2.67,0,0,0,18.48,316.13Z" transform="translate(-0.01 -0.95)"/><g class="cls-28"><path class="cls-26" d="M159.94,182.49a1.35,1.35,0,0,0-1.24-.87l-2.39-.1,0.1-.09a1.42,1.42,0,0,0,.24-1.77l-5.19-8.6a1.44,1.44,0,0,0-2.3-.09l-2.49,3.51-0.07-.25a1.38,1.38,0,0,0-1-1l-9.69-2.35a1.38,1.38,0,0,0-1.69,1.56l1.56,9.85a1.38,1.38,0,0,0,.88,1.08l0.25,0.09-3.7,2.2a1.38,1.38,0,0,0-.09,2.3l8.16,5.86a1.3,1.3,0,0,0,1.69-.11l0.1-.09L143,196a1.44,1.44,0,0,0,.86,1.31,1.38,1.38,0,0,0,1.52-.24l2.21-2a10.75,10.75,0,0,0,3.35-6.22,10.74,10.74,0,0,0,6.47-2.84l2.21-2A1.38,1.38,0,0,0,159.94,182.49Z" transform="translate(-0.01 -0.95)"/><path class="cls-27" d="M158.69,190.57a1.38,1.38,0,0,0-1.75-.86,4.16,4.16,0,0,1-4.39-1.11l-6.27-6.76a1.38,1.38,0,0,0-2,1.88l6.27,6.79a7.16,7.16,0,0,0,7.32,1.86,1.38,1.38,0,0,0,.83-1.76v0Z" transform="translate(-0.01 -0.95)"/></g><path class="cls-24" d="M943.91,295.09a1.35,1.35,0,0,0,.88-1.24l0.11-2.39,0.09,0.1a1.42,1.42,0,0,0,1.76.26l8.64-5.13a1.44,1.44,0,0,0,.11-2.3L952,281.88l0.25-.07a1.38,1.38,0,0,0,1-1l2.42-9.67a1.38,1.38,0,0,0-1.55-1.7l-9.86,1.49a1.38,1.38,0,0,0-1.08.87l-0.1.25-2.17-3.71a1.38,1.38,0,0,0-2.3-.11l-5.92,8.12a1.3,1.3,0,0,0,.09,1.69l0.09,0.1-2.39-.11a1.44,1.44,0,0,0-1.32.85,1.38,1.38,0,0,0,.23,1.52l2,2.22a10.75,10.75,0,0,0,6.19,3.39,10.74,10.74,0,0,0,2.79,6.49l2,2.22A1.38,1.38,0,0,0,943.91,295.09Z" transform="translate(-0.01 -0.95)"/><path class="cls-24" d="M935.84,293.78a1.38,1.38,0,0,0,.88-1.74h0a4.16,4.16,0,0,1,1.15-4.38l6.84-6.22a1.38,1.38,0,1,0-1.86-2L936,285.65a7.16,7.16,0,0,0-1.91,7.3A1.38,1.38,0,0,0,935.84,293.78Z" transform="translate(-0.01 -0.95)"/><path class="cls-29" d="M156.26,288.84c-6.12,3.26-5.07,18.45,0,28.55,4.33,8.61,12.48,15.32,14.63,13.92,3.42-2.22-8.09-25.08-6.78-25.69s11,23,15.7,21.77c3.15-.83,4.38-13.08-0.36-22.84C174.44,294.2,162.25,285.65,156.26,288.84Z" transform="translate(-0.01 -0.95)"/><path class="cls-29" d="M116.25,85.76c6.49,2.44,17.2-8.39,21.43-18.86,3.61-8.94,3.25-19.49.78-20.18-3.93-1.1-13.48,22.65-14.81,22.07s10-23.48,6-26.17C127,40.81,116.94,48,112.74,58,108.26,68.57,109.9,83.37,116.25,85.76Z" transform="translate(-0.01 -0.95)"/><path class="cls-29" d="M879.48,174.77c-6.39-2.69-17.51,7.71-22.14,18-4,8.79-4,19.35-1.56,20.13,3.88,1.25,14.34-22.11,15.65-21.48s-10.87,23.08-7,25.92c2.63,1.92,12.91-4.86,17.49-14.69C886.8,192.26,885.73,177.4,879.48,174.77Z" transform="translate(-0.01 -0.95)"/><path class="cls-29" d="M38.5,198.29c5.43,1.78,13.87-7.52,17-16.3,2.65-7.49,2-16.17-.08-16.65C52.15,164.58,45.13,184.47,44,184s7.37-19.7,4-21.77c-2.29-1.4-10.28,4.87-13.38,13.25C31.31,184.42,33.19,196.55,38.5,198.29Z" transform="translate(-0.01 -0.95)"/><path class="cls-29" d="M668.92,346.11c3.24,0.83,7.81-4.93,9.29-10.18,1.26-4.48.53-9.52-.69-9.72-1.94-.32-5.27,11.57-5.94,11.37s3.51-11.79,1.51-12.87c-1.39-.73-5.82,3.24-7.3,8.26C664.18,338.28,665.75,345.3,668.92,346.11Z" transform="translate(-0.01 -0.95)"/><path class="cls-29" d="M797.84,79.33c6.88-.86,11.33-15.42,10.2-26.67-1-9.59-6.19-18.76-8.7-18.23-4,.86-1.4,26.32-2.84,26.42s-2.1-25.43-6.89-25.94c-3.24-.35-8.76,10.66-7.82,21.46C782.77,67.84,791.09,80.17,797.84,79.33Z" transform="translate(-0.01 -0.95)"/></svg>