<svg id="Capa_3" data-name="Capa 3" xmlns="http://www.w3.org/2000/svg" xmlns:xlink="http://www.w3.org/1999/xlink" viewBox="0 0 952.68 363"><defs><style>.cls-1{fill:none;}.cls-2{fill:#6a9679;}.cls-3{fill:#8ebc7d;}.cls-4{fill:#fff;}.cls-5{fill:#7ba06b;}.cls-6{fill:#a7cf90;}.cls-7{fill:#e0dcda;}.cls-8{fill:#252a31;}.cls-9{fill:#7b5222;}.cls-10{fill:#de3d45;}.cls-11{fill:#ebae29;}.cls-12{fill:#f2cf3b;}.cls-13{fill:#a26c2a;}.cls-14{fill:#293743;}.cls-15{fill:#bc7f28;}.cls-16{fill:#ebae9a;}.cls-17{fill:#eebea8;}.cls-18{fill:#2e2742;}.cls-19{fill:#423469;}.cls-20{fill:#eaac8a;}.cls-21{fill:#a53136;}.cls-22{fill:#c8883a;}.cls-23{fill:#d49a4f;}.cls-24{clip-path:url(#clip-path);}.cls-25{fill:#435aa5;}.cls-26{fill:#5469af;}.cls-27{fill:#eaac95;}.cls-28{fill:#9a662a;}.cls-29{fill:#efc26b;}.cls-30{fill:#b5cbeb;}.cls-31{fill:#9fb8e1;}.cls-32{fill:#93c0a3;}.cls-33{fill:#d8e3f5;}.cls-34{fill:#f5da86;}.cls-35{fill:#e89f8a;}.cls-36{fill:#e7eefa;}</style><clipPath id="clip-path" transform="translate(-3.32 -1)"><path class="cls-1" d="M587.36,159.68c0.19-8.49-4.51-13.56-14-14.88a16.79,16.79,0,0,0-15,5.94l-0.53.63c-3.06,3.61-4.65,9.85-4,14.52l4.95,11-2.65,9.64s9.62,8,13.36,2l0.69-7.5s5,2.94,9.32,1.4C581.76,181.56,586.93,177,587.36,159.68Z"/></clipPath></defs><title>banner3</title><path class="cls-2" d="M388.36,305.3c0.5-13.66,1.31-27.3,2.22-40.94,1.1-16.57,2.42-33.39-2.47-49.5-1.77-5.9-6.61-16.91-14.69-12.26-8.55,4.91-4.47,15.86-1.64,22.82a92.51,92.51,0,0,1,4.52,14.14c0.88,4,2.72,9.67,1.63,13.71-2.08,7.66-12.74-3.85-15.91,4.42-3.12,8.07,7.22,12.81,11.63,17.57,5.75,6.19,9,14.37,10.46,22.61a67.36,67.36,0,0,1,.88,7.32" transform="translate(-3.32 -1)"/><path class="cls-3" d="M419.36,229.09c1.53-2.65,1.51-6.7-1.14-8.3-4.7-2.85-11.14,4.65-15.67,1.56-2.28-1.56-2.38-4.82-2.25-7.57l0.88-17.68c0.28-5.83-.25-13.07-5.59-15.43s-11.28,2.32-14,7.5c-6.79,13-2.65,28.92,2.39,42.73s11.21,57.68,7.89,72.41H395l1.21-.17c0-16.18,2.07-28.1,12.37-37.05,2.65-2.31,5.67-4.3,7.71-7.15s2.88-7,.8-9.84c-1.57-2.15-4.47-3.13-5.74-5.47-1.47-2.72-.1-6.19,1.88-8.53S417.83,231.78,419.36,229.09Z" transform="translate(-3.32 -1)"/><rect class="cls-4" x="373.63" y="297.08" width="26.6" height="44.63"/><path class="cls-2" d="M725.11,226.25c-1.42-6.55-2.85-13.13-3.09-19.83a46,46,0,0,1,.49-8.73,4.36,4.36,0,0,1,8.43-.65,45.39,45.39,0,0,1,2.4,12.7c0.1,2.3,0,4.69,1.56,6.62a3.68,3.68,0,0,0,2.48,1.44c2.48,0.24,3.77-2.09,4.55-4.15,2.33-6.19,3.39-12.79,5.56-19a41,41,0,0,1,2.65-6c2.59-4.79,10-1.84,8.52,3.41-0.35,1.3-.76,2.58-1.19,3.84-1.86,5.43-4.18,10.87-4.13,16.61,0,1.21.19,2.57,1.77,3a3.16,3.16,0,0,0,3-1,100.82,100.82,0,0,1,26.37-20.25,3.54,3.54,0,0,1,3.54,0c2.06,1.27,1.26,3.9.16,5.71-7.07,11.61-31.57,25.23-29,30.25s14.14-2.09,18.65-2.42c2.57-.19,5.68.12,6.73,2.65a4.42,4.42,0,0,1-.2,3.6c-1,2.05-2.88,3.28-4.74,4.42L747.24,259c-3.54,2.25-8.38,6.72-12.6,3.4-3.78-3-3.92-10.61-4.86-14.88Z" transform="translate(-3.32 -1)"/><path class="cls-5" d="M727.47,218.78a3,3,0,0,0-1.68.14c-1.94.79-2,2.87-2,4.67L724,240a1.86,1.86,0,0,1-3.1,1.42l-16.57-14.67c-2.34-2.08-4.88-4.26-8.24-4.07a4.5,4.5,0,0,0-3.9,2.49c-1.13,2.49.62,4.78,2.24,6.65l15.26,17.5a5.38,5.38,0,0,1,1.38,3.21c0.17,3.14-2.56,4-4.69,3.44-1.43-.35-23.82-8.78-26.59-3-1.27,2.65,1.13,4.76,3.31,6.09a91.18,91.18,0,0,0,45.47,13.32c4.51,0.1,13.06-1.61,9.25-26.66-1.25-8.18-1.69-16.79-6.35-23.67C730.51,220.56,729.31,219.14,727.47,218.78Z" transform="translate(-3.32 -1)"/><path class="cls-3" d="M737.19,285.64c0.19,1.11.52,2.42,1.59,2.81s2-.28,2.88-0.88c7.13-5.3,20.21-17.93,30.25-28a3.35,3.35,0,0,0-4-5.3c-2.93,1.5-5.44,2.87-6.74,3.75a2.4,2.4,0,0,1-3.37-3.27c4.42-6.72,9.32-14.14,10.39-15.46,6.67-8.44,2.28-16.52-4.11-8-2.32,3.08-4.6,6.35-6.57,9.27a2.33,2.33,0,0,1-4.24-1.64c0.68-4.51,1.35-9.27,1.55-11.79,0.15-1.89.29-3.85-.72-5.59a3.61,3.61,0,0,0-2.11-1.69c-2.78-.75-4.68,2.2-5.6,4.73-3.13,8.54-3.14,29.27-3.62,30.37a2.28,2.28,0,0,1-2.91,1.34c-3.27-1.71-.07-7.85-4.32-9.42-4.61-1.7-4.14,3.92-3.73,6.74C733.39,264.28,735.56,274.93,737.19,285.64Z" transform="translate(-3.32 -1)"/><path class="cls-3" d="M733.26,308.1h-0.11a1.33,1.33,0,0,1-1.22-1.42c1.49-18.85-1.71-32.49-4.66-40.66-3.19-8.79-6.79-13.19-6.82-13.26a1.33,1.33,0,1,1,2-1.7c0.62,0.74,15,18.56,12.09,55.75A1.33,1.33,0,0,1,733.26,308.1Z" transform="translate(-3.32 -1)"/><path class="cls-6" d="M738.85,310.6a1.26,1.26,0,0,1-1.33-1.2h0c-0.42-10.26-.34-35.45,9.52-48l0.13-.16a1.33,1.33,0,0,1,1.84-.33,1.32,1.32,0,0,1,.36,1.82l-0.25.34c-3.1,4-10.2,16.32-9,46.24A1.25,1.25,0,0,1,739,310.6h-0.13Z" transform="translate(-3.32 -1)"/><polygon class="cls-7" points="747.81 342.47 721.22 342.47 715.03 297.84 753.12 297.84 747.81 342.47"/><path class="cls-8" d="M461.18,333.32l0.22,6.83a4.69,4.69,0,0,1-4.53,4.84l-18.07.5a1.94,1.94,0,0,1-1.91-2.57h0a1.94,1.94,0,0,1,1.71-1.32l3.93-.07a10.36,10.36,0,0,0,9.68-8.64h0Z" transform="translate(-3.32 -1)"/><path class="cls-9" d="M461.65,315.28c0.19-8.12.34-17.43,0.34-24.38,0-.63,1.25-35.35,1.25-35.35l-19.68,1.56,1.39,29.38a63.59,63.59,0,0,0,.8,7.45l3.54,21.3h12.37v0Z" transform="translate(-3.32 -1)"/><path class="cls-4" d="M449.05,313.72l3.19,19.16,9,0.42s0.27-9,.49-19.59H449.05Z" transform="translate(-3.32 -1)"/><path class="cls-10" d="M461.53,320q0-1.52.07-3.13H449.54l0.52,3.13h11.47Z" transform="translate(-3.32 -1)"/><path class="cls-10" d="M461.42,325.29c0-.8,0-1.62.06-2.5h-11l0.42,2.5h10.48Z" transform="translate(-3.32 -1)"/><path class="cls-8" d="M474.68,333.32l-0.22,6.83A4.69,4.69,0,0,0,479,345l18.07,0.5a1.94,1.94,0,0,0,1.91-2.57h0a1.94,1.94,0,0,0-1.71-1.32l-3.93-.07a10.36,10.36,0,0,1-9.68-8.64h0Z" transform="translate(-3.32 -1)"/><path class="cls-9" d="M474.21,315.28c-0.19-8.12-.34-17.43-0.34-24.38,0-.63-1.25-35.35-1.25-35.35l19.68,1.56-1.39,29.38a63.56,63.56,0,0,1-.8,7.45l-3.54,21.3H474.21v0Z" transform="translate(-3.32 -1)"/><path class="cls-4" d="M486.84,313.72l-3.19,19.16-9,.43s-0.27-9-.49-19.59h12.65Z" transform="translate(-3.32 -1)"/><path class="cls-10" d="M474.32,320q0-1.52-.07-3.13h12.07L485.8,320H474.32Z" transform="translate(-3.32 -1)"/><path class="cls-10" d="M474.45,325.29c0-.8,0-1.62-0.06-2.5h10.9l-0.42,2.5H474.45Z" transform="translate(-3.32 -1)"/><circle class="cls-8" cx="464.38" cy="87.41" r="7.15"/><path class="cls-11" d="M443,260.6h21.17c0.61-9.22,2.26-19.63,4.14-31.67,1-6.24,2.28-12.53,2.44-18.36l-28.41-8.35s-0.55,15.07-.38,19.87C442.23,230.13,442.55,245.83,443,260.6Z" transform="translate(-3.32 -1)"/><path class="cls-12" d="M471.69,260.6h21.42c0.11-14.65.06-30.05,0.15-38a91.87,91.87,0,0,1,1-12.95l-26.52-10c-4.42,14.27-2,24.24-.88,30.55C469,241.66,470.81,251.68,471.69,260.6Z" transform="translate(-3.32 -1)"/><path class="cls-13" d="M485.29,137.36c-10.78-.33-9.94-10.13-9.94-10.13l-7.21-.22-7.21.22s1,9.17-9.81,9.49c-3.54.11-10.54,11.49-10.54,11.49H490S486.87,137.42,485.29,137.36Z" transform="translate(-3.32 -1)"/><path class="cls-9" d="M460.54,130.09a10.15,10.15,0,0,1-1.07,2.71c3.38,7.33,12.74,8.26,16.93-.5a7.56,7.56,0,0,1-.72-2.22H460.54Z" transform="translate(-3.32 -1)"/><path class="cls-13" d="M451.35,104.5c1-10.61,8.75-16.7,16.39-16.57s15.24,6.45,16,17.08a55.73,55.73,0,0,1-1.9,16.79,14,14,0,0,1-3.17,6c-3.46,3.77-8,6.79-11.49,6.74s-8-3.21-11.3-7.07a14.14,14.14,0,0,1-3-6.13C452,117.47,450.76,110.72,451.35,104.5Z" transform="translate(-3.32 -1)"/><circle class="cls-14" cx="455.56" cy="112.18" r="1.26"/><path class="cls-8" d="M483.74,105.64c-1,7-2.57,13.5-8.37,17.24a10.26,10.26,0,0,0-8.07-3.54,9.79,9.79,0,0,0-7.8,3.54c-3.58-2.39-5.57-5.83-6.56-10.17a4.8,4.8,0,0,1,.11-2.74,18,18,0,0,1-1.77-5.14,57.49,57.49,0,0,0,1.52,16.54,14.14,14.14,0,0,0,3,6.13c3.36,3.89,7.78,7.07,11.3,7.07s8-3,11.49-6.74a14,14,0,0,0,3.17-6A58.07,58.07,0,0,0,483.74,105.64Z" transform="translate(-3.32 -1)"/><circle class="cls-14" cx="472.79" cy="112.18" r="1.26"/><path class="cls-4" d="M463.35,123.58a0.81,0.81,0,0,0-.7,1.25,5.88,5.88,0,0,0,9.63.08,0.82,0.82,0,0,0-.65-1.33h-8.28Z" transform="translate(-3.32 -1)"/><ellipse class="cls-15" cx="455.69" cy="117.48" rx="2.66" ry="2.06"/><ellipse class="cls-15" cx="472.65" cy="117.48" rx="2.66" ry="2.06"/><path class="cls-8" d="M484.45,101.34c-0.73-7.54-5.9-14.71-17-14.71s-16.22,7.17-17,14.71,0.88,12.29,1.43,12.06c0.88-.38,1.93-2.13,1.93-5.54,0-6.51,3.36-8.79,5.77-8.27s3.92,2.21,7.82,2.21S473,100,475.3,99.58c2.41-.51,5.77,1.77,5.77,8.27,0,4.07,1,5.16,1.93,5.54C483.57,113.62,485.18,108.88,484.45,101.34Z" transform="translate(-3.32 -1)"/><path class="cls-4" d="M494.28,166.72l12-3.72c-2.78-10.08-4.48-18.17-9-22.64s-15.91-3.75-15.91-3.75-3.26,8.33-14.75,8.36H467c-11.3,0-13.59-8.37-13.59-8.37s-10.75-.72-15.3,3.75-6.19,12.37-9,22.41l12.08,4-0.5,56.44s7.34,3,25.9,3.3v0.17h0v-0.18c18.56-.27,27.22-3.3,27.22-3.3Z" transform="translate(-3.32 -1)"/><rect class="cls-8" x="430.13" y="219.49" width="28.02" height="6.79"/><rect class="cls-10" x="458.36" y="216.78" width="4.3" height="12.54"/><rect class="cls-10" x="425.92" y="216.77" width="4.3" height="12.54"/><rect class="cls-8" x="453.14" y="212.72" width="7.08" height="20.65"/><rect class="cls-8" x="428.36" y="212.71" width="7.08" height="20.65"/><path class="cls-13" d="M427.93,188.11l-0.09-1.25v-2c0-1.22,0-2.4.08-3.54,0.2-4.42.6-8.41,1-11.84,0.21-1.71.39-3.26,0.6-4.64l0.31-2A93.54,93.54,0,0,0,445.16,167c-0.28,1.44-.6,3.08-1,4.9l-1.1,5.24c-0.41,1.85-.8,3.8-1.18,5.75-0.2,1-.38,2-0.55,2.89l-0.25,1.33-0.07.43v0.07c-0.05-.65,0-0.17,0-0.3v0.57h0a0.1,0.1,0,0,1,0,0,0.19,0.19,0,0,0,0,.16l0.09,0.64c0.08,0.47.16,0.95,0.27,1.46l0.65,3.12,1.41,6.45,1.46,6.32c0.49,2.05.95,4,1.46,5.9s1,3.63,1.46,5.25c0.25,0.8.44,1.6,0.71,2.32a12.07,12.07,0,0,0,1,2,13.9,13.9,0,0,1,1.58,3.18,6.19,6.19,0,0,1,.25,3.21v0a3.68,3.68,0,0,1-5.55,2.11,6.19,6.19,0,0,1-2-2.54,13.73,13.73,0,0,1-.95-3.46,12.43,12.43,0,0,0-.56-2.13c-0.27-.72-0.65-1.45-1-2.22-0.71-1.55-1.48-3.22-2.33-5l-2.7-5.52-2.87-5.95c-1-2-2-4.13-2.84-6.29-0.45-1.09-.88-2.17-1.3-3.33-0.2-.57-0.42-1.18-0.61-1.77,0,0-.45-1.37-0.51-1.64l-0.23-.76Z" transform="translate(-3.32 -1)"/><rect class="cls-8" x="470.74" y="219.5" width="28.02" height="6.79"/><rect class="cls-10" x="466.23" y="216.77" width="4.3" height="12.54"/><rect class="cls-10" x="498.67" y="216.78" width="4.3" height="12.54"/><rect class="cls-8" x="468.67" y="212.71" width="7.08" height="20.65"/><rect class="cls-8" x="493.46" y="212.72" width="7.08" height="20.65"/><path class="cls-13" d="M507.61,188.11l0.07-1.21v-2c0-1.22,0-2.4-.08-3.54-0.2-4.42-.6-8.41-1-11.84-0.21-1.71-.39-3.26-0.6-4.64l-0.31-2a93.54,93.54,0,0,1-15.34,4.22c0.28,1.44.6,3.08,1,4.9l1.1,5.24c0.41,1.85.8,3.8,1.18,5.75,0.2,1,.38,2,0.55,2.89l0.19,1.26,0.07,0.43v0.07c0.05-.65,0-0.17,0-0.3v0.57h0a0.1,0.1,0,0,0,0,0,0.19,0.19,0,0,1,0,.16l-0.09.64c-0.08.47-.16,0.95-0.27,1.46l-0.65,3.12L492,199.73l-1.43,6.36c-0.49,2.05-.95,4-1.46,5.9s-1,3.63-1.46,5.25c-0.25.8-.44,1.6-0.71,2.32a12.06,12.06,0,0,1-1,2,13.91,13.91,0,0,0-1.58,3.18,6.19,6.19,0,0,0-.25,3.21v0a3.68,3.68,0,0,0,5.55,2.11,6.19,6.19,0,0,0,2-2.57,13.73,13.73,0,0,0,.95-3.46,12.45,12.45,0,0,1,.56-2.13c0.27-.72.65-1.45,1-2.22,0.71-1.55,1.48-3.22,2.33-5l2.7-5.52,2.87-5.95c1-2,2-4.13,2.84-6.29,0.45-1.09.88-2.17,1.3-3.33,0.2-.57.42-1.18,0.61-1.77,0,0,.45-1.37.51-1.64l0.23-.76Z" transform="translate(-3.32 -1)"/><path class="cls-16" d="M281.57,234.48l0.19,1.18c0.11,0.76.3,1.87,0.49,3.3,0.38,2.85,1,6.89,1.51,11.77s1.16,10.61,1.68,16.7c0.26,3.06.52,6.19,0.72,9.45s0.42,6.5.57,9.78l0.19,4.92,0.08,4.9c0,3.24-.05,6.44-0.13,9.55-0.19,6.19-.56,12-1,17q-0.19,1.88-.42,3.61c-0.16,1.15-.33,2.25-0.4,3.31a18,18,0,0,1-1,5.8,8.35,8.35,0,0,1-1.37,2.33,8.57,8.57,0,0,1-1,.94,8,8,0,0,1-1.11.68,4.58,4.58,0,0,1-1.89.41,5.62,5.62,0,0,1-.65,0,2.34,2.34,0,0,1-1.38-3.9l1.15-1.26a0.46,0.46,0,0,0-.34-0.32c-0.24-.07-0.09-0.4.29-1.36a37,37,0,0,0,1.46-4.15,13.89,13.89,0,0,0,.34-3c0-1.07,0-2.19,0-3.38a145.05,145.05,0,0,0-1.36-16.31c-0.37-3-.82-6.08-1.28-9.22l-1.34-9.53-1.34-9.54-1.37-9.24-2.5-16.37-2.43-15.91h0A6.91,6.91,0,0,1,281.57,234.48Z" transform="translate(-3.32 -1)"/><path class="cls-17" d="M279.3,327.57l0.83,8a5.13,5.13,0,0,1-4.94,5.3h0l-17,.56a2.13,2.13,0,0,1-2.09-2.8h0a2.13,2.13,0,0,1,1.86-1.44l1.55-.08c5.3-.27,10.61-4.15,11.49-9.4Z" transform="translate(-3.32 -1)"/><path class="cls-17" d="M443,327.3l-8.13-9.93-4,8.22c1.06,2.8,2,9.52-2.24,11.77a10.71,10.71,0,0,1-1.33.11h-1.48a2,2,0,0,0,.07,4.07H432l9.45-7.54A4.9,4.9,0,0,0,443,327.3Z" transform="translate(-3.32 -1)"/><path class="cls-18" d="M322.84,248.09c2.41,11.31,17.89,30.33,17.89,30.33s-55.9-.11-55.79,1.4c0.95,12.67-4.21,47.83-4.21,47.83l-13.12.71-2.4-52.75a13.19,13.19,0,0,1,9.42-13.26Z" transform="translate(-3.32 -1)"/><path class="cls-19" d="M377.6,286.85l56.88,29.81s0,8.51-2.65,12.32C425,329.16,367,305.3,367,305.3s-22.2-10.32-47.48-32.83a57,57,0,0,1-11.69-14.78l27.88-15.4s10.61,11.49,13.39,15.21S377.6,286.85,377.6,286.85Z" transform="translate(-3.32 -1)"/><path class="cls-17" d="M288.59,221.63l-2.7-3.16c-1.77-2-4.3-4.91-7.4-8.28s-6.81-7.23-10.92-11a68.29,68.29,0,0,0-6.42-5.19,24.52,24.52,0,0,0-3.19-1.91,10.36,10.36,0,0,0-1.35-.56h-0.06l-0.2-.05-0.14,0-0.28-.09-0.57-.18-1.13-.35c-3.46-1.18-6.32-2.4-9.25-3.69s-5.68-2.65-8.38-3.9l-7.73-3.75c-2.46-1.18-4.77-2.32-6.93-3.31a50.43,50.43,0,0,0-5.94-2.58,40.37,40.37,0,0,1-4.77-1.51,10.38,10.38,0,0,1-3.7-2.42,2.88,2.88,0,0,1,2-4.77h0a10.41,10.41,0,0,1,4.3.88,42.49,42.49,0,0,1,4.42,2.3,17.85,17.85,0,0,0,2.81,1.19l3.2,1.11c2.23,0.79,4.67,1.56,7.25,2.4l8.14,2.47c2.82,0.84,5.75,1.7,8.7,2.51s6,1.68,8.6,2.32l2.2,0.45a20.74,20.74,0,0,1,3.13.88,35.27,35.27,0,0,1,5.1,2.44,68.06,68.06,0,0,1,8.23,5.64c2.48,1.94,4.75,3.89,6.83,5.79s4,3.73,5.73,5.45c3.46,3.43,6.19,6.45,8.06,8.56,1,1.05,1.67,1.91,2.17,2.5l0.78,0.93a6.89,6.89,0,0,1-10.52,8.91Z" transform="translate(-3.32 -1)"/><path class="cls-4" d="M314,269.06s-10.47-8.11-18.56-14.72c-6.07-4.93-8.62-.88-13.76-3.86-4.14-2.37-5.15-7-5.37-7.24l-11-.35s-0.19-9.44,4.54-17.31l3.66-8c4.15-5.15,5.72-7.13,10.61-9.47,2.6-1.25,6.9-6.19,6.9-6.19l10.79,12.59a154.22,154.22,0,0,0,18.25,18.09c3.77,3.11,14.35,7.68,18.3,9.72C336,251.78,326.19,262.2,314,269.06Z" transform="translate(-3.32 -1)"/><path class="cls-10" d="M228.49,193c-0.55,3.61.16,7.27,0.76,10.87a196.72,196.72,0,0,1,2.43,42.73c9.08-4.65,14.22-14.88,15.42-25,1.09-9.14-1-17.79-2.05-26.79-0.65-5.52-1.77-11.42-8.9-10.66C231.78,184.67,229.1,189,228.49,193Z" transform="translate(-3.32 -1)"/><path class="cls-17" d="M256.77,192c-8.84-5.66-18.25-3.33-22.79,2.65s-4.23,15.73,3.54,22.75c4.57,4.11,10.61,7.12,14.14,8.71a13.79,13.79,0,0,0,6.6,1.19c5-.39,10.08-2,12.17-4.82s2.32-8.1,1.34-13.06a13.92,13.92,0,0,0-2.92-6.06A54.33,54.33,0,0,0,256.77,192Z" transform="translate(-3.32 -1)"/><circle class="cls-14" cx="259.19" cy="202.79" r="1.24" transform="translate(-63.52 281.13) rotate(-51.99)"/><circle class="cls-14" cx="248.76" cy="216.17" r="1.24" transform="translate(-78.07 278.05) rotate(-51.99)"/><path class="cls-4" d="M264,212.16a0.8,0.8,0,0,1,1.39.21,5.79,5.79,0,0,1-5.77,7.51,0.81,0.81,0,0,1-.64-1.31Z" transform="translate(-3.32 -1)"/><ellipse class="cls-20" cx="263.23" cy="206.12" rx="2.62" ry="2.02" transform="translate(-64.59 285.59) rotate(-51.99)"/><ellipse class="cls-20" cx="252.94" cy="219.27" rx="2.62" ry="2.02" transform="translate(-78.91 282.54) rotate(-51.99)"/><path class="cls-10" d="M264.42,194.81c-0.46-2.17-2.08-3.9-3.77-5.3a29.49,29.49,0,0,0-8.5-4.92,14.88,14.88,0,0,0-7.07-1.1,7.56,7.56,0,0,0-5.82,3.8,5,5,0,0,0-.27.7,7.85,7.85,0,0,0-4.68-.74,12,12,0,0,0-8.41,5.67,19.52,19.52,0,0,0-2.7,10,29.17,29.17,0,0,0,12.37,24.18c1.42,1,3.19,1.86,4.81,1.28,2.18-.79,2.65-3.68,2.32-6-0.79-4.85-3.87-9.63-2.46-14.33,0.54-1.77,1.68-3.32,2.32-5.06a16.51,16.51,0,0,0,.56-9.09,8,8,0,0,0,3.42,1.85c3.38,0.82,7.19-.52,10.28,1.06,1.86,0.95,3.54,2.93,5.57,2.4C264.06,198.81,264.79,196.58,264.42,194.81Z" transform="translate(-3.32 -1)"/><path class="cls-17" d="M264.67,223.69l4,4s5.68-1.32,7.33-4.11-0.8-8.1-.8-8.1l-4.55-2.12Z" transform="translate(-3.32 -1)"/><path class="cls-21" d="M578.17,250.2l9.89,5.82,31.57,13a11.42,11.42,0,0,1,4.91,17.27,34,34,0,0,0-2.78,4.19c-1,2.25-30.54,42-30.54,42l-9.37.49s15.67-29.31,17.44-33.92,3.65-9.17,5.66-13.66c0.27-.6.55-1.19,0.83-1.77-9.1-3.94-11.87-3.8-24.2-8-19.44-6.59-40.83-5.09-31.21-36Z" transform="translate(-3.32 -1)"/><polygon class="cls-4" points="581.51 330.41 581.51 330.41 581.51 330.41 581.51 330.41"/><path class="cls-8" d="M604.43,342.68a2,2,0,0,0-1.77-1.33l-1.44-.06a10.61,10.61,0,0,1-9.94-8.7l-9.12.53-0.15,7a4.74,4.74,0,0,0,.07.88,1.3,1.3,0,0,0,.07.31,4.73,4.73,0,0,0,.15.51,1.1,1.1,0,0,0,.14.35,3.4,3.4,0,0,0,.2.4c0.07,0.12.13,0.4,0.21,0.5s0,0.25.05,0.25h0c0.84,1.77,2.19,1.77,3.75,1.82l15.82,0.27A2,2,0,0,0,604.43,342.68Z" transform="translate(-3.32 -1)"/><path class="cls-14" d="M595.05,342.68a2,2,0,0,0-1.77-1.33l-1.44-.06a10.61,10.61,0,0,1-9.94-8.7l-9.12.53-0.15,7a4.72,4.72,0,0,0,.07.88,1.3,1.3,0,0,0,.07.31,4.73,4.73,0,0,0,.15.51,1.1,1.1,0,0,0,.14.35,3.4,3.4,0,0,0,.2.4c0.07,0.12.13,0.4,0.21,0.5s0,0.25.05,0.25h0c0.84,1.77,2.19,1.77,3.75,1.82l15.82,0.27A2,2,0,0,0,595.05,342.68Z" transform="translate(-3.32 -1)"/><path class="cls-10" d="M578.76,243.43l3.64,13.26,36.12,15.37a9,9,0,0,1,3.84,11.19c-0.94,2.29-38.61,51.41-38.61,51.41l-11.25-.31s1.87-22.81,28.14-45.78a5.17,5.17,0,0,0,.88-1.77s-12.18-2.32-25-4.66c-25.63-4.68-40.94-15.63-25.63-37.81Z" transform="translate(-3.32 -1)"/><path class="cls-22" d="M619.79,209.74v-0.29a3,3,0,0,0-3.3-2.76h-0.13l-1.3.18a0.88,0.88,0,0,0-.23.08,3.12,3.12,0,0,0-.57.34,4.42,4.42,0,0,0-1.41,1.77,12.84,12.84,0,0,1-1.47,3.18,42.5,42.5,0,0,1-3,3.35,37.29,37.29,0,0,1-3.9,3.43A23.17,23.17,0,0,1,600,221.8a9.87,9.87,0,0,1-2.06.71,2,2,0,0,1-1.55-.32,11.24,11.24,0,0,1-1.56-1.33,38.32,38.32,0,0,1-3.62-4.36c-1.18-1.63-2.29-3.36-3.35-5.06-2.11-3.42-4-6.8-5.52-9.72s-2.79-5.39-3.66-7.07l-0.34-.7a67.06,67.06,0,0,1-10.22,11.49c0.56,1,1.17,2.08,1.83,3.23,1.77,3.08,4,6.61,6.66,10.32q2,2.79,4.42,5.64a42.62,42.62,0,0,0,5.67,5.62,22.17,22.17,0,0,0,4,2.65,14.4,14.4,0,0,0,2.8,1,12.23,12.23,0,0,0,1.72.3l0.95,0.05h0.65a13,13,0,0,0,3-.55,13.62,13.62,0,0,0,2.37-1,18.27,18.27,0,0,0,3.63-2.47,32.55,32.55,0,0,0,4.81-5.37c1.29-1.77,2.32-3.46,3.27-5s1.77-3,2.47-4.24,1.84-2,2.45-2.88a4.68,4.68,0,0,0,1-2.24A3.61,3.61,0,0,0,619.79,209.74Z" transform="translate(-3.32 -1)"/><path class="cls-4" d="M575.63,188.89c-1.12-1.77-3-2.78-6.19-2.83l-12.88.08c-6.19,1.28-8.56,1.77-12.66,4.85-4.42,3.32-4.42,8.76-1.9,19.51l5.15,22L544.42,255s13.35,0.82,20-1.46,16.43-8.17,16.43-8.17l-1-6.68a96,96,0,0,1-.53-24.54,10.77,10.77,0,0,0-.35-5,43.57,43.57,0,0,1-4-10.35,19.53,19.53,0,0,0,3.33-4.9A36.24,36.24,0,0,0,575.63,188.89Z" transform="translate(-3.32 -1)"/><path class="cls-23" d="M587.36,159.68c0.19-8.49-4.51-13.56-14-14.88a16.79,16.79,0,0,0-15,5.94l-0.53.63c-3.06,3.61-4.65,9.85-4,14.52l4.95,11-2.65,9.64s9.62,8,13.36,2l0.69-7.5s5,2.94,9.32,1.4C581.76,181.56,586.93,177,587.36,159.68Z" transform="translate(-3.32 -1)"/><g class="cls-24"><ellipse class="cls-20" cx="586.55" cy="169.13" rx="2.47" ry="1.91" transform="translate(-11.04 28.5) rotate(-2.86)"/></g><path class="cls-4" d="M576.25,173.06a0.65,0.65,0,0,0-.46,1,4.65,4.65,0,0,0,7.58-.62,0.65,0.65,0,0,0-.6-1Z" transform="translate(-3.32 -1)"/><ellipse class="cls-20" cx="573.71" cy="168.64" rx="1.91" ry="2.47" transform="translate(376.09 733.18) rotate(-87.42)"/><circle class="cls-14" cx="573.93" cy="164.12" r="1.17" transform="translate(323.17 706.35) rotate(-81.47)"/><path class="cls-23" d="M613.45,211.17a3.16,3.16,0,0,0-1.25-.21H612a4.17,4.17,0,0,0-1,.22,8.52,8.52,0,0,0-2.44,1.26,38.21,38.21,0,0,0-3.18,2.85,13.13,13.13,0,0,1-2.16,1.47l-2.5,1.46c-1.77,1-3.68,2-5.74,3.07s-4.24,2.06-6.51,3-4.6,1.92-6.91,2.65a32.6,32.6,0,0,1-3.34,1,13.75,13.75,0,0,1-1.46.27,1.94,1.94,0,0,1-1.51-.46,14,14,0,0,1-2-1.84,47.9,47.9,0,0,1-4.14-5.37c-2.61-3.87-4.84-7.85-6.72-11.28q-1-1.77-1.77-3.35a71.35,71.35,0,0,1-11.11,9.24l0.67,1.12c1.1,1.81,2.32,3.77,3.7,5.81s2.9,4.17,4.64,6.33a52.57,52.57,0,0,0,6.08,6.54,26,26,0,0,0,4.36,3.16,15.4,15.4,0,0,0,3.12,1.34,12.12,12.12,0,0,0,2,.42c0.35,0.05.75,0.06,1.13,0.08h0.77l1-.09,0.78-.12c0.49-.1,1-0.2,1.41-0.32a25.06,25.06,0,0,0,2.46-.8,40.27,40.27,0,0,0,4.18-2,80,80,0,0,0,7.07-4.42c2.18-1.51,4.22-3,6.11-4.48l5.3-4.09,2.34-1.82a15.17,15.17,0,0,1,2.18-1.53,31.32,31.32,0,0,0,3.82-2.11,8.42,8.42,0,0,0,2-2,4.7,4.7,0,0,0,.55-0.95,3.16,3.16,0,0,0-1.79-4.1h0Z" transform="translate(-3.32 -1)"/><circle class="cls-14" cx="585" cy="162.84" r="1.17" transform="translate(333.87 716.21) rotate(-81.47)"/><path class="cls-14" d="M592.94,144.66c-1.87-.24-3.75.79-5.62,0.53-2.15-.28-3.73-2.15-4.84-4s-2.05-3.93-3.78-5.23c-3.37-2.52-7.07-1.31-9.83,1.18a8.84,8.84,0,1,0-16.07,6.76,12.87,12.87,0,0,0-5.92,10.93c-0.31,13.59,11.56,21.29,11.56,21.29s2.65-5.2,0-8.79-2.54-6.19.11-6.33,5,9.18,7.85,2a62.06,62.06,0,0,0,2.72-10.08,15,15,0,0,0,2.6,1.17c4.53,1.56,7.53-2,11.78-1.55,1.77,0.19,3.29,1.39,5,2,2.87,1,6.5-.11,7.86-2.84S596,145,592.94,144.66Z" transform="translate(-3.32 -1)"/><path class="cls-8" d="M675.36,334.46l0.22,6.83a4.69,4.69,0,0,1-4.53,4.84l-18.07.5a1.94,1.94,0,0,1-1.91-2.57h0a1.94,1.94,0,0,1,1.71-1.32l3.93-.07a10.36,10.36,0,0,0,9.68-8.64h0Z" transform="translate(-3.32 -1)"/><path class="cls-17" d="M675.83,316.47c0.19-8.12.34-17.43,0.34-24.38,0-.63,1.25-35.35,1.25-35.35l-19.68,1.56,1.39,29.38a63.58,63.58,0,0,0,.8,7.45l3.54,21.3h12.37v0Z" transform="translate(-3.32 -1)"/><path class="cls-4" d="M663.2,314.9l3.19,19.16,9,0.4s0.27-9,.49-19.59H663.2v0Z" transform="translate(-3.32 -1)"/><path class="cls-12" d="M675.72,321.15q0-1.52.07-3.13H663.72l0.52,3.13h11.48Z" transform="translate(-3.32 -1)"/><path class="cls-12" d="M675.58,326.51c0-.8,0-1.62.06-2.5H664.71l0.42,2.5h10.46Z" transform="translate(-3.32 -1)"/><path class="cls-8" d="M688.86,334.46l-0.22,6.83a4.69,4.69,0,0,0,4.53,4.84l18.07,0.5a1.94,1.94,0,0,0,1.91-2.57h0a1.94,1.94,0,0,0-1.71-1.32l-3.93-.07a10.36,10.36,0,0,1-9.68-8.64h0Z" transform="translate(-3.32 -1)"/><path class="cls-17" d="M688.4,316.47c-0.19-8.12-.34-17.43-0.34-24.38,0-.63-1.25-35.35-1.25-35.35l19.68,1.56-1.39,29.38a63.58,63.58,0,0,1-.8,7.45l-3.54,21.3H688.4v0Z" transform="translate(-3.32 -1)"/><path class="cls-4" d="M701,314.9l-3.19,19.16-9,.42s-0.27-9-.49-19.59H701Z" transform="translate(-3.32 -1)"/><path class="cls-12" d="M688.51,321.15q0-1.52-.07-3.13h12.07L700,321.15H688.51Z" transform="translate(-3.32 -1)"/><path class="cls-12" d="M688.64,326.51c0-.8,0-1.62-0.06-2.5h10.94l-0.42,2.5H688.64Z" transform="translate(-3.32 -1)"/><path class="cls-25" d="M655.41,261.78H681c0.61-9.22-.39-19.63,1.48-31.67,1-6.24,2.28-17.84,2.44-23.66l-26.64-8.35S655,247,655.41,261.78Z" transform="translate(-3.32 -1)"/><path class="cls-26" d="M683.23,261.78H707.3c0.11-14.65-3.13-60.23-2.65-63.73l-26.19-3.23,2.65,36.57S682.39,252.86,683.23,261.78Z" transform="translate(-3.32 -1)"/><path class="cls-17" d="M724.18,100.16c-0.07.77-.15,1.3-0.23,2-0.17,1.18-.34,2.31-0.53,3.38-0.78,4.28-8.43,21-8.43,21L704.92,117s1-2.89,1.59-4.6l1.77-4.92c0.63-1.77,1.27-3.54,1.89-5.4,0.33-.88.62-1.84,0.88-2.72l0.35-1.18,0.12-.42V97.73h0V97.48h0a0.19,0.19,0,0,0,0-.15V96.7a10.07,10.07,0,0,0-.07-1.44l-0.22-3.1-0.53-6.42-0.59-6.29c-0.21-2-.39-4-0.65-5.9s-0.49-3.63-.73-5.3c-0.13-.81-0.22-1.6-0.39-2.32a11.78,11.78,0,0,0-.71-2,13.54,13.54,0,0,1-1.11-3.28,6,6,0,0,1,.18-3.13h0a3.58,3.58,0,0,1,5.74-1.36A6,6,0,0,1,714,58.88a13.39,13.39,0,0,1,.46,3.46,12.14,12.14,0,0,0,.26,2.13c0.17,0.73.43,1.48,0.67,2.27,0.49,1.58,1,3.3,1.61,5.1s1.24,3.71,1.89,5.69l2,6.13c0.66,2.1,1.35,4.23,1.93,6.44,0.29,1.1.59,2.22,0.82,3.39,0.12,0.57.25,1.18,0.36,1.77l0.18,1a5.71,5.71,0,0,1,.11.65l0.12,0.77Z" transform="translate(-3.32 -1)"/><path class="cls-17" d="M636.43,100.16c0.07,0.77.15,1.3,0.23,2,0.17,1.18.34,2.31,0.53,3.38,0.78,4.28,8.43,21,8.43,21l10.06-9.5s-1-2.89-1.59-4.6l-1.77-4.92c-0.63-1.77-1.27-3.54-1.89-5.4-0.33-.88-0.62-1.84-0.88-2.72l-0.35-1.18-0.12-.42V97.73h0V97.48h0a0.19,0.19,0,0,1,0-.15V96.7a10.07,10.07,0,0,1,.07-1.44l0.22-3.1,0.53-6.42,0.59-6.29c0.21-2,.39-4,0.65-5.9s0.49-3.63.73-5.3c0.13-.81.22-1.6,0.39-2.32a11.78,11.78,0,0,1,.71-2,13.54,13.54,0,0,0,1.11-3.28,6,6,0,0,0-.18-3.13h0a3.58,3.58,0,0,0-5.64-1.32,6,6,0,0,0-1.57,2.74,13.39,13.39,0,0,0-.46,3.46,12.14,12.14,0,0,1-.26,2.13c-0.17.73-.43,1.48-0.67,2.27-0.49,1.58-1,3.3-1.61,5.1s-1.24,3.71-1.89,5.69l-2,6.13c-0.66,2.1-1.35,4.23-1.93,6.44-0.29,1.1-.59,2.22-0.82,3.39-0.12.57-.25,1.18-0.36,1.77l-0.26,1a5.71,5.71,0,0,0-.11.65l-0.12.77Z" transform="translate(-3.32 -1)"/><path class="cls-17" d="M697.55,131.49c-10.66-.32-9.72-9.39-9.72-9.39l-7.13-.22-7.13.22s1,9.06-9.72,9.39c-3.46.11-10.42,11.36-10.42,11.36h48.9S699.18,131.54,697.55,131.49Z" transform="translate(-3.32 -1)"/><path class="cls-27" d="M673.24,124.93a10,10,0,0,1-1.06,2.65c3.34,7.24,12.59,8.16,16.79-.49a7.47,7.47,0,0,1-.72-2.19h-15v0Z" transform="translate(-3.32 -1)"/><path class="cls-17" d="M664.14,99.61c1-10.49,8.65-16.51,16.21-16.39s15.07,6.38,15.8,16.9a55.25,55.25,0,0,1-1.88,16.62,13.85,13.85,0,0,1-3.14,6c-3.41,3.73-7.86,6.71-11.34,6.66s-7.85-3.17-11.17-7a14,14,0,0,1-3-6.06A55.25,55.25,0,0,1,664.14,99.61Z" transform="translate(-3.32 -1)"/><path class="cls-19" d="M718.52,122.93l-14.58-7.66-10.3,15s-2.43,8-12.89,8.14c-11.32-.23-13.17-8.14-13.17-8.14l-11.45-14.72-13.85,8.09,14.84,26.24,1.07,54s4.26,3.07,22.56,3.38c17.42-.3,23.63-3.6,23.63-3.6l-0.49-52Z" transform="translate(-3.32 -1)"/><circle class="cls-14" cx="668.27" cy="107.21" r="1.25"/><circle class="cls-14" cx="685.31" cy="107.21" r="1.25"/><path class="cls-4" d="M676,117.8a0.8,0.8,0,0,0-.69,1.23,5.82,5.82,0,0,0,9.52.08,0.81,0.81,0,0,0-.65-1.31H676Z" transform="translate(-3.32 -1)"/><ellipse class="cls-20" cx="668.4" cy="112.44" rx="2.63" ry="2.03"/><ellipse class="cls-20" cx="685.18" cy="112.44" rx="2.63" ry="2.03"/><path class="cls-28" d="M696.61,84.51c-3.16-1.48-6.26-4.63-9.72-5.3-2.41-.44-4.53.49-6.87,0.88-2.77.42-5.92,0.21-8.64,1-4.3,1.26-7.59,5.09-6.19,9a17.5,17.5,0,0,0-1.86,6.37c-0.72,7.45.88,12.14,1.41,11.91,0.88-.37,1.91-2.11,1.91-5.48,0-4.64,1.77-7.07,3.59-8,6.19,4.13,13.65,2.75,20.37.37,1.59,1.08,2.93,3.47,2.93,7.56s1,5.1,1.91,5.48c0.55,0.23,2.15-4.46,1.41-11.91a18.36,18.36,0,0,0-.7-3.54C700,90.71,702.13,87.1,696.61,84.51Z" transform="translate(-3.32 -1)"/><rect class="cls-29" x="165.17" y="32.88" width="51.84" height="65.27"/><rect class="cls-4" x="173.67" y="41.27" width="34.85" height="48.49"/><path class="cls-29" d="M194.39,82.56H191.3a0.44,0.44,0,0,1-.44-0.44v-8.4a0.44,0.44,0,1,1,.88,0v8h2.65A0.44,0.44,0,1,1,194.39,82.56Z" transform="translate(-3.32 -1)"/><path class="cls-29" d="M198.81,82.56h-3.09a0.44,0.44,0,0,1-.44-0.44V70.19a0.44,0.44,0,1,1,.88,0V81.68h2.65A0.44,0.44,0,1,1,198.81,82.56Z" transform="translate(-3.32 -1)"/><path class="cls-30" d="M178.8,67.37h0A12.31,12.31,0,0,0,193.45,75h0a14.46,14.46,0,0,0,10.69-12.09l0.41-3.07a7.44,7.44,0,0,0-5.95-8.28h0a7.44,7.44,0,0,0-8.66,5.57l-3.19,13.3Z" transform="translate(-3.32 -1)"/><path class="cls-23" d="M204.6,58s-1.77.81-.27,2.73l2.57,0.35-0.82-1.39,1.33-2.38Z" transform="translate(-3.32 -1)"/><circle class="cls-31" cx="402.51" cy="57.16" r="20.35"/><circle class="cls-4" cx="402.51" cy="57.16" r="16.04"/><path class="cls-31" d="M405.81,59.31l-7.69-6.64a0.88,0.88,0,0,1,1.16-1.33L405.85,57l8.69-7.07a0.88,0.88,0,1,1,1.18,1.31l-0.07.06Z" transform="translate(-3.32 -1)"/><circle class="cls-29" cx="402.51" cy="57.16" r="2.84"/><path class="cls-32" d="M167.1,62.24h-0.41c-13.26,0-17.68,13.26-7.83,25.63h16.06C184.82,75.49,180.36,62.24,167.1,62.24Z" transform="translate(-3.32 -1)"/><path class="cls-29" d="M160,73.73a0.48,0.48,0,0,1-.29-0.1L158,72.29a0.48,0.48,0,0,1,.58-0.75l1.77,1.33A0.48,0.48,0,0,1,160,73.73Z" transform="translate(-3.32 -1)"/><path class="cls-29" d="M162.68,69.22a0.48,0.48,0,0,1-.28-0.88l2.34-1.77a0.48,0.48,0,0,1,.57.76L163,69.09A0.48,0.48,0,0,1,162.68,69.22Z" transform="translate(-3.32 -1)"/><path class="cls-29" d="M160.66,80.64a0.47,0.47,0,0,1-.32-0.12l-1.11-1a0.48,0.48,0,0,1,.64-0.71l1.11,1A0.48,0.48,0,0,1,160.66,80.64Z" transform="translate(-3.32 -1)"/><path class="cls-29" d="M165,77.62a0.48,0.48,0,0,1-.35-0.8l1.86-2.08a0.48,0.48,0,0,1,.71.64l-1.86,2.08A0.48,0.48,0,0,1,165,77.62Z" transform="translate(-3.32 -1)"/><path class="cls-29" d="M172.08,69.22a0.48,0.48,0,0,1-.34-0.13l-1.68-1.64a0.48,0.48,0,0,1,.66-0.68l1.67,1.66A0.48,0.48,0,0,1,172.08,69.22Z" transform="translate(-3.32 -1)"/><path class="cls-29" d="M173.29,74.19a0.48,0.48,0,0,1-.35-0.8l2.35-2.59a0.48,0.48,0,1,1,.76.58l-0.05.06L173.64,74A0.48,0.48,0,0,1,173.29,74.19Z" transform="translate(-3.32 -1)"/><path class="cls-29" d="M172.08,81.55a0.48,0.48,0,0,1-.39-0.2l-1-1.43a0.48,0.48,0,0,1,.73-0.61l0,0.06,1,1.43A0.48,0.48,0,0,1,172.08,81.55Z" transform="translate(-3.32 -1)"/><path class="cls-29" d="M166.92,84.73a0.48,0.48,0,0,1-.42-0.7l0.68-1.3a0.49,0.49,0,1,1,.88.44l-0.68,1.3A0.48,0.48,0,0,1,166.92,84.73Z" transform="translate(-3.32 -1)"/><path class="cls-29" d="M177.12,79.65a0.48,0.48,0,0,1-.39-0.2l-1-1.41a0.48,0.48,0,0,1,.73-0.61l0,0.06,1,1.41A0.48,0.48,0,0,1,177.12,79.65Z" transform="translate(-3.32 -1)"/><path class="cls-33" d="M177.65,92.53V86.67H156.19v5.87a7.23,7.23,0,0,0,7.23,7.23h7a7.23,7.23,0,0,0,7.23-7.23h0Z" transform="translate(-3.32 -1)"/><rect class="cls-34" x="143.94" y="97.84" width="81.04" height="6.2"/><polygon class="cls-33" points="558.13 55.67 538.68 55.67 538.68 34.45 548.26 30.33 558.13 34.45 558.13 55.67"/><path class="cls-34" d="M556.15,26.88a4.42,4.42,0,1,1-8.84,0c0-2.44,4.42-6.63,4.42-6.63S556.15,24.47,556.15,26.88Z" transform="translate(-3.32 -1)"/><circle class="cls-35" cx="548.37" cy="26.02" r="1.87"/><polygon class="cls-33" points="577.5 55.67 562.55 55.67 562.55 39.35 569.91 36.18 577.5 39.35 577.5 55.67"/><path class="cls-34" d="M576.75,33.78a3.4,3.4,0,1,1-6.8,0c0-1.87,3.4-5.1,3.4-5.1S576.75,31.89,576.75,33.78Z" transform="translate(-3.32 -1)"/><circle class="cls-35" cx="570" cy="32.86" r="1.44"/><rect class="cls-34" x="533.23" y="55.08" width="50.38" height="6.2"/><rect class="cls-36" x="762.9" y="18.8" width="62.61" height="77.78"/><rect class="cls-34" x="759.3" y="16.88" width="69.82" height="5.3"/><polygon class="cls-34" points="767.6 19.02 767.1 18.29 793.86 0 820.63 17.84 820.13 18.58 793.87 1.07 767.6 19.02"/><circle class="cls-4" cx="787.68" cy="47.82" r="14.12"/><polygon class="cls-31" points="796.37 71.1 796.37 47.52 819.94 47.52 796.37 71.1"/><rect class="cls-31" x="762.9" y="73.01" width="24.96" height="12.08"/><rect class="cls-4" x="812.42" y="66.38" width="5.48" height="30.64"/><rect class="cls-34" x="759.3" y="94.22" width="69.82" height="5.3"/><path class="cls-2" d="M61.29,215.11c-1.81-8.32-3.63-16.69-3.92-25.19A58.43,58.43,0,0,1,58,178.82c0.88-5.67,8.84-6.27,10.71-.83a57.65,57.65,0,0,1,3,16.14c0.12,2.92.05,6,2,8.41a4.67,4.67,0,0,0,3.16,1.83c3.16,0.31,4.79-2.65,5.78-5.3,3-7.86,4.31-16.25,7.07-24.17A52.15,52.15,0,0,1,93,167.23c3.29-6.09,12.64-2.34,10.82,4.34-0.45,1.65-1,3.28-1.52,4.88-2.38,6.89-5.3,13.81-5.24,21.1,0,1.54.24,3.27,2.25,3.77a4,4,0,0,0,3.86-1.26,128.07,128.07,0,0,1,33.5-25.72,4.53,4.53,0,0,1,4.48,0c2.65,1.62,1.61,4.95.2,7.26-9,14.73-40.11,32-36.79,38.42s17.92-2.65,23.69-3.08c3.27-.25,7.22.16,8.55,3.36a5.65,5.65,0,0,1-.26,4.57c-1.24,2.6-3.67,4.16-6,5.66L89.38,256.71c-4.51,2.86-10.61,8.53-16,4.32-4.8-3.77-5-13.43-6.19-18.9Z" transform="translate(-3.32 -1)"/><path class="cls-5" d="M64.26,205.62a3.83,3.83,0,0,0-2.14.19c-2.47,1-2.59,3.65-2.55,5.93l0.3,20.81a2.37,2.37,0,0,1-3.94,1.77l-21-18.65c-3-2.65-6.19-5.41-10.46-5.17a5.71,5.71,0,0,0-4.95,3.17c-1.44,3.16.79,6.07,2.85,8.44l19.39,22.23a6.83,6.83,0,0,1,1.77,4.07c0.21,4-3.25,5-6,4.37-1.82-.45-30.25-11.15-33.77-3.81-1.62,3.38,1.44,6,4.2,7.73a115.79,115.79,0,0,0,57.75,17c5.73,0.11,16.59-2,11.76-33.86-1.58-10.4-2.14-21.38-8.07-30.05C68.15,207.88,66.62,206.07,64.26,205.62Z" transform="translate(-3.32 -1)"/><path class="cls-3" d="M76.66,290.54c0.24,1.41.66,3.08,2,3.54s2.59-.35,3.66-1.15c9.07-6.7,25.63-22.78,38.41-35.51,3.45-3.44-.7-9-5-6.78a97.48,97.48,0,0,0-8.56,4.76,3,3,0,0,1-4.28-4.16c5.61-8.54,11.83-17.92,13.2-19.64,8.48-10.72,2.89-21-5.22-10.21-2.94,3.91-5.84,8.06-8.34,11.78a3,3,0,0,1-5.38-2.09c0.88-5.73,1.71-11.77,2-15,0.19-2.4.37-4.9-.88-7.07a4.58,4.58,0,0,0-2.65-2.14c-3.54-1-5.94,2.8-7.07,6-4,10.84-4,37.18-4.59,38.57s-2.34,2.41-3.69,1.71c-4.15-2.17-.09-10-5.5-12-5.86-2.16-5.25,5-4.74,8.56C71.81,263.41,74.57,276.93,76.66,290.54Z" transform="translate(-3.32 -1)"/><path class="cls-3" d="M71.64,319.06H71.5A1.69,1.69,0,0,1,70,317.25c1.9-24-2.17-41.28-5.91-51.59-4.06-11.17-8.63-16.79-8.67-16.79A1.69,1.69,0,0,1,58,246.71c0.78,0.94,19.11,23.52,15.35,70.81A1.68,1.68,0,0,1,71.64,319.06Z" transform="translate(-3.32 -1)"/><path class="cls-6" d="M78.71,322.29A1.63,1.63,0,0,1,77,320.74c-0.54-13-.44-45.08,12.09-61,0.08-.1.13-0.15,0.17-0.2a1.7,1.7,0,0,1,2.33-.42,1.67,1.67,0,0,1,.46,2.31,4.23,4.23,0,0,1-.32.42c-3.94,5-12.95,20.74-11.38,58.76a1.6,1.6,0,0,1-1.52,1.68H78.71v0Z" transform="translate(-3.32 -1)"/><polygon class="cls-7" points="91.03 363 57.26 363 49.39 306.31 97.77 306.31 91.03 363"/><path class="cls-2" d="M874.44,215.11c-1.81-8.32-3.63-16.69-3.92-25.19a58.43,58.43,0,0,1,.62-11.09c0.88-5.67,8.84-6.27,10.71-.83a57.65,57.65,0,0,1,3,16.13c0.12,2.92.05,6,2,8.41a4.67,4.67,0,0,0,3.16,1.83c3.16,0.31,4.79-2.65,5.78-5.3,3-7.86,4.31-16.25,7.07-24.17a52.15,52.15,0,0,1,3.33-7.67c3.29-6.09,12.64-2.34,10.82,4.34-0.45,1.65-1,3.28-1.52,4.88-2.38,6.89-5.3,13.81-5.24,21.1,0,1.54.24,3.27,2.25,3.77a4,4,0,0,0,3.86-1.26,128.07,128.07,0,0,1,33.5-25.72,4.53,4.53,0,0,1,4.48,0c2.65,1.62,1.61,4.95.2,7.26-9,14.73-40.11,32-36.79,38.42s17.92-2.65,23.69-3.08c3.27-.25,7.22.16,8.55,3.36a5.65,5.65,0,0,1-.26,4.57c-1.24,2.6-3.67,4.16-6,5.66L902.54,256.7c-4.51,2.86-10.61,8.53-16,4.32-4.8-3.77-5-13.43-6.19-18.9Z" transform="translate(-3.32 -1)"/><path class="cls-5" d="M877.41,205.62a3.83,3.83,0,0,0-2.14.19c-2.47,1-2.59,3.65-2.55,5.93l0.3,20.81a2.37,2.37,0,0,1-3.94,1.77l-21-18.65c-3-2.65-6.19-5.41-10.46-5.17a5.71,5.71,0,0,0-4.95,3.17c-1.44,3.16.79,6.07,2.85,8.44l19.39,22.23a6.83,6.83,0,0,1,1.77,4.07c0.21,4-3.25,5-6,4.37-1.82-.45-30.25-11.15-33.77-3.81-1.62,3.38,1.44,6,4.2,7.73a115.79,115.79,0,0,0,57.75,17c5.73,0.11,16.59-2,11.76-33.86-1.58-10.4-2.14-21.38-8.07-30.05C881.3,207.88,879.77,206.07,877.41,205.62Z" transform="translate(-3.32 -1)"/><path class="cls-3" d="M889.81,290.54c0.24,1.41.66,3.08,2,3.54s2.59-.35,3.66-1.15c9.07-6.7,25.63-22.78,38.41-35.51,3.45-3.44-.7-9-5-6.78a97.49,97.49,0,0,0-8.56,4.76,3,3,0,0,1-4.28-4.16c5.61-8.54,11.83-17.92,13.2-19.64,8.48-10.72,2.89-21-5.22-10.21-2.94,3.91-5.84,8.06-8.34,11.78a3,3,0,0,1-5.38-2.09c0.88-5.73,1.71-11.77,2-15,0.19-2.4.37-4.9-.88-7.07a4.58,4.58,0,0,0-2.65-2.14c-3.54-1-5.94,2.8-7.07,6-4,10.84-4,37.18-4.59,38.57s-2.34,2.41-3.69,1.71c-4.15-2.17-.09-10-5.5-12-5.86-2.16-5.25,5-4.74,8.56C885,263.41,887.72,276.93,889.81,290.54Z" transform="translate(-3.32 -1)"/><path class="cls-3" d="M884.79,319.06h-0.13a1.69,1.69,0,0,1-1.55-1.81c1.9-24-2.17-41.28-5.91-51.59-4.06-11.17-8.63-16.79-8.67-16.79a1.69,1.69,0,0,1,2.59-2.16c0.78,0.94,19.11,23.52,15.35,70.81A1.68,1.68,0,0,1,884.79,319.06Z" transform="translate(-3.32 -1)"/><path class="cls-6" d="M891.86,322.29a1.63,1.63,0,0,1-1.68-1.55c-0.54-13-.44-45.08,12.09-61,0.08-.1.13-0.15,0.17-0.2a1.7,1.7,0,0,1,2.33-.42,1.67,1.67,0,0,1,.46,2.31,4.25,4.25,0,0,1-.32.42c-3.94,5-12.95,20.74-11.38,58.76a1.6,1.6,0,0,1-1.52,1.68h-0.16v0Z" transform="translate(-3.32 -1)"/><polygon class="cls-7" points="904.18 363 870.41 363 862.54 306.31 910.92 306.31 904.18 363"/><path class="cls-2" d="M171.75,267.57a79.2,79.2,0,0,1-2.19-14,32.57,32.57,0,0,1,.34-6.19,3.09,3.09,0,0,1,6-.46,32.14,32.14,0,0,1,1.7,9c0.07,1.63,0,3.32,1.1,4.69a2.6,2.6,0,0,0,1.77,1c1.77,0.17,2.65-1.48,3.23-2.93,1.65-4.42,2.4-9.05,3.93-13.48a29.07,29.07,0,0,1,1.86-4.28,3.27,3.27,0,0,1,6,2.41c-0.25.88-.54,1.83-0.88,2.72-1.33,3.84-3,7.7-2.93,11.76,0,0.88.13,1.82,1.26,2.1a2.24,2.24,0,0,0,2.16-.71,71.4,71.4,0,0,1,18.68-14.34,2.53,2.53,0,0,1,2.5,0c1.46,0.88.88,2.76,0.11,4-5,8.21-22.36,17.86-20.51,21.42s10-1.48,13.2-1.71c1.82-.13,4,0.09,4.76,1.87a3.15,3.15,0,0,1-.14,2.55,8.25,8.25,0,0,1-3.35,3.16l-23,14.6c-2.51,1.6-5.93,4.76-8.93,2.4-2.65-2.1-2.78-7.49-3.44-10.54Z" transform="translate(-3.32 -1)"/><path class="cls-5" d="M173.4,262.29a2.13,2.13,0,0,0-1.19.11c-1.38.56-1.44,2-1.42,3.31L171,277.31a1.33,1.33,0,0,1-2.2,1L157,267.91c-1.66-1.48-3.46-3-5.83-2.88a3.18,3.18,0,0,0-2.76,1.77c-0.8,1.77.44,3.39,1.59,4.7l10.81,12.37a3.81,3.81,0,0,1,1,2.27c0.12,2.22-1.81,2.81-3.32,2.44-1-.25-16.86-6.19-18.83-2.12-0.88,1.88.8,3.37,2.34,4.31a64.52,64.52,0,0,0,32.2,9.43c3.19,0.06,9.25-1.14,6.56-18.88-0.88-5.8-1.19-11.91-4.5-16.79A4.72,4.72,0,0,0,173.4,262.29Z" transform="translate(-3.32 -1)"/><path class="cls-3" d="M180.36,309.64a2.34,2.34,0,0,0,1.12,2,2.32,2.32,0,0,0,2-.64c5.06-3.73,14.31-12.7,21.42-19.8a2.39,2.39,0,0,0-2.81-3.77c-2.08,1.07-3.84,2-4.76,2.65a1.7,1.7,0,0,1-2.39-2.32c3.13-4.76,6.6-10,7.35-11,4.73-6,1.62-11.69-2.91-5.69-1.64,2.17-3.25,4.5-4.65,6.57a1.65,1.65,0,0,1-3-1.17c0.49-3.19,1-6.57,1.1-8.35a6.51,6.51,0,0,0-.51-4,2.55,2.55,0,0,0-1.49-1.19c-2-.53-3.31,1.56-4,3.35-2.21,6-2.22,20.73-2.55,21.5a1.62,1.62,0,0,1-2.06,1c-2.32-1.21,0-5.56-3.07-6.67-3.27-1.2-2.93,2.78-2.65,4.77C177.61,294.51,179.15,302,180.36,309.64Z" transform="translate(-3.32 -1)"/><path class="cls-3" d="M177.52,325.54h-0.08a0.94,0.94,0,0,1-.89-1v0c1.06-13.36-1.21-23-3.3-28.76a34.36,34.36,0,0,0-4.83-9.37,0.94,0.94,0,1,1,1.44-1.2h0c0.43,0.52,10.65,13.12,8.56,39.48A0.94,0.94,0,0,1,177.52,325.54Z" transform="translate(-3.32 -1)"/><path class="cls-6" d="M181.48,327.39a0.93,0.93,0,0,1-.94-0.88c-0.3-7.27-.25-25.13,6.74-34l0.1-.12a1,1,0,0,1,1.3-.24,0.93,0.93,0,0,1,.26,1.28l-0.18.23c-2.2,2.8-7.22,11.6-6.35,32.79a0.88,0.88,0,0,1-.79,1h-0.15Z" transform="translate(-3.32 -1)"/><polygon class="cls-7" points="186.86 349.59 168.03 349.59 163.65 317.98 190.61 317.98 186.86 349.59"/></svg>