<svg id="Capa_1" data-name="Capa 1" xmlns="http://www.w3.org/2000/svg" viewBox="0 0 766.76 446.93"><defs><style>.cls-1{fill:#7a8db5;}.cls-2,.cls-29,.cls-30,.cls-31,.cls-32,.cls-33,.cls-34,.cls-35,.cls-36,.cls-4,.cls-5,.cls-6{fill:none;stroke-linecap:round;}.cls-2,.cls-31,.cls-32,.cls-33,.cls-34,.cls-35,.cls-36{stroke:#4c6691;}.cls-2,.cls-31,.cls-32,.cls-33,.cls-34,.cls-35,.cls-36,.cls-4,.cls-5,.cls-6{stroke-miterlimit:10;}.cls-2{stroke-width:1.77px;}.cls-3{fill:#77bc81;}.cls-3,.cls-6{opacity:0.35;}.cls-10,.cls-12,.cls-15,.cls-17,.cls-25,.cls-28,.cls-3,.cls-6,.cls-7{isolation:isolate;}.cls-4,.cls-5,.cls-6{stroke:#c4e3e0;}.cls-4{stroke-width:1.67px;}.cls-5,.cls-6{stroke-width:1.54px;}.cls-22,.cls-25,.cls-28,.cls-7{fill:#202d42;}.cls-7{opacity:0.15;}.cls-8{fill:#5e78a8;}.cls-9{fill:#8ccece;}.cls-10,.cls-17,.cls-18{fill:#303f5c;}.cls-10,.cls-12,.cls-25{opacity:0.2;}.cls-11,.cls-12{fill:#f8bfb7;}.cls-13{fill:#a0d5d6;}.cls-14,.cls-15{fill:#f6b3af;}.cls-15{opacity:0.4;}.cls-16{fill:#fff;}.cls-17,.cls-28{opacity:0.1;}.cls-19{fill:#b04c39;}.cls-20{fill:#fabb5b;}.cls-21{fill:#f4a199;}.cls-23{fill:#e48e88;}.cls-24{fill:#fcc234;}.cls-26{fill:#f9c9c6;}.cls-27{fill:#de7356;}.cls-29,.cls-30{stroke:#fff;stroke-linejoin:round;}.cls-29{stroke-width:0.81px;}.cls-30{stroke-width:0.64px;}.cls-31{stroke-width:1.44px;}.cls-32{stroke-width:1.36px;}.cls-34{stroke-width:1.05px;}.cls-35{stroke-width:1.28px;}.cls-36{stroke-width:1.25px;}</style></defs><title>meditacion-tablet</title><path class="cls-1" d="M594.83,42.47s16.49-14.72-4.47-33C590.35,9.53,571.5,35.48,594.83,42.47Z"/><path class="cls-1" d="M612.44,22.67S603.63-3.12,638.05.32C638.08,0.37,632.21,31.38,612.44,22.67Z"/><path class="cls-1" d="M617,48.9s-7.67-18.38,13.46-25.62C630.43,23.24,638.17,52.73,617,48.9Z"/><path class="cls-1" d="M632.14,64.77S621.51,52,639.94,37.53C639.93,37.53,648.87,66,632.14,64.77Z"/><path class="cls-1" d="M621.15,108.51s10-9.39-6.45-21C614.7,87.51,602.36,104.58,621.15,108.51Z"/><path class="cls-1" d="M622.49,135.17s9.18-9.32-6.15-20.77C616.35,114.4,607.44,129.32,622.49,135.17Z"/><path class="cls-2" d="M628.2,8s-27.75,17.25-24,36.95,44.45,59.09,23.37,110.79"/><path class="cls-2" d="M588.9,21.42s0.23,24.75,17.82,31.44c0,0,13.8-.29,21.82-18.88"/><path class="cls-2" d="M638.19,49.92s-3.25,21.48-20.65,21.23"/><path class="cls-2" d="M613.71,93.45s-0.29,12.34,18.4,21.08l12.1-15.59"/><path class="cls-2" d="M618.22,123.16s2.26,14.8,11.92,21.34"/><path class="cls-1" d="M489.2,97.67S473.78,107,460.94,81.83C460.94,81.83,490.24,74.83,489.2,97.67Z"/><path class="cls-1" d="M504.3,94.39s-13.85,2.49-15.14-19.25C489.21,75.16,512.63,82.76,504.3,94.39Z"/><path class="cls-1" d="M488.43,110.66s-1.85-11.8-19.8-8C468.65,102.66,471.52,121.26,488.43,110.66Z"/><path class="cls-1" d="M501.15,136.66s-1.51-11.9-19.69-6.53C481.44,130.13,487.63,147.27,501.15,136.66Z"/><path class="cls-1" d="M518,124.59s-14-2.71-1.92-21.53C516,103,529.89,122,518,124.59Z"/><path class="cls-1" d="M507.13,155s-10,10.14-19-10.33C488.15,144.64,511.55,143.58,507.13,155Z"/><path class="cls-1" d="M524.62,149s13.78,3.06,9.42-18.47C534.08,130.55,514.64,142,524.62,149Z"/><path class="cls-2" d="M469.94,85.37s73.46,35.32,43.18,115.4"/><path class="cls-2" d="M499.14,85.15s12.89,14.68,6.07,31.09c0,0-21-4.66-29.69-10.88"/><path class="cls-2" d="M490.22,133a63.57,63.57,0,0,0,25.22,6.28,54.93,54.93,0,0,0,2.19-24"/><path class="cls-2" d="M498.13,151.22s7.41,5.61,22.33,3.38l6.73-10.08"/><path class="cls-3" d="M524.33,326.23s-38.64,5-68.7-15S491.4,298.33,476.38,284s-57.94-25.76-53.66-44.36c6.53-28.31,32.91,15,43.64,2.14s-57.94-42.92-47.93-57.94,39.35,21.46,40.07,9.32-38.29-53.79-12.16-61.53C485,120.2,468.47,189.59,485,183.87s8.15-28.06,19.32-22.89c18.63,8.58-15.74,66.54,2.14,67.25S520,193.89,530,202.47s-29.33,75.83-18.63,73S530.74,247.5,540,253.32,524.33,326.23,524.33,326.23Z"/><path class="cls-4" d="M452.8,143.08s53.66,156.68,63,176"/><polyline class="cls-4" points="439.92 199.59 481.41 225.35 502.87 175.27"/><line class="cls-4" x1="446.36" y1="253.25" x2="497.15" y2="271.14"/><polyline class="cls-4" points="461.38 304.77 510.03 306.19 534.36 272.57"/><polyline class="cls-4" points="447.07 151.66 459.24 160.97 464.24 144.51"/><path class="cls-1" d="M494.7,316.32s-19.8,2.54-21.36-17.4C473.34,298.92,497.42,300.22,494.7,316.32Z"/><path class="cls-1" d="M486.33,333.83s-2.47-14.74-20.69-5C465.58,328.84,483.32,347.92,486.33,333.83Z"/><path class="cls-2" d="M485.08,305.71s14,11.76,16,23a32.15,32.15,0,0,1-24,3.49"/><path class="cls-3" d="M626.68,195.44s-28.42-37.26-16-55.37,37,55.34,28.52-4.4c-6.1-43.09-9-60.67,4.66-60.82s24.23,55,33.2,18.74S708,40.79,719.82,49.33s18.34,27.18-16.48,59.88c-35,32.86,24.85,1.82,35.52,18.27s-34.07,40.36-65,50.63,71.45,18.55-17.79,39.25C615.8,226.69,626.68,195.44,626.68,195.44Z"/><path class="cls-5" d="M718.67,63.2s-74.14,106.2-90.76,140.06"/><polyline class="cls-5" points="701.16 64.94 697.04 93.96 715.37 80.72"/><path class="cls-6" d="M708.16,143.2c-17.39,5.62-48.43,7.83-48.43,7.83L649.3,108.13"/><polyline class="cls-5" points="719.1 131.67 707.73 143.55 726.02 142.91"/><polyline class="cls-5" points="654.78 93.21 649.17 108.67 641.63 91.98"/><line class="cls-5" x1="619.56" y1="155.25" x2="636.66" y2="188.37"/><line class="cls-5" x1="635.84" y1="198.27" x2="677.69" y2="199.87"/><path class="cls-3" d="M592.49,331s96.72-3.27,107.59-20.74-25.22-9.56-24.72-24.15,51.75-10.82,59.78-26.33-27.84-9.87-23.94-24.27,62.58-46,28.65-64.65-26.63,47.41-50.18,54.93-11-22.53-28.31-16.73-1.72,49.41-21.12,55.77S616.67,206.66,592.49,331Z"/><path class="cls-4" d="M583.3,334.24l9.19-3.2S677.64,267.31,727,191.52"/><polyline class="cls-4" points="720.97 181.69 720.99 201.28 736.86 192.09"/><polyline class="cls-4" points="664.41 222.73 664.12 268.74 712.37 258.65"/><polyline class="cls-4" points="618.45 268 616.92 311.39 679.5 308.11"/><path class="cls-1" d="M713.73,293.66s-8.65-12.81,2-22.33C715.74,271.34,727,289.64,713.73,293.66Z"/><path class="cls-1" d="M719,296.51S716,282.21,736.58,284C736.58,284,728.33,306.88,719,296.51Z"/><path class="cls-1" d="M704.42,288.57s11.16-5.71-.42-23.84C704,264.73,689.87,280.64,704.42,288.57Z"/><path class="cls-1" d="M703.68,320s9-17.15,28.53-7.49C732.23,312.49,714,334.31,703.68,320Z"/><path class="cls-1" d="M692.34,311.93s12.93-1-.91-24C691.42,287.94,679.7,303.76,692.34,311.93Z"/><path class="cls-1" d="M665.66,314.69s11.89,5.31,17-15.06C682.75,299.65,660.42,302.09,665.66,314.69Z"/><path class="cls-1" d="M671.2,332.9s5.62-12.06,26.38-1C697.57,331.9,679.09,351.06,671.2,332.9Z"/><path class="cls-2" d="M715.8,282.54s-4.66,40.52-34.47,40.93-64.62-.68-79.79,36.4"/><path class="cls-2" d="M704.73,275.75s-2,10.88,5.24,24.06c0,0,7.66-.54,17-8.09"/><path class="cls-2" d="M714.71,317.4s-12.81,4.56-22,3.49a138.21,138.21,0,0,1,.26-18.5"/><path class="cls-2" d="M675.81,304.48s-9.41,5.16-17.47,19.4c0,0,8.37,11.92,27.31,10.74"/><path class="cls-1" d="M296.52,105.53s-17.53,4.3-22.13-23.6C274.29,81.91,304.34,84.06,296.52,105.53Z"/><path class="cls-1" d="M311.85,107s-14-1.79-8.58-22.89C303.27,84.06,323.31,98.36,311.85,107Z"/><path class="cls-1" d="M291.87,117.68s1.79-11.81-16.45-13.59C275.37,104.09,272.5,122.69,291.87,117.68Z"/><path class="cls-1" d="M296.12,146.31s2.14-11.81-16.82-12.16C279.3,134.14,280,152.38,296.12,146.31Z"/><path class="cls-1" d="M315.78,139.87s-12.52-6.8,4.66-21.1C320.44,118.75,328,140.94,315.78,139.87Z"/><path class="cls-1" d="M288.19,181.56s-14.23.7-7-20.45C281.19,161.11,299.13,176.15,288.19,181.56Z"/><path class="cls-2" d="M281.8,88s59.39,55.8,6.44,123.05"/><path class="cls-2" d="M309.71,96.58s7.87,17.89-3.57,31.44c0,0-18.63-10.74-25-19.32"/><path class="cls-2" d="M286.81,139.51a63.57,63.57,0,0,0,22.13,13.59A54.93,54.93,0,0,0,318.25,131"/><path class="cls-2" d="M284.67,171.73a109.89,109.89,0,0,0,11.45,27.95"/><path class="cls-3" d="M328.43,138.26s4.74-41.92,30-22.57c20.31,15.58-32,59.39-16.66,60.55s35.41-20.48,37.26,2S320.78,209.53,333.36,223c2.84,3,11.49.56,19.28,2,13.66,2.45,14.54,18.49-27.44,38.57-48.15,23.08-75.26,95.79-75.26,95.79L249,336.86s25.87-104.26,21.36-122,11.37-37.17,27.7-5.07c3.49,6.87,9.82-2.33,6.59-13-4.86-16-19.46-39.29-5.41-46.35C322.58,138.67,317.2,204.69,328.43,138.26Z"/><polyline class="cls-4" points="278.94 201.92 288.07 258.8 347.09 235.19"/><path class="cls-4" d="M349.24,118.75S248.36,338.25,248.36,369.34"/><polyline class="cls-4" points="339.04 120.9 336.36 145.58 352.99 136.99"/><polyline class="cls-4" points="301.47 155.77 313.82 196.02 369.08 181.53"/><path class="cls-1" d="M308.25,292.83s-3.66,14-13.61,8C294.64,300.83,292.83,287.84,308.25,292.83Z"/><path class="cls-1" d="M291.57,316.93S302,308.77,315,328.78C315,328.78,296,335.43,291.57,316.93Z"/><path class="cls-2" d="M303.51,325.51a21.53,21.53,0,0,1-15.14-15.37s1.16-8.45,12.44-13"/><path class="cls-1" d="M173.41,74.4S158,75.83,154.78,61.88C154.82,61.88,176.28,60.81,173.41,74.4Z"/><path class="cls-1" d="M178.42,71.19s-14-4.3-2.5-21.46C175.92,49.72,192,68,178.42,71.19Z"/><path class="cls-1" d="M164.47,80.13s0.36-12.52-21.1-11.09C143.37,69,150.52,89,164.47,80.13Z"/><path class="cls-1" d="M191.66,95.86s-10.74-16.13,7.15-28.61C198.81,67.25,209.19,93.71,191.66,95.86Z"/><path class="cls-1" d="M179.14,101.94s5.37-11.81-21.46-10.74C157.68,91.21,165.9,109.1,179.14,101.94Z"/><path class="cls-1" d="M168.77,126.63s10.38-7.87-5-22.13C163.77,104.44,155.18,125.15,168.77,126.63Z"/><path class="cls-1" d="M187.37,130.56s-7.87-10.74,11.81-23.6C199.17,107,207,132.36,187.37,130.56Z"/><path class="cls-1" d="M158.39,157s14.31-14-.36-27.54C158,129.49,144.08,149.16,158.39,157Z"/><path class="cls-1" d="M177.35,161.33s-10-11.09,8.94-19.32C186.29,142,190.23,167.77,177.35,161.33Z"/><path class="cls-2" d="M164.66,67.25s33.27,23.6,19.32,49.9-31.66,56.34-6.44,87.46"/><path class="cls-2" d="M153.39,73.69s8.58,7,23.6,7c0,0,3.21-7,1.07-18.78"/><path class="cls-2" d="M194.7,84.95s-2.14,13.41-7.51,21a138.2,138.2,0,0,1-16.09-9.12"/><path class="cls-2" d="M164.66,112.85s0,10.74,8.58,24.69c0,0,14.49-1.61,22.53-18.78"/><path class="cls-2" d="M156.06,142.91s0.54,18.25,8,26.78a32.15,32.15,0,0,0,17.71-16.59"/><path class="cls-1" d="M116.9,37.56S112.85,27.26,127.28,25s20.39,0.71,20.39.71S128.92,50,116.9,37.56Z"/><path class="cls-1" d="M118.8,52s1.6-11.75,24.13-3.23C142.94,48.79,130.49,64.75,118.8,52Z"/><path class="cls-1" d="M103.77,35.61S92.82,15.81,118,13C118,13,122.84,33.58,103.77,35.61Z"/><path class="cls-1" d="M84.59,65.55s16.3-4.66-2.63-29.47C81.91,36.08,63,59.94,84.59,65.55Z"/><path class="cls-1" d="M104.71,71.1S98,61.86,115.4,56.18C115.4,56.18,118.93,73.51,104.71,71.1Z"/><path class="cls-1" d="M111.44,72.83s-11.49,8.8-2.12,15.66C109.31,88.49,122,85.11,111.44,72.83Z"/><path class="cls-1" d="M95.66,97.55s3.42-12.74-20-17C75.64,80.56,76.91,100.69,95.66,97.55Z"/><path class="cls-1" d="M102.3,117.54s8-11.11-15-17.85C87.34,99.69,83.24,119.56,102.3,117.54Z"/><path class="cls-1" d="M115.8,103.81S106,91.56,125.93,85.29C125.93,85.29,129.28,106.52,115.8,103.81Z"/><path class="cls-2" d="M131.56,30.75S96,41,95.74,71.42s27,36.29,7.87,73"/><path class="cls-2" d="M113.84,18.5S96.55,32.2,104,49.35c0,0,17.84,6.38,24.9.61"/><path class="cls-2" d="M80.3,48.18S78,67.76,95.84,77.51c0,0,10.31-6.35,16-14.33"/><path class="cls-2" d="M83.12,89.84a21.53,21.53,0,0,0,20.1,8s7.35-4.33,7.17-16.51"/><path class="cls-2" d="M91,107.05s5.09,9.67,19.48,14.22c0,0,.24-14.32,8.75-23.43"/><path class="cls-3" d="M137.83,279.73s-16.1-46.15-28.44-37,5.9,27.37-4.83,29.51-19.8-38.64-31.66-35.41,8.58,30,1.07,31.66-47.22-27.37-53.66-4.3c-3.88,14,47.22,22,41.32,31.13S25.68,307.69,46.6,312s51-14.49,55.27-8S66.43,323.1,74.5,329.15c8.58,6.44,34.93-1.07,52.59-6.44,22.13-6.72,99.26-.54,99.26-0.54Z"/><path class="cls-5" d="M37.16,268.7s139.28,39.46,188.1,52.82"/><polyline class="cls-5" points="79.7 255.04 97.22 285.45 64.31 305.48"/><polyline class="cls-5" points="42.13 261.49 51.8 272.57 43.21 276.15"/><polyline class="cls-5" points="118.32 256.83 134.07 296.54 92.94 321.93"/><path class="cls-1" d="M27.2,210.31s-9.82-4.09-7.36-16.36a25.62,25.62,0,0,1,11.87-17.18S38.66,207,27.2,210.31Z"/><path class="cls-2" d="M26.36,196.39s-3.68,39.27,41.72,39.27,58.9,33.54,68.7,58.9"/><path class="cls-1" d="M23.52,215.21S29,204.73,0,192.92C0,192.92,0,220.73,23.52,215.21Z"/><path class="cls-1" d="M36.4,214.18s-6.14-6.75-1.43-11,12.88-5.52,12.88-5.52S51.54,217.26,36.4,214.18Z"/><path class="cls-1" d="M51.75,228.91s-15.34-6.54-1.22-19C50.52,209.9,62.79,225.23,51.75,228.91Z"/><path class="cls-1" d="M43.37,235.46s-10.63-5.32-17.18,8.59C26.18,244.05,47.45,249.16,43.37,235.46Z"/><path class="cls-1" d="M71.53,232.41S58.36,238,60.6,215.34C60.6,215.34,78,221.52,71.53,232.41Z"/><path class="cls-1" d="M67.12,242s-10.63-5.52-13.5,9.82C53.59,251.82,71,253,67.12,242Z"/><path class="cls-1" d="M99,238.32s-13.9-4.49-5.32-18.63C93.67,219.72,107.78,232.38,99,238.32Z"/><path class="cls-1" d="M98,247.52s-8.59-4.3-13.9,9.41C84.06,256.93,97.56,260.82,98,247.52Z"/><path class="cls-2" d="M11.23,205.39A48.68,48.68,0,0,0,32.5,219.7l5.73-9.41"/><polyline class="cls-2" points="36.61 238.52 52.16 234.03 50.92 221.75"/><polyline class="cls-2" points="61.16 245.47 75.06 236.47 65.39 223.92"/><polyline class="cls-2" points="95.51 227.06 101.65 244.25 92.65 251.2"/><path class="cls-3" d="M75.41,138.84s-27.95-21.6-19.2-33.34,23.72-7.14,41.46,22.63c18,30.15,15.5-34.68,33-11.24s-17.07,54.73-1.74,58.77,10.59-38.29,26.88-27.84c25.78,16.55-12.81,61,10.48,74.29,15.53,8.83,17.13-32.51,32.2-19.26,22.54,19.8,10.67,84.49-1.86,95.31-23.69,20.51-105-31-92.65-44s51.35,6.61,19.63-18.41c-10.48-8.29-62-16.3-47.39-31.1,13.33-13.55,38.64-.68,25.91-18.83s-53.47-4.19-52.17-22.13S97.77,164.83,75.41,138.84Z"/><path class="cls-5" d="M68.58,110.81s92.87,118.08,124.31,188"/><polyline class="cls-5" points="66.97 123.33 80.94 126.99 79.33 117.75"/><polyline class="cls-5" points="74.54 162.78 110.52 168.7 122.44 135.32"/><polyline class="cls-5" points="100.1 210.64 148.19 220.5 151.77 164.84"/><polyline class="cls-5" points="128.68 264.77 183.27 278.98 194.41 226.7"/><polygon class="cls-7" points="404.51 353.65 697.08 351.63 761.86 444.9 406.66 446.93 404.51 353.65"/><polygon class="cls-8" points="403.42 344.12 694.25 341.96 758.64 440.7 405.58 442.84 403.42 344.12"/><ellipse class="cls-7" cx="571.91" cy="391.87" rx="152.38" ry="37.02"/><path class="cls-9" d="M528.7,303.53s-99.27,63.36-95,82.38,11.26,26.78,28.87,30.28,126.72-17.62,126.72-17.62l-8.44-23.94L686.4,360.55l-72.2-52.8Z"/><path class="cls-10" d="M458.29,368.07c31.62-9.07,116.45-4.23,116.45-4.23l6.1,10.79,105.61-14.08-72.2-52.8-85.54-4.23S446,356.37,434.79,380C439.91,377.11,450.44,370.32,458.29,368.07Z"/><path class="cls-10" d="M618.12,310.59l-3.88-2.84-85.54-4.23L526.46,305C540,309.5,584.41,322.45,618.12,310.59Z"/><polygon class="cls-10" points="585.21 363.83 543.92 362.42 527.29 328.16 621.9 338.49 607 362.9 585.21 363.83"/><path class="cls-11" d="M574.7,363.87l29.11-2.33s6.1-5.64,9.39-5.64,23.94,4.66,23.94,4.66l22,1,4.66,2.33-83.07,10.79Z"/><path class="cls-12" d="M574.7,363.87l29.11-2.33s6.1-5.64,9.39-5.64,23.94,4.66,23.94,4.66l22,1,4.66,2.33-83.07,10.79Z"/><polygon class="cls-11" points="566.86 375.84 546.48 379.71 538.64 376.71 508.63 388.13 488.17 391.08 479.24 396.19 477.12 403.48 561.66 399.92 566.86 375.84"/><path class="cls-10" d="M549.06,379.23a162.39,162.39,0,0,1-10.17,21.66l22.78-1,5.19-24.08Z"/><path class="cls-13" d="M686.4,360.56s9.55,9.08,12.2,11.74c16,16,12.67,39-16,38.49-2.39,0-135.64-9.85-135.64-9.85l6.57-28.63,130.31-13.46"/><path class="cls-14" d="M529.28,287.58c24.87,3.27,49.68,7.15,74.67,9.41,4,0.36,8.09.7,12.13,1,4.66-41.64,28.39-110.63,18.72-118S594,166,592,164.5s-0.7-33.25-.7-33.25L555,132.41s2,25.34,0,31.16-44.25,9-48.15,27.3c1.27,6,7,17.08,9.75,29.64C521.44,242.38,526.25,269.62,529.28,287.58Z"/><path class="cls-15" d="M564.61,165c7.44-.93,19.38-2,26.45-7-0.41-9.7.27-26.78,0.27-26.78l-36.27,1.16s1.94,25.34,0,31.16c-0.28.85-1.44,1.65-3.2,2.45C556.11,165.9,560.38,165.56,564.61,165Z"/><path class="cls-16" d="M532,172.59s7.23,44.06-11.88,67.47l8.55,63.48s61.45,15.3,87.57,5.55c0,0,5.67-46.8,12.69-72.54,0,0-21.16-28.47-13.55-65l-4.77-2s-3.12,37.44-34.42,36.56c-34.7-1-38.91-35.68-38.91-35.68Z"/><path class="cls-17" d="M608.42,227.2q-14.38,4-28.75,8.15c-18.34,5.22-36.77,10.13-55,15.62l-2.6.78,6.65,51.78s61.45,15.3,87.57,5.55c0,0,5.67-46.8,12.69-72.54a75.89,75.89,0,0,1-7.21-12.9C617.32,224.86,612.83,226,608.42,227.2Z"/><path class="cls-11" d="M634.82,180s56.76,57.33,40.17,85.4c-9.68,16.38-92.08-6.68-95.76-14-1.16-2.33-8.15-36.62-6.63-37.05s5.82,15.21,5.82,15.21-13.44-43.64,2.21-6.72c0,0-6.5-35.4,1.35-2.41,0,0,.34-27.95,4.66,16.54l-1.16-.78,54.81,7.41-12.08-8.79S616.65,167.28,634.82,180Z"/><path class="cls-11" d="M508.46,187.41S471.39,253.64,481,270.09,569.7,256.38,573.38,249c1.16-2.33,5-33.5,3.49-33.93s-5.82,16-5.82,16,13.3-41.61-2.33-4.66c0,0,7.8-35.88-.78-3.12,0,0,3.12-30-5.07,14.43L564,237l-47.74,8.58,6.81-11.21S526.61,174.68,508.46,187.41Z"/><path class="cls-14" d="M595.52,100.4s3.35-8.21,6-5.74c8.34,7.83,0,21.64-4.95,21.9S595.52,100.4,595.52,100.4Z"/><path class="cls-14" d="M539.68,127.69s2-56,10.34-61.26c0,0,21.67-4,41.84,7.83,0,0,11.44,63.86-8,75.33S540.73,152,539.68,127.69Z"/><path class="cls-18" d="M600.14,82.67c-5.33,2-8.78-7.21-13.82-4.45,0.72,6.88,2.25,15.48,4,17.47-0.07,2.06-.73,13.07-0.63,20.33,0.26,17.72-.78,22.13-7.56,24.45s-2.33-8-3.64-14.46S552.9,122.1,549,123.92s-0.26,15.77-3.91,15.77-5.35-15.56-5.35-15.56c-8.86,33.63,21.78,36.41,36.1,32.76s20.6-10.4,20.08-25.55C595.23,111.53,599.13,94.74,600.14,82.67Z"/><path class="cls-18" d="M591.35,97.92s-9.91-8.86-10.48-25.29a44.15,44.15,0,0,1-30.28,15.14l8.08-6.25s-15.14,0-21.38,13.55c0,0-9.91-36.49,27.63-43.54,0,0,19.55.26,22.68,8.61a16,16,0,0,1,16.94,3.13c8.08,7.3-.26,34.15-0.26,34.15s-6.25-3.13-7,4.17S591.35,97.92,591.35,97.92Z"/><path class="cls-16" d="M550,128l25.8-.78S567.74,135,550,128Z"/><path class="cls-19" d="M563.06,121.65c-1.61.24-3.23,0.38-4.83,0.52s-3.21.23-4.83,0.29h-1V121.4a35.76,35.76,0,0,1,.29-3.71c0.13-1.23.28-2.47,0.47-3.69s0.37-2.46.64-3.67,0.5-2.43.82-3.63,0.66-2.4,1-3.6c0.2-.59.42-1.16,0.63-1.77s0.43-1.16.69-1.75,0.48-1.16.78-1.71,0.57-1.16.9-1.65,0.69-1.06,1-1.57a15.73,15.73,0,0,1,1.22-1.42c-0.26.57-.5,1.16-0.77,1.69s-0.41,1.16-.63,1.72L559,98.36c-0.2.57-.33,1.16-0.48,1.76s-0.33,1.16-.45,1.76-0.29,1.16-.41,1.77c-0.27,1.16-.54,2.33-0.76,3.56s-0.48,2.33-.7,3.57l-0.66,3.6-1.23,7.27-0.93-1c1.61,0.1,3.21.26,4.82,0.42S561.46,121.41,563.06,121.65Z"/><path class="cls-18" d="M568.4,98.88l0.07,1.06a22.13,22.13,0,0,0,.35,2.66,11,11,0,0,0,.48,1.6,3.83,3.83,0,0,0,.38.76,3.17,3.17,0,0,0,.48.65,4.39,4.39,0,0,0,.58.51,6.69,6.69,0,0,0,.72.33,5.36,5.36,0,0,0,1.69.2h0.57a1.55,1.55,0,0,0,.49-0.07,5.15,5.15,0,0,0,.78-0.22,5,5,0,0,0,1.51-.89,7,7,0,0,0,1.22-1.28,14,14,0,0,0,.92-1.43,22.61,22.61,0,0,0,1.16-2.43l0.37-1a6.59,6.59,0,0,1,.1,1.07,10.48,10.48,0,0,1-.29,2.85,8.56,8.56,0,0,1-.66,1.86A7.14,7.14,0,0,1,578,107a4.91,4.91,0,0,1-1,.84,5.26,5.26,0,0,1-1.16.66,6,6,0,0,1-1.35.44,2.89,2.89,0,0,1-.63.1h-0.56a6.66,6.66,0,0,1-2.74-.42,6.13,6.13,0,0,1-1.23-.7,5.29,5.29,0,0,1-.93-1,4.28,4.28,0,0,1-.59-1.16,5.69,5.69,0,0,1-.31-1.16,7.76,7.76,0,0,1-.12-2A10.48,10.48,0,0,1,568,99.8,7,7,0,0,1,568.4,98.88Z"/><path class="cls-18" d="M543.89,97.71L544,98.77a22.13,22.13,0,0,0,.35,2.66,11,11,0,0,0,.48,1.6,3.83,3.83,0,0,0,.38.76,3.17,3.17,0,0,0,.48.65,4.39,4.39,0,0,0,.58.51,6.69,6.69,0,0,0,.72.33,5.36,5.36,0,0,0,1.69.2h0.57a1.55,1.55,0,0,0,.49-0.07,5.14,5.14,0,0,0,.78-0.22,5,5,0,0,0,1.51-.89,7,7,0,0,0,1.22-1.28,14,14,0,0,0,.92-1.43,22.61,22.61,0,0,0,1.16-2.43l0.37-1a6.59,6.59,0,0,1,.1,1.07,10.48,10.48,0,0,1-.29,2.85,8.56,8.56,0,0,1-.66,1.86,7.14,7.14,0,0,1-1.29,1.91,4.91,4.91,0,0,1-1,.84,5.26,5.26,0,0,1-1.16.66,6,6,0,0,1-1.35.44,2.89,2.89,0,0,1-.63.1h-0.56a6.66,6.66,0,0,1-2.74-.42,6.13,6.13,0,0,1-1.23-.7,5.29,5.29,0,0,1-.93-1,4.28,4.28,0,0,1-.59-1.16,5.69,5.69,0,0,1-.31-1.16,7.76,7.76,0,0,1-.12-2,10.48,10.48,0,0,1,.57-2.81A7,7,0,0,1,543.89,97.71Z"/><path class="cls-18" d="M567.31,91.27a2.88,2.88,0,0,1,.29-0.71,4.31,4.31,0,0,1,.49-0.72,5.82,5.82,0,0,1,.78-0.82,6.89,6.89,0,0,1,1.11-.76,6.76,6.76,0,0,1,1.39-.59,8.27,8.27,0,0,1,1.57-.34,11.19,11.19,0,0,1,1.65,0,9.16,9.16,0,0,1,1.61.28,8.08,8.08,0,0,1,1.47.52,13.48,13.48,0,0,1,1.26.69c0.37,0.27.7,0.54,1,.79a4.89,4.89,0,0,1,.76.78,7.68,7.68,0,0,1,.51.66,5.3,5.3,0,0,1,.4.64,7.31,7.31,0,0,1-.76,0c-0.47,0-1.07-.12-1.8-0.15a9.25,9.25,0,0,1-1.16-.14c-0.43-.06-0.79-0.07-1.16-0.14s-0.82-.07-1.16-0.14-0.82-.06-1.16-0.12-0.8,0-1.16-.08a5.56,5.56,0,0,0-1.16,0h-1.16a6.12,6.12,0,0,0-1.06.06,12,12,0,0,0-1.72.2Z"/><path class="cls-18" d="M543.57,91.67a2.88,2.88,0,0,1,.29-0.71,4.31,4.31,0,0,1,.49-0.72,5.82,5.82,0,0,1,.78-0.82,6.89,6.89,0,0,1,1.11-.76,6.76,6.76,0,0,1,1.39-.59,8.27,8.27,0,0,1,1.57-.34,11.19,11.19,0,0,1,1.65,0,9.16,9.16,0,0,1,1.61.28,8.08,8.08,0,0,1,1.47.52,13.48,13.48,0,0,1,1.26.69c0.37,0.27.7,0.54,1,.79a4.89,4.89,0,0,1,.76.78q0.23,0.28.43,0.58a5.3,5.3,0,0,1,.4.64,7.31,7.31,0,0,1-.76,0c-0.47,0-1.07-.12-1.8-0.15a9.25,9.25,0,0,1-1.16-.14c-0.43-.06-0.79-0.07-1.16-0.14s-0.82-.07-1.16-0.14-0.82-.06-1.16-0.12-0.8,0-1.16-.08a5.56,5.56,0,0,0-1.16,0h-1.16a6.12,6.12,0,0,0-1.06.06,12,12,0,0,0-1.72.2Z"/><polygon class="cls-7" points="90.24 351.56 385.99 350.56 396.98 446.06 38.56 442.04 90.24 351.56"/><polygon class="cls-20" points="96.51 341.96 385.19 340.89 395.91 442.84 46.07 438.55 96.51 341.96"/><ellipse class="cls-7" cx="222.07" cy="391.34" rx="138.43" ry="36.48"/><path class="cls-18" d="M284.54,258.52c-9-7.07-7.7-11.87-6.14-17,0.57-1.16,6.14-18.07-1.16-25.16-6.89-9.56-24-10.24-13.55-29.11,11.64-20.81,18.76-30.7,13.65-45.41s-34.53-18.63-34.53-18.63-15.6-14.84-30.61-2.21-2.72,46.73-31.38,54.91c-22,6.28-35.89,27.35-25.62,48.54,1.93,5.05,3.24,7.44,4.43,12.81,3.07,14-27.62,7.16-20.46,34.11s36.26,30.86,69,39a116,116,0,0,0,72-5.11C292.39,300.12,298.85,269.76,284.54,258.52Z"/><path class="cls-18" d="M239.53,121.57a27.42,27.42,0,0,0-9-3.56,19,19,0,0,0-4.8-.31,16.42,16.42,0,0,0-4.66.91,21.86,21.86,0,0,0-8.06,4.93,22.85,22.85,0,0,0-4.91,8c-2.33,6-3.35,12.45-5,18.84a58.61,58.61,0,0,1-3.26,9.49,29.62,29.62,0,0,1-5.65,8.56,25.62,25.62,0,0,1-8.52,5.82,32.4,32.4,0,0,1-4.88,1.63l-4.66,1.29c-1.48.55-2.92,1-4.37,1.68a41.13,41.13,0,0,0-4.2,2.18l-2,1.16c-0.65.44-1.27,0.93-1.91,1.39a35.91,35.91,0,0,0-3.61,3,19.92,19.92,0,0,0-1.62,1.7A23.35,23.35,0,0,0,156.8,190a31.76,31.76,0,0,0-2.62,3.88,31.24,31.24,0,0,0-3.49,8.64l-0.38,2.33c0,0.38-.15.77-0.17,1.16v1.16L150,209.53l0.2,2.33,0.09,1.16a6.84,6.84,0,0,0,.22,1.16l0.49,2.33,0.12,0.58,0.19,0.56,0.38,1.16,0.75,2.25v0.1c0.69,2.33,1.49,4.58,2.18,7,0.34,1.16.64,2.41,0.89,3.63,0.12,0.61.23,1.16,0.33,1.83l0.15,1,0.07,0.91a6,6,0,0,1,0,1,4.66,4.66,0,0,1-.14,1.07,7.06,7.06,0,0,1-.73,2,8.5,8.5,0,0,1-2.84,2.91,36.82,36.82,0,0,1-6.77,3.16,42.64,42.64,0,0,0-6.49,3,17.09,17.09,0,0,0-2.79,2.12,12.43,12.43,0,0,0-2.19,2.72l-0.44.76-0.36.8a11.54,11.54,0,0,0-.59,1.67,17.47,17.47,0,0,0-.61,3.49,23.94,23.94,0,0,0,0,3.61,30,30,0,0,0,.41,3.61c-0.23-1.16-.54-2.33-0.66-3.59a23.2,23.2,0,0,1-.24-3.66,18.07,18.07,0,0,1,.43-3.67,12.26,12.26,0,0,1,.54-1.79l0.34-.87,0.43-.84a13.43,13.43,0,0,1,2.2-3.05,18.27,18.27,0,0,1,2.88-2.42A40.36,40.36,0,0,1,145,244.1a35.55,35.55,0,0,0,6.3-3.21,6.53,6.53,0,0,0,2.13-2.33,5,5,0,0,0,.45-1.42,2.82,2.82,0,0,0,.07-0.72,3.49,3.49,0,0,0,0-.78l-0.09-.91-0.15-.8c-0.12-.58-0.23-1.16-0.36-1.75a35.14,35.14,0,0,0-.93-3.42c-0.72-2.26-1.6-4.54-2.33-6.87V222c-0.56-1.6-1.25-3.17-1.67-4.81l-0.57-2.49c-0.08-.42-0.21-0.83-0.26-1.26l-0.13-1.28-0.26-2.55v-3.85a11.45,11.45,0,0,1,.16-1.27l0.38-2.55a32.38,32.38,0,0,1,3.7-9.55,34.82,34.82,0,0,1,2.85-4.26c0.49-.7,1.16-1.29,1.67-1.94a22.45,22.45,0,0,1,1.76-1.86,39,39,0,0,1,3.89-3.31c0.69-.5,1.36-1,2.06-1.5l2.18-1.32a44.25,44.25,0,0,1,4.53-2.33c1.55-.68,3.21-1.23,4.81-1.8l4.77-1.28a29.34,29.34,0,0,0,4.44-1.46,23.69,23.69,0,0,0,7.62-5.1,26.78,26.78,0,0,0,5.24-7.67,60.63,60.63,0,0,0,3.28-9c0.9-3.11,1.68-6.29,2.53-9.47a65.06,65.06,0,0,1,3.14-9.47,24.45,24.45,0,0,1,5.69-8.42,22.65,22.65,0,0,1,8.82-4.8,17.47,17.47,0,0,1,5-.7,19.73,19.73,0,0,1,5,.58A26.15,26.15,0,0,1,239.53,121.57Z"/><path class="cls-18" d="M239.73,121.22s-0.51-.35-1.5-0.93a28.25,28.25,0,0,0-4.47-2.13,20.33,20.33,0,0,0-7.48-1.37,19.51,19.51,0,0,0-9.32,2.55c-0.8.4-1.54,1-2.33,1.46a18.87,18.87,0,0,0-2.14,1.85,21.39,21.39,0,0,0-3.49,4.76,60.56,60.56,0,0,0-4.52,12.25c-1.26,4.41-2.39,9.07-4.17,13.66A34,34,0,0,1,192.4,166a27,27,0,0,1-13.48,6.73l-3.49.8c-0.58.14-1.16,0.24-1.74,0.41l-1.64.54a25.62,25.62,0,0,0-3.23,1.16l-1.55.71a11.36,11.36,0,0,0-1.53.73,38.74,38.74,0,0,0-10.48,7.58l-1.09,1.08-1,1.16a22.29,22.29,0,0,0-1.79,2.33l-1.62,2.42-1.16,2.48a30.28,30.28,0,0,0-2.56,9.5l-0.21,2.14,0.06,2v1.85l0.38,1.64c0.19,1,.27,2,0.48,2.82l0.56,2,0.47,1.7-0.58-1.67-0.7-2a26.88,26.88,0,0,1-.64-2.81l-0.34-1.68-0.2-1.89-0.21-2,0.1-2.19a28,28,0,0,1,.62-4.8l0.12-.64,0.19-.63,0.4-1.27a17.37,17.37,0,0,1,.93-2.59l1.16-2.62,1.54-2.56A23.51,23.51,0,0,1,152,186l1-1.26,1.11-1.16a38.18,38.18,0,0,1,10.74-8.15,12.24,12.24,0,0,1,1.58-.79l1.63-.72a27.39,27.39,0,0,1,3.39-1.28l1.75-.58c0.58-.19,1.16-0.29,1.75-0.44l3.49-.83a24.93,24.93,0,0,0,12.39-6.3,32,32,0,0,0,7.49-11.94c1.72-4.44,3-9,4.29-13.44a56.93,56.93,0,0,1,5-12.48,22.75,22.75,0,0,1,4-5,20.15,20.15,0,0,1,2.33-1.9c0.85-.49,1.63-1.06,2.49-1.46a19.31,19.31,0,0,1,2.54-1.16,17.84,17.84,0,0,1,2.54-.76,19.12,19.12,0,0,1,4.84-.42,21,21,0,0,1,7.62,1.78,25.42,25.42,0,0,1,4.38,2.42C239.24,120.84,239.73,121.22,239.73,121.22Z"/><path class="cls-18" d="M285.55,302.15a16.3,16.3,0,0,0,6.2-6.45,32.08,32.08,0,0,0,3.28-8.37,40.32,40.32,0,0,0,.83-4.43,40.76,40.76,0,0,0,.34-4.47,38,38,0,0,0-.14-4.47,33.1,33.1,0,0,0-.68-4.39,28.6,28.6,0,0,0-1.28-4.22,22.87,22.87,0,0,0-2-3.89,18.29,18.29,0,0,0-2.68-3.35,15.39,15.39,0,0,0-1.62-1.4L287,256l-0.92-.68c-0.61-.43-1.25-1-1.86-1.5a13.94,13.94,0,0,1-1.72-1.7A13.78,13.78,0,0,1,279.7,248a11.23,11.23,0,0,1-.79-5.08,26.71,26.71,0,0,1,.85-4.75l0.07-.2,0.09-.28,0.1-.36c0.07-.24.14-0.5,0.2-0.76,0.14-.51.24-1,0.36-1.55,0.22-1,.41-2.1.57-3.14s0.28-2.11.35-3.17c0-.52.08-1.06,0.09-1.58s0-1.06,0-1.57V224l-0.15-1.55a18.31,18.31,0,0,0-.63-3l-0.21-.72c-0.08-.23-0.2-0.44-0.29-0.68a7.35,7.35,0,0,0-.64-1.29,12.62,12.62,0,0,0-.79-1.16l-0.94-1-0.19-.2a22.13,22.13,0,0,0-4.93-4.32c-1.86-1.29-3.9-2.48-5.9-3.87a18.63,18.63,0,0,1-5.47-5.33,11.84,11.84,0,0,1-1.53-7.77,23.77,23.77,0,0,1,2.19-7.16c1.06-2.25,2.15-4.23,3.24-6.35,2.18-4.18,4.37-8.33,6.4-12.52,1-2.1,2-4.22,2.78-6.37a42,42,0,0,0,2-6.57,27.42,27.42,0,0,0,.49-6.75,26.28,26.28,0,0,0-1.32-6.68c-0.19-.52-0.35-1.16-0.54-1.6a13.13,13.13,0,0,0-.72-1.56,11.42,11.42,0,0,0-.87-1.41l-0.49-.7-0.55-.65a24.18,24.18,0,0,0-5.23-4.46,42,42,0,0,0-6.17-3.27,65.55,65.55,0,0,0-6.59-2.48,49.65,49.65,0,0,1,13.23,5,25.23,25.23,0,0,1,5.71,4.38l0.63,0.66,0.57,0.72a12.74,12.74,0,0,1,1.06,1.54,14.35,14.35,0,0,1,.85,1.58c0.29,0.61.44,1.16,0.68,1.71a28,28,0,0,1,1.68,7.06,29.3,29.3,0,0,1-.24,7.29,44.24,44.24,0,0,1-1.89,7c-0.78,2.33-1.72,4.46-2.68,6.64s-2,4.3-3,6.4l-3.16,6.31c-1,2.08-2.15,4.24-3.07,6.28a22.12,22.12,0,0,0-1.86,6.29,8.75,8.75,0,0,0,1.16,5.82,15.7,15.7,0,0,0,4.66,4.38c1.87,1.28,3.91,2.46,5.93,3.82a25.11,25.11,0,0,1,5.5,5.05l-0.19-.2,1.35,1.36a15.47,15.47,0,0,1,1,1.56,10.1,10.1,0,0,1,.8,1.65,9.51,9.51,0,0,1,.61,1.71,12.54,12.54,0,0,1,.43,1.74c0.09,0.58.23,1.16,0.29,1.75l0.15,1.74v3.45a9.33,9.33,0,0,1-.1,1.71c-0.08,1.16-.24,2.26-0.42,3.38s-0.41,2.22-.66,3.33c-0.13.55-.27,1.11-0.42,1.65-0.07.28-.15,0.55-0.24,0.84l-0.13.42-0.19.5,0.07-.2a24.17,24.17,0,0,0-.84,4.23,8.44,8.44,0,0,0,.52,3.88,11.64,11.64,0,0,0,2.19,3.49c0.43,0.55,1,1,1.48,1.55a12.55,12.55,0,0,0,1.65,1.42l0.9,0.7,0.91,0.73a17.8,17.8,0,0,1,1.79,1.64,20.61,20.61,0,0,1,2.9,3.85,23.52,23.52,0,0,1,2,4.32,30.63,30.63,0,0,1,1.16,4.56,34.94,34.94,0,0,1,.54,4.66,39.69,39.69,0,0,1,0,4.66,42.76,42.76,0,0,1-1.69,9.12,32.92,32.92,0,0,1-3.83,8.4,18.38,18.38,0,0,1-2.93,3.55A13.23,13.23,0,0,1,285.55,302.15Z"/><path class="cls-18" d="M288.73,236.15a30.27,30.27,0,0,0,.41-3.23q0.13-1.62.16-3.25a43.82,43.82,0,0,0-.31-6.47,25,25,0,0,0-1.55-6.25c-0.21-.49-0.43-1-0.69-1.44a11.46,11.46,0,0,0-.84-1.36,10.48,10.48,0,0,0-1-1.23,11,11,0,0,0-1.16-1.06h0a29.79,29.79,0,0,0-8.35-5.53c-1.51-.78-3-1.55-4.51-2.49a14.51,14.51,0,0,1-3.91-3.49,11.11,11.11,0,0,1-2-5,18.63,18.63,0,0,1,.1-5.3,37.7,37.7,0,0,1,1.16-5.08c0.5-1.64,1-3.25,1.55-4.88,1-3.25,2.19-6.47,3.32-9.68s2.33-6.39,3.11-9.57a26.4,26.4,0,0,0,1-9.39,22.13,22.13,0,0,0-3-8.64l4.77-2.4a27,27,0,0,1,2.59,10.81,30.59,30.59,0,0,1-2,10.67c-1.16,3.31-2.55,6.43-3.89,9.56s-2.69,6.23-4,9.32c-0.63,1.56-1.23,3.16-1.82,4.74a36.1,36.1,0,0,0-1.33,4.79,17.1,17.1,0,0,0-.28,4.84,9.76,9.76,0,0,0,1.58,4.45,13.37,13.37,0,0,0,3.49,3.37,46.3,46.3,0,0,0,4.33,2.59,30.45,30.45,0,0,1,8.38,5.92h0a11.54,11.54,0,0,1,1.16,1.16,11,11,0,0,1,1,1.32,11.93,11.93,0,0,1,.83,1.43c0.26,0.49.45,1,.66,1.51a26.45,26.45,0,0,1,1.43,6.38,44,44,0,0,1,.19,6.52q-0.07,1.63-.23,3.25A30.28,30.28,0,0,1,288.73,236.15Z"/><path class="cls-11" d="M238,211c-9.48-2.22-19.87-2.9-8.36-29.25L205,169.57s-3.33,16.37-3.59,29.11-24.55,2.15-33,18.46,20.72,34.78,20.72,34.78A44.57,44.57,0,0,0,205.52,255c8.44-.26,62.16,5.11,67.54-22S250,213.83,238,211Z"/><path class="cls-21" d="M225.4,204.4c-1.71-3.91-1-10.59,4.23-22.63L205,169.58S201.65,186,201.4,198.7a7.14,7.14,0,0,1-.55,2.69A74.15,74.15,0,0,0,225.4,204.4Z"/><path class="cls-11" d="M248.27,127.88s-28.68-10.24-39.76,22,4.82,48.13,14.35,51.67c10.32,3.84,30.53,0,40.26-27.88C272.35,147.21,261.1,132,248.27,127.88Z"/><path class="cls-18" d="M235.09,128.91s-2,17.25,14.66,25.62c15,7.5,2.39,36.49,2.39,36.49s15.69-23.2,6.06-34.19c0,0,8.78,11.17-2,30.1-12.15,21.39-.59,21.58-0.59,21.58s-4.34-4.86,3.07-15.35c8.9-12.58,32.49-44,10.48-65C244.77,104.86,235.09,128.91,235.09,128.91Z"/><path class="cls-18" d="M242.85,123.28s-14.65-11.84-28.66,3c-15.86,16.88-9.72,43.23-9.72,43.23s5.54-17.65,13.22-23.29S235.42,145.28,242.85,123.28Z"/><path class="cls-11" d="M203.8,165.3s3.49-12.81,5.92-18.29c0,0-3.77-6.33-8.27-.26S198.85,164.46,203.8,165.3Z"/><path class="cls-18" d="M219.45,159.26l-0.07,1.06c0,0.66-.09,1.62-0.08,2.72a13.21,13.21,0,0,0,.08,1.77,16.15,16.15,0,0,0,.29,1.87,5.93,5.93,0,0,0,.72,1.69,3.13,3.13,0,0,0,1.22,1.16,5,5,0,0,0,.89.3,2.92,2.92,0,0,0,.76,0,5.66,5.66,0,0,0,1.77-.42,14.85,14.85,0,0,0,1.68-.87c0.51-.34,1-0.66,1.46-1,0.89-.66,1.62-1.27,2.13-1.7l0.8-.69a9.89,9.89,0,0,1-.48,1,14.46,14.46,0,0,1-1.62,2.33,12.9,12.9,0,0,1-1.35,1.37c-0.26.23-.55,0.44-0.84,0.68a8.14,8.14,0,0,1-1,.61,6.37,6.37,0,0,1-2.42.77,4.66,4.66,0,0,1-1.49-.07,2.57,2.57,0,0,1-.62-0.17l-0.27-.09H220.7a5.22,5.22,0,0,1-2-2,6.67,6.67,0,0,1-.8-2.4,10.6,10.6,0,0,1,0-2.21,13,13,0,0,1,.29-1.9,14.62,14.62,0,0,1,.89-2.69A10.09,10.09,0,0,1,219.45,159.26Z"/><path class="cls-22" d="M220.09,151.42a4.32,4.32,0,0,1,.72-0.5,7.17,7.17,0,0,1,.9-0.45,7.8,7.8,0,0,1,1.16-.43,10.83,10.83,0,0,1,1.5-.33,12.26,12.26,0,0,1,1.72-.09,10.48,10.48,0,0,1,1.85.17,12,12,0,0,1,1.86.45,14.8,14.8,0,0,1,1.77.73,17.35,17.35,0,0,1,1.58,1,16.05,16.05,0,0,1,1.32,1.11,8.81,8.81,0,0,1,1,1.16,8.65,8.65,0,0,1,1.22,1.92,7.83,7.83,0,0,1,.35.79s-0.31-.12-0.8-0.35c-0.24-.12-0.54-0.26-0.85-0.43s-0.7-.33-1.08-0.52a12.2,12.2,0,0,0-1.23-.59l-1.35-.62c-0.48-.17-1-0.4-1.44-0.59a11.47,11.47,0,0,0-1.5-.52c-0.51-.13-1-0.34-1.53-0.47s-1-.27-1.51-0.38c-1-.23-1.94-0.41-2.79-0.55s-1.58-.23-2.11-0.3Z"/><path class="cls-18" d="M255.25,176.63a11.85,11.85,0,0,1-1.58,3.13,11.72,11.72,0,0,1-1.08,1.36,9.56,9.56,0,0,1-1.49,1.33,6,6,0,0,1-2.08.94,4.66,4.66,0,0,1-2.53-.13h-0.1l-0.12-.06-0.22-.12a2.33,2.33,0,0,1-.49-0.3,4.22,4.22,0,0,1-1-.94,5.75,5.75,0,0,1-1-2.07,9.06,9.06,0,0,1-.26-2,12.88,12.88,0,0,1,1-5.14v1c0,0.61.07,1.46,0.17,2.46,0.06,0.5.14,1,.23,1.58a13.4,13.4,0,0,0,.44,1.64,5.11,5.11,0,0,0,.82,1.43,2.63,2.63,0,0,0,.49.48,4.48,4.48,0,0,0,.73.4,2.82,2.82,0,0,0,1.5.12,5.34,5.34,0,0,0,1.56-.56,14.56,14.56,0,0,0,1.42-1,11.78,11.78,0,0,0,1.16-1c0.73-.68,1.34-1.29,1.76-1.72Z"/><path class="cls-22" d="M261.59,169.56l-0.73-.44c-0.47-.27-1.09-0.65-1.84-1.07s-1.62-.87-2.53-1.3c-0.47-.22-0.93-0.44-1.42-0.64s-1-.4-1.48-0.58-1-.33-1.5-0.52-1-.28-1.5-0.43l-1.44-.36c-0.47-.14-0.92-0.19-1.34-0.3a8.89,8.89,0,0,0-1.16-.26c-0.35,0-.66-0.13-0.93-0.19-0.52-.12-0.84-0.22-0.84-0.22a7.83,7.83,0,0,1,.77-0.4,8.65,8.65,0,0,1,2.15-.75,8.81,8.81,0,0,1,1.51-.26,14.18,14.18,0,0,1,1.72,0,17.36,17.36,0,0,1,1.84.23,14.79,14.79,0,0,1,1.85.52,12,12,0,0,1,1.75.8,10.48,10.48,0,0,1,1.55,1,12.26,12.26,0,0,1,1.29,1.16,10.83,10.83,0,0,1,1,1.16,7.8,7.8,0,0,1,.69,1.09,7.18,7.18,0,0,1,.42.91A4.33,4.33,0,0,1,261.59,169.56Z"/><path class="cls-23" d="M242.81,169.48a84.06,84.06,0,0,1-2,8.62c-0.78,2.83-1.65,5.65-2.66,8.41l-0.09.27-0.23-.06c-1-.27-2-0.54-3-0.85a31.28,31.28,0,0,1,3.13.27l-0.34.21c0.63-2.88,1.39-5.72,2.25-8.54A84,84,0,0,1,242.81,169.48Z"/><path class="cls-23" d="M217.13,182.46l0.76,0.77a25.34,25.34,0,0,0,2.08,1.93c0.45,0.37.92,0.8,1.44,1.16s1.08,0.85,1.67,1.27,1.22,0.83,1.84,1.26a22.29,22.29,0,0,0,2,1.16,12.92,12.92,0,0,0,2.07,1,18.63,18.63,0,0,0,2.07.77,14.58,14.58,0,0,0,2,.54,13.68,13.68,0,0,0,1.84.31l1.58,0.16h2.32l-1.06.21-1.23.22h-1.63a10.7,10.7,0,0,1-1.93-.14,11.77,11.77,0,0,1-2.13-.42,15,15,0,0,1-2.21-.72c-0.76-.26-1.44-0.66-2.18-1a15.19,15.19,0,0,1-2-1.23,17.35,17.35,0,0,1-1.85-1.37,20.24,20.24,0,0,1-1.62-1.42c-0.51-.45-0.94-0.94-1.35-1.36A22.13,22.13,0,0,1,217.13,182.46Z"/><path class="cls-14" d="M269.83,320.45s48.82,36.1,59.3,52.66-60.87,19-60.87,19L238.4,361.64Z"/><path class="cls-14" d="M243,361.94l-46.73-58.88S119,359.29,110.86,375.91C136.55,356.8,243,361.94,243,361.94Z"/><path class="cls-21" d="M272.75,322.64l-2.91-2.19-31.44,41.18,5.22,5.32C250.91,350.91,263.6,337.77,272.75,322.64Z"/><path class="cls-21" d="M196.29,303.07s-16.61,12.1-35.23,26.72c14.14,8.07,26.45,18.26,35.46,31.69,25.55-.54,46.5.47,46.5,0.47Z"/><path class="cls-24" d="M190,277.39L194,302.23s-26.71,20.11-32.37,26.4c0,0,31.44,18.85,42.75,40.23l33.94-.63s20.74-33.94,31.44-47.74l-20.1-17.63,8.8-30.8S196.91,264.83,190,277.39Z"/><path class="cls-25" d="M254.77,285.17L258.52,272s-65.37.63-72.29,13.21l1.37,8.23C210.35,293.22,233,291.67,254.77,285.17Z"/><path class="cls-25" d="M223,338.14c-11.64,1.55-24.51,4.26-34.93,10.56,6.43,6,12.54,12.94,16.3,20.16l33.94-.63s9.83-16.08,19.44-30.61A154.09,154.09,0,0,0,223,338.14Z"/><path class="cls-11" d="M295.29,361.63s-10.59-4.93-17.08-3.25-20.32-4.66-26.61-2.33-8.59,5.82-8.59,5.82h0s-106.46-5.15-132.1,14a8.24,8.24,0,0,0-.54,1.34C106.18,391.86,103.66,409,133,412s159-40,164.29-45.62S295.29,361.63,295.29,361.63Z"/><path class="cls-26" d="M144,386s9.7-6.49,16.38-5.82,19.38-7.67,25.94-6.36,9.39,4.48,9.39,4.48h0s104.42-21.39,132.68-6.44a8.25,8.25,0,0,1,.73,1.25c6.39,13.86,11.51,30.45-17,37.85s-163.3-15.14-169.34-20S144,386,144,386Z"/><path class="cls-11" d="M151,297.2s-12.16,17.61-20.53,28.49-23.57,33.94-23.57,33.94-14.25-4.19-15.72,10.27c0,0-.73,1.47.94,1.26s3.35-8.8,7.76-5.82,0.21,6.29-1.68,6.5-5.45-4.4-6.29-3.14,1.89,8,9.54,5.34a13.17,13.17,0,0,1-10.27-.42c-8.15-3.49-4.75,1.42,3.67,4.3a14,14,0,0,0,8.15.42,39.21,39.21,0,0,1-13.1-1.26c-6.08-1.89,2.41,8,15.14,2.83,0,0-17.4,2.83-11.11,3s17,0,20.74-16.14c0,0,53.65-43.17,64.75-61.39S151,297.2,151,297.2Z"/><path class="cls-21" d="M172.31,314.66a68.87,68.87,0,0,0,7.22-9.32c11.11-18.24-28.49-8.15-28.49-8.15l-1.16,1.62C157.65,303.7,165.05,309.07,172.31,314.66Z"/><path class="cls-11" d="M300.59,305.36s12.16,17.61,20.53,28.49,23.57,33.94,23.57,33.94,14.25-4.19,15.72,10.27c0,0,.73,1.47-0.94,1.26s-3.35-8.8-7.76-5.82-0.21,6.29,1.68,6.5,5.45-4.4,6.29-3.14-1.89,8-9.54,5.34a13.17,13.17,0,0,0,10.27-.42c8.15-3.49,4.75,1.42-3.67,4.3a14,14,0,0,1-8.15.42,39.21,39.21,0,0,0,13.1-1.26c6.08-1.89-2.41,8-15.14,2.83,0,0,17.4,2.83,11.11,3s-17,0-20.74-16.14c0,0-53.65-43.17-64.75-61.39S300.59,305.36,300.59,305.36Z"/><path class="cls-21" d="M279.3,322.83a68.87,68.87,0,0,1-7.22-9.32c-11.11-18.24,28.49-8.15,28.49-8.15l1.16,1.62C294,311.87,286.54,317.29,279.3,322.83Z"/><path class="cls-27" d="M249,211.83c-0.78,14.5-5,29.24-10.33,42.48a78.87,78.87,0,0,0,15.24-3.23,107.86,107.86,0,0,1-.16-39.13C252.18,211.89,250.58,211.85,249,211.83Z"/><path class="cls-16" d="M301.18,305.54c-10.25-12.44-30.1-37.26-30.1-37.26L273,233c-52.75,10.63-101.89-20.68-101.89-20.68-18.24,15.14.63,55.32-2.52,62.23S151,297.2,151,297.2l24.51,13.21c7.55-6.29,13.21-17,16.66-23.94,16.3,6.92,63.17-2.47,63.17-2.47a107.83,107.83,0,0,0,21.57,37.07C277.75,320.49,292.52,310.67,301.18,305.54Z"/><path class="cls-28" d="M189.05,273.62c-16.66-8.8-7.55-31.74-7.55-31.74L163.71,226.2c-3.2,18.13,7.32,43.09,4.91,48.36-3.14,6.92-17.61,22.63-17.61,22.63l24.51,13.21c6.37-5.31,13.18-16.44,16.66-23.94Z"/><path class="cls-28" d="M271.09,268.27l1.63-29.55-11.64,8.82c11,16.66-5.66,30.8-5.66,30.8L255.28,284h0.14A107.83,107.83,0,0,0,277,321.07c0.82-.56,15.58-10.39,24.24-15.52C290.93,293.09,271.09,268.27,271.09,268.27Z"/><path class="cls-29" d="M253.74,5.36a18,18,0,0,1-.55,15.38L246,7.59"/><polyline class="cls-29" points="240.91 11.9 253.19 20.74 239.35 18.35"/><path class="cls-29" d="M237.14,24.34c9.32,4.13,16.1-3.59,16.1-3.59l9.2,7.36"/><path class="cls-29" d="M68.29,140.88a18,18,0,0,1-11.19,10.57L61.21,137"/><polyline class="cls-29" points="54.57 136.55 57.12 151.45 48.93 140.04"/><path class="cls-29" d="M43.13,142.72c3.75,9.49,14,8.73,14,8.73l1.39,11.64"/><path class="cls-29" d="M351,64.9a18,18,0,0,1-12.65,8.79l6.22-13.64"/><polyline class="cls-29" points="338.03 58.55 338.33 73.68 331.94 61.17"/><path class="cls-29" d="M325.79,63c2.33,9.94,12.53,10.74,12.53,10.74l-0.37,11.77"/><path class="cls-30" d="M156.79,101.05a14.17,14.17,0,0,1-10,6.92l4.89-10.74"/><polyline class="cls-30" points="146.55 96.05 146.77 107.96 141.74 98.11"/><path class="cls-30" d="M136.91,99.53c1.8,7.84,9.87,8.45,9.87,8.45l-0.29,9.32"/><path class="cls-29" d="M427.41,161.69a18,18,0,0,1-15.39,0L424.91,154"/><polyline class="cls-29" points="420.4 149.09 412.02 161.68 413.9 147.76"/><path class="cls-29" d="M407.85,145.71c-3.81,9.48,4.16,16,4.16,16l-7,9.46"/><path class="cls-29" d="M378.38,273.26a18,18,0,0,1,1.53-15.36l6.29,13.62"/><polyline class="cls-29" points="391.59 267.53 379.9 257.93 393.57 261.19"/><path class="cls-29" d="M396.2,255.38c-9-4.73-16.3,2.56-16.3,2.56L371.19,250"/><path class="cls-29" d="M480.63,41.22a18,18,0,0,1-11.52,10.21l4.56-14.28"/><polyline class="cls-29" points="467.04 36.45 469.11 51.44 461.29 39.77"/><path class="cls-29" d="M455.39,42.26c3.49,9.61,13.72,9.18,13.72,9.18l1,11.74"/><path class="cls-1" d="M38.65,84.95s-2.9-8.71-11-8.71S4.94,78.57,4.94,78.57,27.61,104.19,38.65,84.95Z"/><path class="cls-31" d="M18.89,82.62c8,3.94,18.08,4.89,26.39,1.53"/><path class="cls-1" d="M369.3,216.89s8-4.16,13.16,1.11,12.81,16.3,12.81,16.3S362.9,237.3,369.3,216.89Z"/><path class="cls-32" d="M383.56,228c-7.85-2.42-15-8.3-17.92-16"/><path class="cls-1" d="M406,117s-4.05,5.25-9.16,3.33a120.43,120.43,0,0,1-13.65-6.93S404,101.36,406,117Z"/><path class="cls-33" d="M393,113.95a20.72,20.72,0,0,1,17,5.18"/><path class="cls-1" d="M508.82,32.3s8-4.16,13.16,1.11,12.81,16.3,12.81,16.3S502.44,52.72,508.82,32.3Z"/><path class="cls-32" d="M523.06,43.47c-7.85-2.42-15-8.3-17.92-16"/><path class="cls-1" d="M247.42,84.15s-6.6-1.4-9.62,3.75a142.34,142.34,0,0,0-7,15.22S255.45,98.26,247.42,84.15Z"/><path class="cls-34" d="M238.6,95.79a24.37,24.37,0,0,0,10.77-16.14"/><path class="cls-1" d="M344.88,14s-5.82-3.4-10.32.55a142.33,142.33,0,0,0-11.38,12.27S348.09,30,344.88,14Z"/><path class="cls-34" d="M332.86,22.34a24.37,24.37,0,0,0,15.28-11.95"/><path class="cls-1" d="M743.21,92s-6.6-1.4-9.62,3.75a142.32,142.32,0,0,0-7,15.22S751.24,106.13,743.21,92Z"/><path class="cls-34" d="M734.37,103.66a24.37,24.37,0,0,0,10.77-16.14"/><path class="cls-1" d="M113.79,188s-6.84-4.55-12.58-.09S86.5,202,86.5,202,116.53,207.64,113.79,188Z"/><path class="cls-35" d="M98.56,197.25c7.79-1.6,15.44-6.47,19.45-13.4"/><path class="cls-1" d="M698.27,166.18s-3.12-7.59-10.39-7.1-20.08,3.49-20.08,3.49S689.62,184,698.27,166.18Z"/><path class="cls-35" d="M680.52,165.32c7.35,3,16.43,3.25,23.62-.26"/><path class="cls-1" d="M185.72,18.49s6.53-6.18,11.78-2.86,13.37,11.21,13.37,11.21S182.58,39.21,185.72,18.49Z"/><path class="cls-36" d="M199.71,24.58c-7.24.08-14.28-3.25-17.82-9.48"/><path class="cls-1" d="M741.61,235.26s6.53-6.18,11.78-2.86,13.37,11.21,13.37,11.21S738.47,256,741.61,235.26Z"/><path class="cls-36" d="M755.6,241.36c-7.24.08-14.28-3.25-17.82-9.48"/></svg>