<svg id="Capa_1" data-name="Capa 1" xmlns="http://www.w3.org/2000/svg" viewBox="0 0 571.67 333.21"><defs><style>.cls-1{fill:#7a8db5;}.cls-2,.cls-29,.cls-30,.cls-31,.cls-32,.cls-33,.cls-34,.cls-35,.cls-36,.cls-4,.cls-5,.cls-6{fill:none;stroke-linecap:round;}.cls-2,.cls-31,.cls-32,.cls-33,.cls-34,.cls-35,.cls-36{stroke:#4c6691;}.cls-2,.cls-31,.cls-32,.cls-33,.cls-34,.cls-35,.cls-36,.cls-4,.cls-5,.cls-6{stroke-miterlimit:10;}.cls-2{stroke-width:1.77px;}.cls-3{fill:#77bc81;}.cls-3,.cls-6{opacity:0.35;}.cls-10,.cls-12,.cls-15,.cls-17,.cls-25,.cls-28,.cls-3,.cls-6,.cls-7{isolation:isolate;}.cls-4,.cls-5,.cls-6{stroke:#c4e3e0;}.cls-4{stroke-width:1.67px;}.cls-5,.cls-6{stroke-width:1.54px;}.cls-22,.cls-25,.cls-28,.cls-7{fill:#202d42;}.cls-7{opacity:0.15;}.cls-8{fill:#5e78a8;}.cls-9{fill:#8ccece;}.cls-10,.cls-17,.cls-18{fill:#303f5c;}.cls-10,.cls-12,.cls-25{opacity:0.2;}.cls-11,.cls-12{fill:#f8bfb7;}.cls-13{fill:#a0d5d6;}.cls-14,.cls-15{fill:#f6b3af;}.cls-15{opacity:0.4;}.cls-16{fill:#fff;}.cls-17,.cls-28{opacity:0.1;}.cls-19{fill:#b04c39;}.cls-20{fill:#fabb5b;}.cls-21{fill:#f4a199;}.cls-23{fill:#e48e88;}.cls-24{fill:#fcc234;}.cls-26{fill:#f9c9c6;}.cls-27{fill:#de7356;}.cls-29,.cls-30{stroke:#fff;stroke-linejoin:round;}.cls-29{stroke-width:0.81px;}.cls-30{stroke-width:0.64px;}.cls-31{stroke-width:1.44px;}.cls-32{stroke-width:1.36px;}.cls-34{stroke-width:1.05px;}.cls-35{stroke-width:1.28px;}.cls-36{stroke-width:1.25px;}</style></defs><title>meditacion-cel</title><path class="cls-1" d="M444.48,31.66s12.29-11-3.33-24.58C441.14,7.1,427.09,26.45,444.48,31.66Z" transform="translate(-1)"/><path class="cls-1" d="M457.61,16.9S451-2.33,476.71.23C476.73,0.28,472.35,23.4,457.61,16.9Z" transform="translate(-1)"/><path class="cls-1" d="M461,36.46s-5.72-13.7,10-19.1C471,17.33,476.8,39.31,461,36.46Z" transform="translate(-1)"/><path class="cls-1" d="M472.3,48.29s-7.93-9.55,5.82-20.31C478.11,28,484.78,49.23,472.3,48.29Z" transform="translate(-1)"/><path class="cls-1" d="M464.11,80.9s7.43-7-4.81-15.63C459.3,65.25,450.1,78,464.11,80.9Z" transform="translate(-1)"/><path class="cls-1" d="M465.1,100.78s6.84-6.95-4.58-15.49C460.53,85.29,453.89,96.41,465.1,100.78Z" transform="translate(-1)"/><path class="cls-2" d="M469.37,6s-20.69,12.86-17.93,27.55,33.14,44.05,17.42,82.6" transform="translate(-1)"/><path class="cls-2" d="M440.07,16s0.17,18.45,13.28,23.44c0,0,10.29-.22,16.27-14.07" transform="translate(-1)"/><path class="cls-2" d="M476.82,37.22s-2.42,16-15.39,15.83" transform="translate(-1)"/><path class="cls-2" d="M458.56,69.67s-0.22,9.2,13.72,15.71l9-11.63" transform="translate(-1)"/><path class="cls-2" d="M461.93,91.82s1.68,11,8.89,15.91" transform="translate(-1)"/><path class="cls-1" d="M365.73,72.82S354.24,79.76,344.66,61C344.66,61,366.5,55.79,365.73,72.82Z" transform="translate(-1)"/><path class="cls-1" d="M377,70.38S366.67,72.23,365.7,56C365.74,56,383.2,61.7,377,70.38Z" transform="translate(-1)"/><path class="cls-1" d="M365.16,82.51s-1.38-8.79-14.76-6C350.41,76.54,352.55,90.41,365.16,82.51Z" transform="translate(-1)"/><path class="cls-1" d="M374.64,101.89S373.51,93,360,97C359.95,97,364.56,109.8,374.64,101.89Z" transform="translate(-1)"/><path class="cls-1" d="M387.17,92.89s-10.42-2-1.43-16.05C385.74,76.81,396.06,90.93,387.17,92.89Z" transform="translate(-1)"/><path class="cls-1" d="M379.1,115.54s-7.46,7.56-14.15-7.7C364.95,107.84,382.39,107,379.1,115.54Z" transform="translate(-1)"/><path class="cls-1" d="M392.14,111.1s10.27,2.28,7-13.77C399.19,97.33,384.7,105.86,392.14,111.1Z" transform="translate(-1)"/><path class="cls-2" d="M351.37,63.65s54.77,26.33,32.19,86" transform="translate(-1)"/><path class="cls-2" d="M373.14,63.48s9.61,10.95,4.52,23.18c0,0-15.63-3.47-22.14-8.11" transform="translate(-1)"/><path class="cls-2" d="M366.49,99.15a47.39,47.39,0,0,0,18.81,4.68A41,41,0,0,0,386.93,86" transform="translate(-1)"/><path class="cls-2" d="M372.39,112.74s5.52,4.18,16.65,2.52l5-7.52" transform="translate(-1)"/><path class="cls-3" d="M391.92,243.23S363.12,247,340.7,232s26.67-9.6,15.47-20.27-43.2-19.2-40-33.07c4.87-21.11,24.54,11.2,32.54,1.6s-43.2-32-35.74-43.2,29.34,16,29.87,6.95-28.55-40.1-9.06-45.88c28.81-8.53,16.5,43.2,28.81,38.94S368.66,116.17,377,120c13.89,6.4-11.74,49.61,1.6,50.14s10.13-25.6,17.6-19.2-21.87,56.54-13.89,54.41,14.4-20.84,21.34-16.5S391.92,243.23,391.92,243.23Z" transform="translate(-1)"/><path class="cls-4" d="M338.59,106.68s40,116.82,46.94,131.22" transform="translate(-1)"/><polyline class="cls-4" points="327.99 148.81 358.92 168.01 374.92 130.67"/><line class="cls-4" x1="332.79" y1="188.82" x2="370.66" y2="202.15"/><polyline class="cls-4" points="343.99 227.22 380.26 228.28 398.4 203.22"/><polyline class="cls-4" points="333.32 113.08 342.39 120.01 346.12 107.74"/><path class="cls-1" d="M369.83,235.84s-14.76,1.89-15.92-13C353.91,222.87,371.86,223.83,369.83,235.84Z" transform="translate(-1)"/><path class="cls-1" d="M363.59,248.9s-1.84-11-15.43-3.72C348.12,245.17,361.35,259.4,363.59,248.9Z" transform="translate(-1)"/><path class="cls-2" d="M362.66,227.93s10.42,8.77,11.95,17.13a24,24,0,0,1-17.92,2.6" transform="translate(-1)"/><path class="cls-3" d="M468.23,145.71S447,117.93,456.32,104.43s27.57,41.26,21.26-3.28C473,69,470.89,55.91,481.05,55.8s18.07,41,24.75,14,23-39.36,31.87-33S551.35,57,525.39,81.42,543.92,82.77,551.87,95s-25.4,30.09-48.5,37.75,53.27,13.83-13.27,29.27C460.12,169,468.23,145.71,468.23,145.71Z" transform="translate(-1)"/><path class="cls-5" d="M536.82,47.12s-55.28,79.18-67.67,104.43" transform="translate(-1)"/><polyline class="cls-5" points="522.76 48.42 519.69 70.06 533.35 60.18"/><path class="cls-6" d="M529,106.76c-13,4.19-36.11,5.83-36.11,5.83l-7.77-32" transform="translate(-1)"/><polyline class="cls-5" points="536.14 98.17 527.66 107.02 541.29 106.55"/><polyline class="cls-5" points="488.18 69.49 484 81.02 478.38 68.58"/><line class="cls-5" x1="461.92" y1="115.75" x2="474.67" y2="140.44"/><line class="cls-5" x1="474.06" y1="147.82" x2="505.27" y2="149.02"/><path class="cls-3" d="M442.74,246.81s72.11-2.44,80.21-15.46-18.81-7.13-18.43-18,38.58-8.07,44.57-19.63-20.76-7.36-17.85-18.09,46.66-34.32,21.36-48.2-19.86,35.34-37.41,41-8.18-16.8-21.11-12.48-1.28,36.84-15.75,41.58S460.77,154.08,442.74,246.81Z" transform="translate(-1)"/><path class="cls-4" d="M435.89,249.2l6.85-2.39s63.48-47.52,100.27-104" transform="translate(-1)"/><polyline class="cls-4" points="537.53 135.47 537.54 150.07 549.38 143.22"/><polyline class="cls-4" points="495.36 166.06 495.14 200.36 531.12 192.84"/><polyline class="cls-4" points="461.09 199.81 459.95 232.16 506.61 229.72"/><path class="cls-1" d="M533.14,218.94s-6.45-9.55,1.52-16.65C534.63,202.3,543.05,215.95,533.14,218.94Z" transform="translate(-1)"/><path class="cls-1" d="M537,221.07s-2.2-10.66,13.14-9.33C550.17,211.74,544,228.8,537,221.07Z" transform="translate(-1)"/><path class="cls-1" d="M526.19,215.15s8.32-4.25-.31-17.77C525.88,197.38,515.35,209.24,526.19,215.15Z" transform="translate(-1)"/><path class="cls-1" d="M525.64,238.56s6.68-12.79,21.27-5.58C546.92,233,533.34,249.25,525.64,238.56Z" transform="translate(-1)"/><path class="cls-1" d="M517.19,232.56s9.64-.72-0.68-17.88C516.5,214.68,507.76,226.47,517.19,232.56Z" transform="translate(-1)"/><path class="cls-1" d="M497.3,234.62s8.86,4,12.7-11.23C510,223.41,493.39,225.23,497.3,234.62Z" transform="translate(-1)"/><path class="cls-1" d="M501.42,248.2s4.19-9,19.66-.75C521.09,247.45,507.31,261.74,501.42,248.2Z" transform="translate(-1)"/><path class="cls-2" d="M534.67,210.65s-3.47,30.21-25.7,30.52-48.18-.5-59.49,27.14" transform="translate(-1)"/><path class="cls-2" d="M526.42,205.59s-1.48,8.11,3.91,17.94c0,0,5.71-.4,12.66-6" transform="translate(-1)"/><path class="cls-2" d="M533.87,236.65s-9.55,3.4-16.37,2.6a103,103,0,0,1,.19-13.8" transform="translate(-1)"/><path class="cls-2" d="M504.86,227s-7,3.85-13,14.46c0,0,6.24,8.89,20.36,8" transform="translate(-1)"/><path class="cls-1" d="M222.08,78.68s-13.07,3.2-16.5-17.6C205.5,61.07,227.9,62.68,222.08,78.68Z" transform="translate(-1)"/><path class="cls-1" d="M233.5,79.74s-10.42-1.34-6.4-17.07C227.1,62.68,242,73.34,233.5,79.74Z" transform="translate(-1)"/><path class="cls-1" d="M218.61,87.74s1.34-8.8-12.27-10.13C206.3,77.61,204.17,91.47,218.61,87.74Z" transform="translate(-1)"/><path class="cls-1" d="M221.77,109.08s1.6-8.8-12.54-9.06C209.24,100,209.77,113.61,221.77,109.08Z" transform="translate(-1)"/><path class="cls-1" d="M236.44,104.28s-9.33-5.07,3.47-15.73C239.91,88.54,245.52,105.08,236.44,104.28Z" transform="translate(-1)"/><path class="cls-1" d="M215.86,135.36s-10.61.52-5.21-15.25C210.64,120.12,224,131.33,215.86,135.36Z" transform="translate(-1)"/><path class="cls-2" d="M211.1,65.6s44.28,41.6,4.8,91.74" transform="translate(-1)"/><path class="cls-2" d="M231.91,72s5.87,13.34-2.67,23.44c0,0-13.89-8-18.67-14.4" transform="translate(-1)"/><path class="cls-2" d="M214.84,104a47.39,47.39,0,0,0,16.5,10.13,41,41,0,0,0,6.95-16.5" transform="translate(-1)"/><path class="cls-2" d="M213.24,128a81.93,81.93,0,0,0,8.53,20.84" transform="translate(-1)"/><path class="cls-3" d="M245.87,103.08s3.53-31.26,22.35-16.83c15.14,11.62-23.84,44.28-12.42,45.15s26.4-15.27,27.78,1.49-43.41,23.32-34,33.38c2.12,2.27,8.57.42,14.38,1.46,10.18,1.82,10.84,13.79-20.45,28.75-35.9,17.21-56.11,71.42-56.11,71.42l-0.7-16.76s19.29-77.73,15.92-91,8.47-27.71,20.65-3.78c2.6,5.12,7.32-1.74,4.91-9.68-3.62-11.95-14.51-29.29-4-34.55C241.51,103.39,237.5,152.61,245.87,103.08Z" transform="translate(-1)"/><polyline class="cls-4" points="207.97 150.55 214.78 192.95 258.77 175.35"/><path class="cls-4" d="M261.38,88.54s-75.21,163.65-75.21,186.83" transform="translate(-1)"/><polyline class="cls-4" points="252.78 90.14 250.78 108.54 263.18 102.14"/><polyline class="cls-4" points="224.77 116.14 233.97 146.14 275.18 135.34"/><path class="cls-1" d="M230.82,218.33s-2.73,10.42-10.15,6C220.67,224.29,219.33,214.6,230.82,218.33Z" transform="translate(-1)"/><path class="cls-1" d="M218.39,236.29s7.76-6.08,17.47,8.84C235.86,245.13,221.68,250.08,218.39,236.29Z" transform="translate(-1)"/><path class="cls-2" d="M227.29,242.69A16.05,16.05,0,0,1,216,231.23s0.87-6.3,9.27-9.71" transform="translate(-1)"/><path class="cls-1" d="M130.29,55.47s-11.47,1.07-13.89-9.33C116.43,46.14,132.43,45.34,130.29,55.47Z" transform="translate(-1)"/><path class="cls-1" d="M134,53.07s-10.42-3.2-1.87-16C132.16,37.07,144.17,50.67,134,53.07Z" transform="translate(-1)"/><path class="cls-1" d="M123.62,59.74s0.27-9.33-15.73-8.27C107.89,51.47,113.22,66.39,123.62,59.74Z" transform="translate(-1)"/><path class="cls-1" d="M143.9,71.47s-8-12,5.33-21.33C149.23,50.14,157,69.86,143.9,71.47Z" transform="translate(-1)"/><path class="cls-1" d="M134.56,76s4-8.8-16-8C118.56,68,124.69,81.34,134.56,76Z" transform="translate(-1)"/><path class="cls-1" d="M126.83,94.41s7.74-5.87-3.73-16.5C123.1,77.87,116.7,93.31,126.83,94.41Z" transform="translate(-1)"/><path class="cls-1" d="M140.69,97.34s-5.87-8,8.8-17.6C149.5,79.74,155.37,98.68,140.69,97.34Z" transform="translate(-1)"/><path class="cls-1" d="M119.09,117.08s10.67-10.42-.27-20.53C118.82,96.54,108.42,111.21,119.09,117.08Z" transform="translate(-1)"/><path class="cls-1" d="M133.23,120.28s-7.47-8.27,6.67-14.4C139.89,105.88,142.83,125.08,133.23,120.28Z" transform="translate(-1)"/><path class="cls-2" d="M123.76,50.14s24.8,17.6,14.4,37.2-23.61,42-4.8,65.21" transform="translate(-1)"/><path class="cls-2" d="M115.36,54.94s6.4,5.21,17.6,5.21c0,0,2.4-5.21.8-14" transform="translate(-1)"/><path class="cls-2" d="M146.16,63.34s-1.6,10-5.6,15.63a103,103,0,0,1-12-6.8" transform="translate(-1)"/><path class="cls-2" d="M123.76,84.14s0,8,6.4,18.41c0,0,10.8-1.2,16.8-14" transform="translate(-1)"/><path class="cls-2" d="M117.36,106.55s0.4,13.6,6,20a24,24,0,0,0,13.21-12.37" transform="translate(-1)"/><path class="cls-1" d="M88.16,28s-3-7.67,7.74-9.33,15.2,0.53,15.2.53S97.12,37.25,88.16,28Z" transform="translate(-1)"/><path class="cls-1" d="M89.57,38.79s1.19-8.76,18-2.4C107.57,36.38,98.29,48.27,89.57,38.79Z" transform="translate(-1)"/><path class="cls-1" d="M78.37,26.55S70.2,11.79,89,9.66C89,9.66,92.59,25,78.37,26.55Z" transform="translate(-1)"/><path class="cls-1" d="M64.07,48.87s12.15-3.47-2-22C62.07,26.9,47.93,44.69,64.07,48.87Z" transform="translate(-1)"/><path class="cls-1" d="M79.07,53s-5-6.89,8-11.13C87,41.88,89.67,54.81,79.07,53Z" transform="translate(-1)"/><path class="cls-1" d="M84.09,54.3S75.52,60.86,82.51,66C82.5,66,92,63.46,84.09,54.3Z" transform="translate(-1)"/><path class="cls-1" d="M72.32,72.73s2.55-9.5-14.92-12.68C57.4,60.06,58.34,75.07,72.32,72.73Z" transform="translate(-1)"/><path class="cls-1" d="M77.27,87.64s6-8.28-11.16-13.31C66.11,74.33,63.06,89.14,77.27,87.64Z" transform="translate(-1)"/><path class="cls-1" d="M87.33,77.4S80,68.27,94.89,63.59C94.89,63.59,97.39,79.41,87.33,77.4Z" transform="translate(-1)"/><path class="cls-2" d="M99.09,22.93S72.58,30.56,72.38,53.25,92.54,80.3,78.25,107.7" transform="translate(-1)"/><path class="cls-2" d="M85.88,13.8S73,24,78.56,36.79c0,0,13.3,4.76,18.56.45" transform="translate(-1)"/><path class="cls-2" d="M60.87,35.92s-1.74,14.6,11.58,21.87c0,0,7.68-4.73,12-10.69" transform="translate(-1)"/><path class="cls-2" d="M63,67a16.05,16.05,0,0,0,15,6s5.48-3.23,5.35-12.31" transform="translate(-1)"/><path class="cls-2" d="M68.82,79.81S72.62,87,83.35,90.41c0,0,.18-10.68,6.52-17.47" transform="translate(-1)"/><path class="cls-3" d="M103.76,208.56s-12-34.41-21.2-27.57S87,201.4,79,203s-14.76-28.81-23.61-26.4,6.4,22.4.8,23.61-35.21-20.4-40-3.2c-2.89,10.42,35.21,16.4,30.8,23.21s-26.8,9.2-11.2,12.4,38-10.8,41.2-6-26.42,14.29-20.4,18.81c6.4,4.8,26-.8,39.21-4.8,16.5-5,74-.4,74-0.4Z" transform="translate(-1)"/><path class="cls-5" d="M28.7,200.34s103.85,29.42,140.24,39.38" transform="translate(-1)"/><polyline class="cls-5" points="59.42 190.15 72.49 212.82 47.95 227.75"/><polyline class="cls-5" points="31.41 194.95 38.62 203.22 32.22 205.88"/><polyline class="cls-5" points="88.22 191.48 99.96 221.09 69.29 240.02"/><path class="cls-1" d="M21.28,156.8s-7.32-3-5.49-12.2a19.1,19.1,0,0,1,8.85-12.81S29.82,154.36,21.28,156.8Z" transform="translate(-1)"/><path class="cls-2" d="M20.66,146.42S17.91,175.7,51.76,175.7s43.91,25,51.22,43.91" transform="translate(-1)"/><path class="cls-1" d="M18.54,160.45S22.65,152.64,1,143.83C1,143.83,1,164.57,18.54,160.45Z" transform="translate(-1)"/><path class="cls-1" d="M28.14,159.69s-4.58-5-1.07-8.23,9.6-4.12,9.6-4.12S39.43,162,28.14,159.69Z" transform="translate(-1)"/><path class="cls-1" d="M39.58,170.67s-11.43-4.88-.91-14.18C38.66,156.49,47.81,167.93,39.58,170.67Z" transform="translate(-1)"/><path class="cls-1" d="M33.33,175.55s-7.93-4-12.81,6.41C20.52,182,36.38,185.77,33.33,175.55Z" transform="translate(-1)"/><path class="cls-1" d="M54.33,173.28s-9.82,4.17-8.15-12.73C46.18,160.55,59.15,165.16,54.33,173.28Z" transform="translate(-1)"/><path class="cls-1" d="M51,180.43s-7.93-4.12-10.06,7.32C41,187.75,53.92,188.66,51,180.43Z" transform="translate(-1)"/><path class="cls-1" d="M74.81,177.69s-10.37-3.35-4-13.89C70.84,163.81,81.36,173.26,74.81,177.69Z" transform="translate(-1)"/><path class="cls-1" d="M74,184.54s-6.41-3.2-10.37,7C63.68,191.56,73.74,194.46,74,184.54Z" transform="translate(-1)"/><path class="cls-2" d="M9.37,153.13A36.29,36.29,0,0,0,25.23,163.8l4.27-7" transform="translate(-1)"/><polyline class="cls-2" points="27.3 177.83 38.89 174.48 37.97 165.33"/><polyline class="cls-2" points="45.6 183.02 55.96 176.31 48.75 166.95"/><polyline class="cls-2" points="71.21 169.29 75.78 182.1 69.07 187.29"/><path class="cls-3" d="M57.22,103.52S36.39,87.41,42.91,78.66s17.69-5.32,30.91,16.87C87.24,118,85.37,69.67,98.39,87.15S85.67,128,97.1,131s7.89-28.55,20-20.76c19.22,12.34-9.55,45.48,7.81,55.39,11.58,6.58,12.77-24.24,24-14.36,16.81,14.76,8,63-1.39,71.06-17.66,15.29-78.29-23.08-69.07-32.8s38.29,4.93,14.64-13.73c-7.81-6.18-46.19-12.15-35.34-23.19,9.94-10.11,28.81-.5,19.32-14s-39.87-3.13-38.9-16.5S73.89,122.89,57.22,103.52Z" transform="translate(-1)"/><path class="cls-5" d="M52.13,82.62s69.24,88,92.68,140.2" transform="translate(-1)"/><polyline class="cls-5" points="49.93 91.95 60.35 94.68 59.14 87.79"/><polyline class="cls-5" points="55.57 121.37 82.4 125.78 91.29 100.89"/><polyline class="cls-5" points="74.63 157.05 110.49 164.39 113.15 122.9"/><polyline class="cls-5" points="95.94 197.4 136.64 208 144.95 169.02"/><polygon class="cls-7" points="301.59 263.67 519.72 262.16 568.02 331.7 303.19 333.21 301.59 263.67"/><polygon class="cls-8" points="300.78 256.56 517.61 254.96 565.61 328.57 302.38 330.17 300.78 256.56"/><ellipse class="cls-7" cx="426.4" cy="292.17" rx="113.61" ry="27.6"/><path class="cls-9" d="M395.18,226.3s-74,47.24-70.86,61.42,8.4,20,21.52,22.57,94.48-13.14,94.48-13.14L434,279.31l78.74-10.5-53.83-39.36Z" transform="translate(-1)"/><path class="cls-10" d="M342.69,274.42c23.57-6.76,86.82-3.15,86.82-3.15l4.55,8,78.74-10.5L459,229.46l-63.78-3.15s-61.7,39.39-70,57C329,281.16,336.84,276.1,342.69,274.42Z" transform="translate(-1)"/><path class="cls-10" d="M461.85,231.57L459,229.45l-63.78-3.15-1.67,1.08C403.62,230.75,436.71,240.4,461.85,231.57Z" transform="translate(-1)"/><polygon class="cls-10" points="436.31 271.26 405.53 270.21 393.13 244.67 463.67 252.37 452.56 270.57 436.31 271.26"/><path class="cls-11" d="M429.47,271.29l21.7-1.74s4.55-4.2,7-4.2S476,268.82,476,268.82l16.43,0.73,3.47,1.74-61.94,8Z" transform="translate(-1)"/><path class="cls-12" d="M429.47,271.29l21.7-1.74s4.55-4.2,7-4.2S476,268.82,476,268.82l16.43,0.73,3.47,1.74-61.94,8Z" transform="translate(-1)"/><polygon class="cls-11" points="422.63 280.21 407.44 283.1 401.59 280.86 379.22 289.38 363.97 291.58 357.31 295.39 355.73 300.82 418.76 298.17 422.63 280.21"/><path class="cls-10" d="M410.36,282.74a121.07,121.07,0,0,1-7.58,16.15l17-.71,3.87-18Z" transform="translate(-1)"/><path class="cls-13" d="M512.76,268.82s7.12,6.77,9.1,8.75c11.89,11.89,9.45,29-11.89,28.69-1.78,0-101.13-7.34-101.13-7.34l4.9-21.35,97.15-10" transform="translate(-1)"/><path class="cls-14" d="M395.61,214.41c18.54,2.44,37,5.33,55.67,7,3,0.27,6,.52,9,0.76,3.47-31,21.17-82.48,14-88s-30.46-10.42-31.91-11.56-0.52-24.79-.52-24.79l-27,.87s1.47,18.89,0,23.23-33,6.69-35.9,20.35c0.95,4.45,5.21,12.74,7.27,22.1C389.77,180.71,393.36,201,395.61,214.41Z" transform="translate(-1)"/><path class="cls-15" d="M422,123c5.55-.69,14.45-1.5,19.72-5.21-0.3-7.23.2-20,.2-20l-27,.87s1.45,18.89,0,23.23c-0.21.63-1.08,1.23-2.39,1.82C415.62,123.69,418.8,123.43,422,123Z" transform="translate(-1)"/><path class="cls-16" d="M397.67,128.68s5.39,32.85-8.86,50.3l6.37,47.33s45.81,11.41,65.29,4.14c0,0,4.23-34.89,9.46-54.08,0,0-15.78-21.23-10.11-48.49l-3.56-1.53s-2.33,27.91-25.66,27.26c-25.87-.73-29-26.6-29-26.6Z" transform="translate(-1)"/><path class="cls-17" d="M454.62,169.39q-10.72,3-21.44,6.08c-13.67,3.89-27.42,7.55-41,11.64l-1.94.58,5,38.61s45.81,11.41,65.29,4.14c0,0,4.23-34.89,9.46-54.08a56.58,56.58,0,0,1-5.37-9.62C461.25,167.65,457.91,168.47,454.62,169.39Z" transform="translate(-1)"/><path class="cls-11" d="M474.3,134.2s42.32,42.74,30,63.67c-7.21,12.22-68.65-5-71.39-10.47-0.87-1.74-6.08-27.3-4.94-27.63s4.34,11.34,4.34,11.34-10-32.54,1.65-5c0,0-4.84-26.39,1-1.8,0,0,.25-20.84,3.47,12.33l-0.87-.58,40.87,5.52-9-6.55S460.75,124.72,474.3,134.2Z" transform="translate(-1)"/><path class="cls-11" d="M380.09,139.73s-27.63,49.37-20.51,61.64,66.17-10.22,68.91-15.7c0.87-1.74,3.73-25,2.6-25.3s-4.34,11.92-4.34,11.92,9.91-31-1.74-3.47c0,0,5.82-26.75-.58-2.33,0,0,2.33-22.39-3.78,10.76l0.87-.58-35.6,6.4,5.08-8.36S393.63,130.24,380.09,139.73Z" transform="translate(-1)"/><path class="cls-14" d="M445,74.86s2.5-6.12,4.47-4.28c6.22,5.83,0,16.13-3.69,16.33S445,74.86,445,74.86Z" transform="translate(-1)"/><path class="cls-14" d="M403.37,95.2s1.49-41.79,7.71-45.68c0,0,16.16-3,31.19,5.83,0,0,8.53,47.61-6,56.16S404.15,113.34,403.37,95.2Z" transform="translate(-1)"/><path class="cls-18" d="M448.44,61.63c-4,1.5-6.55-5.37-10.31-3.32,0.54,5.13,1.68,11.54,3,13-0.05,1.54-.55,9.74-0.47,15.16,0.19,13.21-.58,16.5-5.63,18.23s-1.74-5.93-2.72-10.78-19-2.92-22-1.55-0.19,11.76-2.92,11.76-4-11.6-4-11.6c-6.61,25.07,16.24,27.15,26.91,24.42s15.36-7.75,15-19C444.78,83.16,447.69,70.64,448.44,61.63Z" transform="translate(-1)"/><path class="cls-18" d="M441.89,73s-7.39-6.61-7.81-18.86A32.91,32.91,0,0,1,411.5,65.44l6-4.66s-11.29,0-15.94,10.11c0,0-7.39-27.21,20.6-32.46,0,0,14.58.19,16.91,6.42a11.9,11.9,0,0,1,12.63,2.34c6,5.44-.19,25.46-0.19,25.46s-4.66-2.34-5.21,3.11S441.89,73,441.89,73Z" transform="translate(-1)"/><path class="cls-16" d="M411.08,95.4l19.24-.58S424.29,100.64,411.08,95.4Z" transform="translate(-1)"/><path class="cls-19" d="M420.8,90.7c-1.2.18-2.4,0.29-3.6,0.39s-2.4.17-3.6,0.22h-0.72v-0.8a26.66,26.66,0,0,1,.22-2.77c0.1-.92.21-1.84,0.35-2.75s0.28-1.83.48-2.73,0.37-1.81.61-2.71,0.49-1.79.77-2.68c0.15-.44.31-0.87,0.47-1.32s0.32-.87.51-1.3,0.36-.87.58-1.28,0.43-.87.67-1.23,0.51-.79.77-1.17a11.73,11.73,0,0,1,.91-1.06c-0.19.43-.37,0.87-0.57,1.26s-0.3.87-.47,1.28l-0.36,1.29c-0.15.43-.24,0.87-0.36,1.31s-0.24.87-.34,1.31-0.22.87-.3,1.32c-0.2.87-.4,1.74-0.56,2.66s-0.36,1.74-.52,2.67l-0.49,2.68-0.92,5.42-0.69-.77c1.2,0.08,2.4.19,3.59,0.31S419.6,90.52,420.8,90.7Z" transform="translate(-1)"/><path class="cls-18" d="M424.78,73.72l0.05,0.79a16.5,16.5,0,0,0,.26,2,8.21,8.21,0,0,0,.36,1.19,2.86,2.86,0,0,0,.29.56,2.36,2.36,0,0,0,.36.49,3.27,3.27,0,0,0,.43.38,5,5,0,0,0,.54.24,4,4,0,0,0,1.26.15h0.43a1.15,1.15,0,0,0,.36-0.05,3.84,3.84,0,0,0,.58-0.16,3.72,3.72,0,0,0,1.13-.66,5.21,5.21,0,0,0,.91-1,10.42,10.42,0,0,0,.69-1.07,16.86,16.86,0,0,0,.87-1.81l0.28-.74a4.91,4.91,0,0,1,.08.8,7.82,7.82,0,0,1-.22,2.13,6.38,6.38,0,0,1-.49,1.39,5.32,5.32,0,0,1-1,1.42,3.66,3.66,0,0,1-.71.63,3.92,3.92,0,0,1-.87.49,4.45,4.45,0,0,1-1,.33,2.15,2.15,0,0,1-.47.08h-0.42a5,5,0,0,1-2-.31,4.57,4.57,0,0,1-.92-0.52,3.94,3.94,0,0,1-.69-0.76,3.19,3.19,0,0,1-.44-0.87,4.24,4.24,0,0,1-.23-0.87,5.78,5.78,0,0,1-.09-1.49,7.81,7.81,0,0,1,.43-2.09A5.21,5.21,0,0,1,424.78,73.72Z" transform="translate(-1)"/><path class="cls-18" d="M406.51,72.85l0.05,0.79a16.5,16.5,0,0,0,.26,2,8.22,8.22,0,0,0,.36,1.19,2.86,2.86,0,0,0,.29.56,2.36,2.36,0,0,0,.36.49,3.27,3.27,0,0,0,.43.38,5,5,0,0,0,.54.24,4,4,0,0,0,1.26.15h0.43a1.15,1.15,0,0,0,.36-0.05,3.83,3.83,0,0,0,.58-0.16,3.72,3.72,0,0,0,1.13-.66,5.21,5.21,0,0,0,.91-1,10.42,10.42,0,0,0,.69-1.07,16.86,16.86,0,0,0,.87-1.81l0.28-.74a4.91,4.91,0,0,1,.08.8,7.82,7.82,0,0,1-.22,2.13,6.38,6.38,0,0,1-.49,1.39,5.32,5.32,0,0,1-1,1.42,3.66,3.66,0,0,1-.71.63,3.92,3.92,0,0,1-.87.49,4.45,4.45,0,0,1-1,.33,2.15,2.15,0,0,1-.47.08h-0.42a5,5,0,0,1-2-.31,4.57,4.57,0,0,1-.92-0.52,3.94,3.94,0,0,1-.69-0.76,3.19,3.19,0,0,1-.44-0.87,4.24,4.24,0,0,1-.23-0.87,5.78,5.78,0,0,1-.09-1.49,7.81,7.81,0,0,1,.43-2.09A5.21,5.21,0,0,1,406.51,72.85Z" transform="translate(-1)"/><path class="cls-18" d="M424,68a2.14,2.14,0,0,1,.22-0.53,3.21,3.21,0,0,1,.36-0.54,4.34,4.34,0,0,1,.58-0.61,5.14,5.14,0,0,1,.82-0.56,5,5,0,0,1,1-.44,6.16,6.16,0,0,1,1.17-.25,8.34,8.34,0,0,1,1.23,0,6.83,6.83,0,0,1,1.2.21,6,6,0,0,1,1.09.39,10.05,10.05,0,0,1,.94.51c0.28,0.2.52,0.4,0.75,0.59a3.65,3.65,0,0,1,.56.58,5.73,5.73,0,0,1,.38.49,4,4,0,0,1,.3.48H434c-0.35,0-.8-0.09-1.35-0.11a6.9,6.9,0,0,1-.87-0.1c-0.32,0-.59-0.05-0.87-0.1s-0.61-.05-0.87-0.1-0.61,0-.87-0.09-0.6,0-.87-0.06a4.14,4.14,0,0,0-.87,0h-0.87a4.57,4.57,0,0,0-.79,0,8.94,8.94,0,0,0-1.28.15Z" transform="translate(-1)"/><path class="cls-18" d="M406.27,68.34a2.14,2.14,0,0,1,.22-0.53,3.21,3.21,0,0,1,.36-0.54,4.34,4.34,0,0,1,.58-0.61,5.14,5.14,0,0,1,.82-0.56,5,5,0,0,1,1-.44,6.16,6.16,0,0,1,1.17-.25,8.34,8.34,0,0,1,1.23,0,6.83,6.83,0,0,1,1.2.21A6,6,0,0,1,414,66a10.05,10.05,0,0,1,.94.51c0.28,0.2.52,0.4,0.75,0.59a3.65,3.65,0,0,1,.56.58q0.17,0.21.32,0.43a4,4,0,0,1,.3.48h-0.56c-0.35,0-.8-0.09-1.35-0.11a6.9,6.9,0,0,1-.87-0.1c-0.32,0-.59-0.05-0.87-0.1s-0.61-.05-0.87-0.1-0.61,0-.87-0.09-0.6,0-.87-0.06a4.14,4.14,0,0,0-.87,0h-0.87a4.57,4.57,0,0,0-.79,0,8.94,8.94,0,0,0-1.28.15Z" transform="translate(-1)"/><polygon class="cls-7" points="67.28 262.11 287.78 261.36 295.98 332.56 28.75 329.57 67.28 262.11"/><polygon class="cls-20" points="71.96 254.96 287.18 254.16 295.18 330.17 34.35 326.96 71.96 254.96"/><ellipse class="cls-7" cx="165.57" cy="291.77" rx="103.21" ry="27.2"/><path class="cls-18" d="M213.14,192.74c-6.7-5.27-5.74-8.85-4.58-12.71,0.43-.87,4.58-13.47-0.87-18.76-5.14-7.13-17.93-7.63-10.11-21.7,8.68-15.51,14-22.89,10.18-33.86S182,91.81,182,91.81s-11.63-11.06-22.82-1.65-2,34.84-23.4,40.94c-16.37,4.68-26.76,20.39-19.1,36.19,1.44,3.77,2.41,5.55,3.3,9.55,2.29,10.42-20.59,5.34-15.25,25.43s27,23,51.43,29.08a86.52,86.52,0,0,0,53.65-3.81C219,223.76,223.81,201.13,213.14,192.74Z" transform="translate(-1)"/><path class="cls-18" d="M179.59,90.64A20.45,20.45,0,0,0,172.86,88a14.13,14.13,0,0,0-3.58-.23,12.24,12.24,0,0,0-3.47.68,16.3,16.3,0,0,0-6,3.67A17,17,0,0,0,156.14,98c-1.74,4.45-2.5,9.28-3.75,14a43.7,43.7,0,0,1-2.43,7.08,22.09,22.09,0,0,1-4.21,6.38,19.1,19.1,0,0,1-6.36,4.34,24.15,24.15,0,0,1-3.64,1.22l-3.47,1c-1.1.41-2.18,0.77-3.26,1.25a30.66,30.66,0,0,0-3.13,1.62l-1.51.87c-0.49.33-.95,0.69-1.42,1a26.77,26.77,0,0,0-2.69,2.26,14.85,14.85,0,0,0-1.21,1.27,17.41,17.41,0,0,0-1.15,1.32,23.68,23.68,0,0,0-2,2.89,23.29,23.29,0,0,0-2.6,6.44l-0.29,1.74c0,0.29-.11.57-0.13,0.87v0.87l-0.07,1.74L113,158l0.07,0.87a5.1,5.1,0,0,0,.16.87l0.36,1.74,0.09,0.43,0.14,0.42,0.29,0.87,0.56,1.68v0.08c0.51,1.74,1.11,3.41,1.62,5.21,0.25,0.87.48,1.8,0.66,2.71,0.09,0.45.17,0.87,0.24,1.36l0.11,0.74,0.05,0.68a4.47,4.47,0,0,1,0,.77,3.47,3.47,0,0,1-.1.8,5.26,5.26,0,0,1-.55,1.49,6.34,6.34,0,0,1-2.12,2.17,27.45,27.45,0,0,1-5,2.35,31.79,31.79,0,0,0-4.84,2.24,12.75,12.75,0,0,0-2.08,1.58,9.26,9.26,0,0,0-1.63,2l-0.33.56-0.27.6a8.6,8.6,0,0,0-.44,1.24,13,13,0,0,0-.45,2.6,17.85,17.85,0,0,0,0,2.69,22.4,22.4,0,0,0,.3,2.69c-0.17-.87-0.4-1.74-0.49-2.67a17.3,17.3,0,0,1-.18-2.73,13.47,13.47,0,0,1,.32-2.73,9.14,9.14,0,0,1,.4-1.34l0.25-.65,0.32-.63a10,10,0,0,1,1.64-2.27,13.62,13.62,0,0,1,2.14-1.81,30.09,30.09,0,0,1,4.89-2.6,26.51,26.51,0,0,0,4.7-2.4,4.87,4.87,0,0,0,1.59-1.74,3.69,3.69,0,0,0,.34-1.06,2.1,2.1,0,0,0,.05-0.54,2.6,2.6,0,0,0,0-.58l-0.07-.68-0.11-.6c-0.09-.43-0.17-0.87-0.27-1.3a26.2,26.2,0,0,0-.69-2.55c-0.54-1.68-1.19-3.39-1.74-5.12v0.08c-0.42-1.19-.93-2.36-1.24-3.59l-0.43-1.86c-0.06-.31-0.16-0.62-0.19-0.94l-0.1-1-0.19-1.9v-2.87a8.54,8.54,0,0,1,.12-0.95l0.29-1.9a24.14,24.14,0,0,1,2.76-7.12,26,26,0,0,1,2.13-3.18c0.36-.52.87-1,1.24-1.45a16.74,16.74,0,0,1,1.31-1.39,29.1,29.1,0,0,1,2.9-2.47c0.51-.37,1-0.76,1.54-1.12l1.62-1a33,33,0,0,1,3.38-1.74c1.15-.5,2.4-0.92,3.59-1.35l3.56-1a21.88,21.88,0,0,0,3.31-1.09,17.66,17.66,0,0,0,5.68-3.8,20,20,0,0,0,3.91-5.72,45.2,45.2,0,0,0,2.45-6.71c0.67-2.32,1.25-4.69,1.88-7.06a48.51,48.51,0,0,1,2.34-7.06A18.23,18.23,0,0,1,159,91.09a16.89,16.89,0,0,1,6.57-3.58,13,13,0,0,1,3.72-.52,14.71,14.71,0,0,1,3.7.43A19.5,19.5,0,0,1,179.59,90.64Z" transform="translate(-1)"/><path class="cls-18" d="M179.74,90.38s-0.38-.26-1.12-0.69a21.06,21.06,0,0,0-3.33-1.59,15.16,15.16,0,0,0-5.57-1,14.54,14.54,0,0,0-6.95,1.9c-0.6.3-1.15,0.72-1.74,1.09a14.07,14.07,0,0,0-1.6,1.38,16,16,0,0,0-2.6,3.55,45.15,45.15,0,0,0-3.37,9.13c-0.94,3.29-1.78,6.76-3.11,10.18a25.39,25.39,0,0,1-5.9,9.48,20.12,20.12,0,0,1-10.05,5l-2.6.6c-0.43.1-.87,0.18-1.29,0.3l-1.22.4a19.1,19.1,0,0,0-2.4.87l-1.15.53a8.47,8.47,0,0,0-1.14.55,28.89,28.89,0,0,0-7.81,5.65l-0.82.81-0.71.87a16.62,16.62,0,0,0-1.34,1.74l-1.21,1.81-0.87,1.85a22.57,22.57,0,0,0-1.91,7.08l-0.16,1.6,0,1.49v1.38l0.29,1.22c0.14,0.78.2,1.5,0.36,2.1l0.42,1.52,0.35,1.27-0.43-1.24-0.52-1.5a20,20,0,0,1-.48-2.09l-0.25-1.25-0.15-1.41-0.16-1.5,0.08-1.63a20.84,20.84,0,0,1,.46-3.58l0.09-.48,0.14-.47,0.3-.95a13,13,0,0,1,.69-1.93l0.87-2,1.15-1.91a17.53,17.53,0,0,1,1.34-1.87l0.71-.94,0.82-.87a28.47,28.47,0,0,1,8-6.08,9.12,9.12,0,0,1,1.18-.59l1.22-.54a20.42,20.42,0,0,1,2.53-1l1.3-.43c0.43-.14.87-0.22,1.3-0.33l2.6-.62a18.59,18.59,0,0,0,9.24-4.7,23.86,23.86,0,0,0,5.58-8.9c1.28-3.31,2.21-6.72,3.19-10a42.45,42.45,0,0,1,3.71-9.31,17,17,0,0,1,3-3.72,15,15,0,0,1,1.74-1.42c0.63-.36,1.22-0.79,1.86-1.09a14.39,14.39,0,0,1,1.89-.87,13.3,13.3,0,0,1,1.89-.56,14.26,14.26,0,0,1,3.61-.31,15.63,15.63,0,0,1,5.68,1.33,19,19,0,0,1,3.26,1.81C179.37,90.09,179.74,90.38,179.74,90.38Z" transform="translate(-1)"/><path class="cls-18" d="M213.9,225.27a12.15,12.15,0,0,0,4.62-4.81,23.92,23.92,0,0,0,2.45-6.24,30.06,30.06,0,0,0,.62-3.3,30.39,30.39,0,0,0,.25-3.33,28.36,28.36,0,0,0-.1-3.33,24.68,24.68,0,0,0-.5-3.27,21.32,21.32,0,0,0-1-3.14,17.05,17.05,0,0,0-1.46-2.9,13.64,13.64,0,0,0-2-2.5,11.47,11.47,0,0,0-1.21-1l-0.67-.5-0.69-.5c-0.45-.32-0.93-0.76-1.39-1.12a10.39,10.39,0,0,1-1.28-1.27,10.27,10.27,0,0,1-2-3.12,8.37,8.37,0,0,1-.59-3.79,19.91,19.91,0,0,1,.63-3.54l0.05-.15,0.07-.21,0.08-.27c0.05-.18.1-0.37,0.15-0.56,0.1-.38.18-0.76,0.27-1.15,0.16-.77.3-1.56,0.43-2.34s0.21-1.57.26-2.36c0-.39.06-0.79,0.07-1.18s0-.79,0-1.17V167l-0.11-1.15a13.65,13.65,0,0,0-.47-2.21l-0.16-.54c-0.06-.17-0.15-0.33-0.22-0.5a5.48,5.48,0,0,0-.48-1,9.41,9.41,0,0,0-.59-0.87l-0.7-.76-0.14-.15a16.5,16.5,0,0,0-3.67-3.22c-1.39-1-2.91-1.85-4.4-2.88a13.89,13.89,0,0,1-4.08-4,8.83,8.83,0,0,1-1.14-5.79,17.72,17.72,0,0,1,1.63-5.34c0.79-1.68,1.61-3.15,2.41-4.73,1.62-3.12,3.26-6.21,4.78-9.33,0.74-1.56,1.47-3.14,2.08-4.75a31.32,31.32,0,0,0,1.47-4.9,20.45,20.45,0,0,0,.36-5,19.59,19.59,0,0,0-1-5c-0.14-.39-0.26-0.87-0.4-1.19a9.79,9.79,0,0,0-.54-1.16,8.51,8.51,0,0,0-.65-1.05l-0.36-.52-0.41-.49a18,18,0,0,0-3.9-3.33,31.32,31.32,0,0,0-4.6-2.44,48.87,48.87,0,0,0-4.91-1.85,37,37,0,0,1,9.86,3.72,18.81,18.81,0,0,1,4.25,3.26l0.47,0.49,0.43,0.54a9.5,9.5,0,0,1,.79,1.15,10.7,10.7,0,0,1,.63,1.18c0.22,0.45.33,0.87,0.5,1.28a20.91,20.91,0,0,1,1.25,5.26,21.84,21.84,0,0,1-.18,5.43,33,33,0,0,1-1.41,5.21c-0.58,1.74-1.28,3.33-2,4.95s-1.48,3.2-2.27,4.78l-2.35,4.71c-0.76,1.55-1.61,3.16-2.29,4.68a16.49,16.49,0,0,0-1.39,4.69,6.52,6.52,0,0,0,.87,4.34,11.7,11.7,0,0,0,3.47,3.26c1.4,1,2.92,1.83,4.42,2.85a18.72,18.72,0,0,1,4.1,3.77l-0.14-.15,1,1a11.53,11.53,0,0,1,.77,1.16,7.53,7.53,0,0,1,.6,1.23,7.09,7.09,0,0,1,.45,1.28,9.35,9.35,0,0,1,.32,1.29c0.07,0.43.17,0.87,0.22,1.3l0.11,1.29v2.57a7,7,0,0,1-.08,1.28c-0.06.87-.18,1.68-0.31,2.52s-0.3,1.66-.49,2.48c-0.1.41-.2,0.82-0.31,1.23-0.05.21-.11,0.41-0.18,0.63l-0.1.31-0.14.37,0.05-.15a18,18,0,0,0-.63,3.15,6.29,6.29,0,0,0,.39,2.89,8.68,8.68,0,0,0,1.63,2.6c0.32,0.41.74,0.77,1.1,1.15a9.36,9.36,0,0,0,1.23,1.06l0.67,0.52,0.68,0.55a13.27,13.27,0,0,1,1.34,1.22,15.37,15.37,0,0,1,2.16,2.87,17.54,17.54,0,0,1,1.5,3.22,22.83,22.83,0,0,1,.87,3.4,26,26,0,0,1,.4,3.47,29.59,29.59,0,0,1,0,3.47,31.88,31.88,0,0,1-1.26,6.8,24.54,24.54,0,0,1-2.86,6.26,13.7,13.7,0,0,1-2.19,2.65A9.86,9.86,0,0,1,213.9,225.27Z" transform="translate(-1)"/><path class="cls-18" d="M216.27,176.06a22.57,22.57,0,0,0,.3-2.4q0.1-1.21.12-2.42a32.67,32.67,0,0,0-.23-4.83,18.65,18.65,0,0,0-1.15-4.66c-0.16-.36-0.32-0.73-0.51-1.08a8.54,8.54,0,0,0-.63-1,7.81,7.81,0,0,0-.75-0.92,8.18,8.18,0,0,0-.87-0.79h0a22.21,22.21,0,0,0-6.22-4.12c-1.13-.58-2.27-1.15-3.36-1.86a10.82,10.82,0,0,1-2.92-2.6,8.28,8.28,0,0,1-1.48-3.72,13.89,13.89,0,0,1,.08-4,28.11,28.11,0,0,1,.87-3.79c0.37-1.22.76-2.42,1.15-3.64,0.78-2.42,1.63-4.83,2.47-7.21s1.74-4.77,2.32-7.14a19.68,19.68,0,0,0,.76-7,16.5,16.5,0,0,0-2.22-6.44l3.56-1.79a20.11,20.11,0,0,1,1.93,8.06,22.81,22.81,0,0,1-1.48,8c-0.87,2.47-1.9,4.79-2.9,7.13s-2,4.64-3,6.95c-0.47,1.16-.92,2.35-1.35,3.53a26.91,26.91,0,0,0-1,3.57,12.75,12.75,0,0,0-.21,3.61,7.28,7.28,0,0,0,1.18,3.32,10,10,0,0,0,2.6,2.51,34.52,34.52,0,0,0,3.23,1.93,22.7,22.7,0,0,1,6.25,4.41h0a8.6,8.6,0,0,1,.87.87,8.19,8.19,0,0,1,.76,1,8.9,8.9,0,0,1,.62,1.07c0.19,0.36.34,0.75,0.49,1.13a19.72,19.72,0,0,1,1.07,4.76,32.82,32.82,0,0,1,.14,4.86q-0.05,1.22-.17,2.42A22.57,22.57,0,0,1,216.27,176.06Z" transform="translate(-1)"/><path class="cls-11" d="M178.43,157.33c-7.07-1.66-14.81-2.16-6.23-21.81l-18.37-9.09s-2.48,12.21-2.67,21.7-18.3,1.61-24.58,13.76S142,187.83,142,187.83a33.23,33.23,0,0,0,12.21,2.29c6.29-.19,46.34,3.81,50.36-16.4S187.4,159.43,178.43,157.33Z" transform="translate(-1)"/><path class="cls-21" d="M169,152.4c-1.28-2.92-.76-7.89,3.15-16.87l-18.37-9.09s-2.48,12.21-2.67,21.7a5.32,5.32,0,0,1-.41,2A55.29,55.29,0,0,0,169,152.4Z" transform="translate(-1)"/><path class="cls-11" d="M186.1,95.35s-21.38-7.63-29.64,16.4,3.59,35.88,10.7,38.52c7.69,2.87,22.76,0,30-20.78C204.05,109.76,195.67,98.4,186.1,95.35Z" transform="translate(-1)"/><path class="cls-18" d="M176.27,96.11s-1.49,12.86,10.93,19.1c11.19,5.59,1.78,27.21,1.78,27.21s11.69-17.29,4.51-25.49c0,0,6.55,8.33-1.46,22.44-9.06,15.95-.44,16.09-0.44,16.09s-3.24-3.62,2.29-11.44c6.63-9.38,24.22-32.8,7.81-48.44C183.5,78.18,176.27,96.11,176.27,96.11Z" transform="translate(-1)"/><path class="cls-18" d="M182.06,91.92s-10.92-8.83-21.37,2.26c-11.82,12.59-7.25,32.23-7.25,32.23s4.13-13.16,9.85-17.36S176.52,108.32,182.06,91.92Z" transform="translate(-1)"/><path class="cls-11" d="M152.94,123.24s2.6-9.55,4.41-13.64c0,0-2.81-4.72-6.16-.19S149.25,122.62,152.94,123.24Z" transform="translate(-1)"/><path class="cls-18" d="M164.61,118.74l-0.05.79c0,0.49-.07,1.21-0.06,2a9.85,9.85,0,0,0,.06,1.32,12,12,0,0,0,.22,1.4,4.42,4.42,0,0,0,.54,1.26,2.34,2.34,0,0,0,.91.87,3.71,3.71,0,0,0,.66.23,2.18,2.18,0,0,0,.56,0,4.22,4.22,0,0,0,1.32-.31,11.07,11.07,0,0,0,1.25-.65c0.38-.25.76-0.49,1.09-0.75,0.66-.49,1.21-0.95,1.59-1.27l0.6-.51a7.37,7.37,0,0,1-.36.71,10.78,10.78,0,0,1-1.21,1.74,9.62,9.62,0,0,1-1,1c-0.19.17-.41,0.33-0.63,0.5a6.07,6.07,0,0,1-.73.45,4.75,4.75,0,0,1-1.81.57,3.47,3.47,0,0,1-1.11-.05A1.92,1.92,0,0,1,166,128l-0.2-.07h-0.24a3.89,3.89,0,0,1-1.49-1.46,5,5,0,0,1-.6-1.79,7.9,7.9,0,0,1,0-1.65,9.68,9.68,0,0,1,.22-1.42,10.9,10.9,0,0,1,.66-2A7.52,7.52,0,0,1,164.61,118.74Z" transform="translate(-1)"/><path class="cls-22" d="M165.09,112.89a3.22,3.22,0,0,1,.54-0.37,5.35,5.35,0,0,1,.67-0.34,5.82,5.82,0,0,1,.87-0.32,8.07,8.07,0,0,1,1.12-.24,9.14,9.14,0,0,1,1.28-.07,7.81,7.81,0,0,1,1.38.13,8.93,8.93,0,0,1,1.39.34,11,11,0,0,1,1.32.55,12.94,12.94,0,0,1,1.18.71,12,12,0,0,1,1,.82,6.57,6.57,0,0,1,.76.87,6.45,6.45,0,0,1,.91,1.43,5.84,5.84,0,0,1,.26.59s-0.23-.09-0.6-0.26c-0.18-.09-0.4-0.19-0.63-0.32s-0.52-.24-0.81-0.39a9.09,9.09,0,0,0-.92-0.44l-1-.46c-0.36-.13-0.71-0.3-1.08-0.44a8.55,8.55,0,0,0-1.12-.39c-0.38-.1-0.76-0.25-1.14-0.35l-1.13-.29c-0.74-.17-1.45-0.3-2.08-0.41s-1.18-.17-1.57-0.23Z" transform="translate(-1)"/><path class="cls-18" d="M191.31,131.69a8.84,8.84,0,0,1-1.18,2.34,8.74,8.74,0,0,1-.81,1,7.13,7.13,0,0,1-1.11,1,4.49,4.49,0,0,1-1.55.7,3.47,3.47,0,0,1-1.88-.1h-0.08l-0.09,0-0.16-.09a1.74,1.74,0,0,1-.36-0.23,3.14,3.14,0,0,1-.71-0.7,4.29,4.29,0,0,1-.73-1.55,6.75,6.75,0,0,1-.19-1.48,9.6,9.6,0,0,1,.72-3.83v0.71c0,0.45.05,1.09,0.13,1.83,0,0.37.1,0.76,0.17,1.18a10,10,0,0,0,.33,1.22,3.81,3.81,0,0,0,.61,1.07,2,2,0,0,0,.36.36,3.34,3.34,0,0,0,.55.3,2.1,2.1,0,0,0,1.12.09,4,4,0,0,0,1.16-.42,10.85,10.85,0,0,0,1.06-.71,8.78,8.78,0,0,0,.87-0.77c0.55-.5,1-1,1.31-1.28Z" transform="translate(-1)"/><path class="cls-22" d="M196,126.42l-0.55-.33c-0.35-.2-0.82-0.49-1.37-0.8s-1.21-.65-1.88-1c-0.35-.16-0.69-0.33-1.06-0.48l-1.1-.43c-0.37-.14-0.76-0.24-1.12-0.39s-0.76-.21-1.12-0.32l-1.08-.27c-0.35-.1-0.69-0.14-1-0.23a6.63,6.63,0,0,0-.87-0.19c-0.26,0-.49-0.1-0.69-0.14-0.39-.09-0.63-0.16-0.63-0.16a5.84,5.84,0,0,1,.57-0.3,6.45,6.45,0,0,1,1.61-.56,6.57,6.57,0,0,1,1.13-.19,10.57,10.57,0,0,1,1.28,0,12.94,12.94,0,0,1,1.37.17,11,11,0,0,1,1.38.39,8.92,8.92,0,0,1,1.3.6,7.81,7.81,0,0,1,1.15.76,9.14,9.14,0,0,1,1,.87,8.07,8.07,0,0,1,.73.87,5.82,5.82,0,0,1,.51.82,5.36,5.36,0,0,1,.31.68A3.23,3.23,0,0,1,196,126.42Z" transform="translate(-1)"/><path class="cls-23" d="M182,126.36a62.68,62.68,0,0,1-1.46,6.42c-0.58,2.11-1.23,4.21-2,6.27l-0.07.2-0.17,0c-0.76-.2-1.51-0.4-2.26-0.63a23.32,23.32,0,0,1,2.34.2l-0.25.16c0.47-2.14,1-4.26,1.68-6.36A62.66,62.66,0,0,1,182,126.36Z" transform="translate(-1)"/><path class="cls-23" d="M162.88,136l0.56,0.57a18.89,18.89,0,0,0,1.55,1.44c0.34,0.28.69,0.6,1.08,0.87s0.81,0.63,1.24.95,0.91,0.62,1.37.94a16.62,16.62,0,0,0,1.48.87,9.64,9.64,0,0,0,1.55.73,13.89,13.89,0,0,0,1.55.57,10.87,10.87,0,0,0,1.49.4,10.2,10.2,0,0,0,1.37.23l1.18,0.12H179l-0.79.16-0.92.16h-1.22a8,8,0,0,1-1.44-.1,8.78,8.78,0,0,1-1.59-.31,11.2,11.2,0,0,1-1.65-.54c-0.56-.19-1.08-0.49-1.62-0.74a11.32,11.32,0,0,1-1.53-.92,12.93,12.93,0,0,1-1.38-1,15.09,15.09,0,0,1-1.21-1.06c-0.38-.34-0.7-0.7-1-1A16.5,16.5,0,0,1,162.88,136Z" transform="translate(-1)"/><path class="cls-14" d="M202.18,238.92s36.39,26.91,44.21,39.26S201,292.36,201,292.36l-22.26-22.73Z" transform="translate(-1)"/><path class="cls-14" d="M182.14,269.85L147.3,226s-57.56,41.92-63.65,54.31C102.8,266,182.14,269.85,182.14,269.85Z" transform="translate(-1)"/><path class="cls-21" d="M204.35,240.55l-2.17-1.63-23.44,30.7,3.89,4C188.07,261.62,197.53,251.83,204.35,240.55Z" transform="translate(-1)"/><path class="cls-21" d="M147.34,226s-12.38,9-26.26,19.93c10.54,6,19.72,13.61,26.44,23.62,19-.4,34.67.35,34.67,0.35Z" transform="translate(-1)"/><path class="cls-24" d="M142.66,206.81l3,18.52s-19.92,15-24.14,19.68c0,0,23.44,14.06,31.87,30l25.31-.47s15.46-25.31,23.44-35.6l-15-13.14,6.56-23S147.81,197.45,142.66,206.81Z" transform="translate(-1)"/><path class="cls-25" d="M190.94,212.61l2.8-9.78s-48.74.47-53.9,9.85l1,6.14C157.83,218.61,174.68,217.46,190.94,212.61Z" transform="translate(-1)"/><path class="cls-25" d="M167.25,252.11c-8.68,1.15-18.28,3.18-26,7.87,4.79,4.48,9.35,9.65,12.15,15l25.31-.47s7.33-12,14.49-22.82A114.89,114.89,0,0,0,167.25,252.11Z" transform="translate(-1)"/><path class="cls-11" d="M221.16,269.62s-7.89-3.67-12.74-2.42-15.15-3.47-19.84-1.74-6.41,4.34-6.41,4.34h0S102.8,266,83.69,280.22a6.15,6.15,0,0,0-.4,1c-3.13,10.94-5,23.75,16.87,25.93s118.58-29.79,122.49-34S221.16,269.62,221.16,269.62Z" transform="translate(-1)"/><path class="cls-26" d="M108.34,287.78s7.23-4.84,12.22-4.34,14.45-5.72,19.34-4.74,7,3.34,7,3.34h0s77.85-15.95,98.92-4.8a6.15,6.15,0,0,1,.55.93c4.77,10.33,8.58,22.7-12.7,28.22S111.92,295.1,107.42,291.5,108.34,287.78,108.34,287.78Z" transform="translate(-1)"/><path class="cls-11" d="M113.55,221.58s-9.06,13.13-15.31,21.24-17.57,25.31-17.57,25.31S70,265,69,275.79c0,0-.55,1.09.7,0.94s2.5-6.56,5.78-4.34,0.16,4.69-1.25,4.84-4.06-3.28-4.69-2.34,1.41,5.94,7.11,4a9.82,9.82,0,0,1-7.66-.31c-6.08-2.6-3.54,1.06,2.73,3.2a10.42,10.42,0,0,0,6.08.31,29.23,29.23,0,0,1-9.77-.94c-4.53-1.41,1.8,5.94,11.29,2.11,0,0-13,2.11-8.28,2.27s12.66,0,15.46-12c0,0,40-32.18,48.27-45.77S113.55,221.58,113.55,221.58Z" transform="translate(-1)"/><path class="cls-21" d="M129.47,234.6a51.35,51.35,0,0,0,5.38-6.95c8.28-13.6-21.24-6.08-21.24-6.08l-0.87,1.21C118.54,226.43,124.06,230.43,129.47,234.6Z" transform="translate(-1)"/><path class="cls-11" d="M225.11,227.67s9.06,13.13,15.31,21.24S258,274.22,258,274.22s10.63-3.13,11.72,7.66c0,0,.55,1.09-0.7.94s-2.5-6.56-5.78-4.34-0.16,4.69,1.25,4.84,4.06-3.28,4.69-2.34-1.41,5.94-7.11,4a9.82,9.82,0,0,0,7.66-.31c6.08-2.6,3.54,1.06-2.73,3.2a10.42,10.42,0,0,1-6.08.31,29.23,29.23,0,0,0,9.77-.94c4.53-1.41-1.8,5.94-11.29,2.11,0,0,13,2.11,8.28,2.27s-12.66,0-15.46-12c0,0-40-32.18-48.27-45.77S225.11,227.67,225.11,227.67Z" transform="translate(-1)"/><path class="cls-21" d="M209.24,240.69a51.35,51.35,0,0,1-5.38-6.95c-8.28-13.6,21.24-6.08,21.24-6.08l0.87,1.21C220.17,232.52,214.64,236.56,209.24,240.69Z" transform="translate(-1)"/><path class="cls-27" d="M186.66,157.93c-0.58,10.81-3.74,21.8-7.7,31.67a58.8,58.8,0,0,0,11.36-2.4,80.41,80.41,0,0,1-.12-29.17C189,158,187.83,158,186.66,157.93Z" transform="translate(-1)"/><path class="cls-16" d="M225.55,227.8c-7.64-9.27-22.44-27.78-22.44-27.78l1.45-26.29c-39.33,7.93-76-15.42-76-15.42-13.6,11.29.47,41.25-1.88,46.4s-13.16,16.88-13.16,16.88l18.28,9.85c5.63-4.69,9.85-12.66,12.42-17.85,12.15,5.16,47.1-1.84,47.1-1.84a80.4,80.4,0,0,0,16.08,27.63C208.08,238.95,219.09,231.63,225.55,227.8Z" transform="translate(-1)"/><path class="cls-28" d="M142,204c-12.42-6.56-5.63-23.67-5.63-23.67l-13.27-11.69c-2.39,13.52,5.46,32.12,3.66,36.06-2.34,5.16-13.13,16.87-13.13,16.87l18.28,9.85c4.75-4,9.83-12.26,12.42-17.85Z" transform="translate(-1)"/><path class="cls-28" d="M203.12,200l1.22-22-8.68,6.57c8.2,12.42-4.22,23-4.22,23l-0.1,4.23h0.1a80.4,80.4,0,0,0,16.08,27.63c0.61-.42,11.62-7.74,18.08-11.57C217.91,218.52,203.12,200,203.12,200Z" transform="translate(-1)"/><path class="cls-29" d="M190.18,4a13.42,13.42,0,0,1-.41,11.47l-5.36-9.8" transform="translate(-1)"/><polyline class="cls-29" points="179.61 8.87 188.77 15.46 178.45 13.68"/><path class="cls-29" d="M177.8,18.15c6.95,3.08,12-2.67,12-2.67L196.67,21" transform="translate(-1)"/><path class="cls-29" d="M51.91,105a13.42,13.42,0,0,1-8.34,7.88l3.06-10.75" transform="translate(-1)"/><polyline class="cls-29" points="40.68 101.81 42.59 112.92 36.48 104.41"/><path class="cls-29" d="M33.16,106.41c2.8,7.08,10.42,6.51,10.42,6.51l1,8.68" transform="translate(-1)"/><path class="cls-29" d="M262.67,48.39a13.42,13.42,0,0,1-9.43,6.55l4.64-10.17" transform="translate(-1)"/><polyline class="cls-29" points="252.02 43.65 252.25 54.93 247.48 45.61"/><path class="cls-29" d="M243.9,46.94c1.74,7.41,9.34,8,9.34,8L253,63.72" transform="translate(-1)"/><path class="cls-30" d="M117.89,75.34a10.57,10.57,0,0,1-7.42,5.16l3.65-8" transform="translate(-1)"/><polyline class="cls-30" points="109.26 71.61 109.43 80.49 105.68 73.15"/><path class="cls-30" d="M103.07,74.21c1.35,5.84,7.36,6.3,7.36,6.3l-0.22,6.95" transform="translate(-1)"/><path class="cls-29" d="M319.66,120.55a13.42,13.42,0,0,1-11.48,0l9.61-5.7" transform="translate(-1)"/><polyline class="cls-29" points="313.44 111.16 307.19 120.54 308.59 110.17"/><path class="cls-29" d="M305.08,108.64c-2.84,7.07,3.1,11.9,3.1,11.9l-5.21,7" transform="translate(-1)"/><path class="cls-29" d="M283.1,203.73a13.42,13.42,0,0,1,1.14-11.45l4.69,10.16" transform="translate(-1)"/><polyline class="cls-29" points="291.96 199.46 283.24 192.31 293.43 194.74"/><path class="cls-29" d="M296.4,190.4c-6.75-3.52-12.15,1.91-12.15,1.91l-6.49-5.91" transform="translate(-1)"/><path class="cls-29" d="M359.34,30.73a13.42,13.42,0,0,1-8.59,7.61l3.4-10.64" transform="translate(-1)"/><polyline class="cls-29" points="348.21 27.18 349.75 38.35 343.92 29.65"/><path class="cls-29" d="M340.53,31.51c2.6,7.16,10.23,6.84,10.23,6.84l0.76,8.75" transform="translate(-1)"/><path class="cls-1" d="M29.82,63.34s-2.16-6.49-8.23-6.49-16.9,1.74-16.9,1.74S21.58,77.68,29.82,63.34Z" transform="translate(-1)"/><path class="cls-31" d="M15.08,61.6c5.95,2.93,13.48,3.65,19.67,1.14" transform="translate(-1)"/><path class="cls-1" d="M276.34,161.7s5.94-3.1,9.81.82,9.55,12.15,9.55,12.15S271.57,176.92,276.34,161.7Z" transform="translate(-1)"/><path class="cls-32" d="M287,170c-5.85-1.81-11.17-6.19-13.36-11.93" transform="translate(-1)"/><path class="cls-1" d="M303.69,87.23s-3,3.92-6.83,2.48a89.79,89.79,0,0,1-10.18-5.17S302.2,75.57,303.69,87.23Z" transform="translate(-1)"/><path class="cls-33" d="M294,85a15.45,15.45,0,0,1,12.65,3.86" transform="translate(-1)"/><path class="cls-1" d="M380.36,24.08s5.94-3.1,9.81.82,9.55,12.15,9.55,12.15S375.6,39.3,380.36,24.08Z" transform="translate(-1)"/><path class="cls-32" d="M391,32.41c-5.85-1.81-11.17-6.19-13.36-11.93" transform="translate(-1)"/><path class="cls-1" d="M185.47,62.74s-4.92-1-7.17,2.8a106.13,106.13,0,0,0-5.21,11.35S191.46,73.26,185.47,62.74Z" transform="translate(-1)"/><path class="cls-34" d="M178.89,71.42a18.17,18.17,0,0,0,8-12" transform="translate(-1)"/><path class="cls-1" d="M258.13,10.46s-4.34-2.54-7.69.41A106.12,106.12,0,0,0,242,20S260.52,22.34,258.13,10.46Z" transform="translate(-1)"/><path class="cls-34" d="M249.17,16.65a18.17,18.17,0,0,0,11.39-8.91" transform="translate(-1)"/><path class="cls-1" d="M555.11,68.6s-4.92-1-7.17,2.8a106.11,106.11,0,0,0-5.21,11.35S561.1,79.13,555.11,68.6Z" transform="translate(-1)"/><path class="cls-34" d="M548.52,77.29a18.17,18.17,0,0,0,8-12" transform="translate(-1)"/><path class="cls-1" d="M85.84,140.19s-5.1-3.39-9.38-.07a129.08,129.08,0,0,0-11,10.49S87.88,154.81,85.84,140.19Z" transform="translate(-1)"/><path class="cls-35" d="M74.48,147.06c5.81-1.19,11.51-4.83,14.5-10" transform="translate(-1)"/><path class="cls-1" d="M521.61,123.9s-2.33-5.66-7.74-5.3-15,2.6-15,2.6S515.16,137.16,521.61,123.9Z" transform="translate(-1)"/><path class="cls-35" d="M508.37,123.26c5.48,2.26,12.25,2.42,17.61-.19" transform="translate(-1)"/><path class="cls-1" d="M139.47,13.79s4.87-4.61,8.79-2.14,10,8.36,10,8.36S137.12,29.23,139.47,13.79Z" transform="translate(-1)"/><path class="cls-36" d="M149.9,18.33c-5.4.06-10.64-2.42-13.28-7.07" transform="translate(-1)"/><path class="cls-1" d="M553.92,175.4s4.87-4.61,8.79-2.14,10,8.36,10,8.36S551.58,190.85,553.92,175.4Z" transform="translate(-1)"/><path class="cls-36" d="M564.35,180c-5.4.06-10.64-2.42-13.28-7.07" transform="translate(-1)"/></svg>