<svg id="Capa_1" data-name="Capa 1" xmlns="http://www.w3.org/2000/svg" viewBox="0 0 1071.69 624.66"><defs><style>.cls-1{fill:#7a8db5;}.cls-2,.cls-29,.cls-30,.cls-31,.cls-32,.cls-33,.cls-34,.cls-35,.cls-36,.cls-4,.cls-5,.cls-6{fill:none;stroke-linecap:round;}.cls-2,.cls-31,.cls-32,.cls-33,.cls-34,.cls-35,.cls-36{stroke:#4c6691;}.cls-2,.cls-31,.cls-32,.cls-33,.cls-34,.cls-35,.cls-36,.cls-4,.cls-5,.cls-6{stroke-miterlimit:10;}.cls-2{stroke-width:1.77px;}.cls-3{fill:#77bc81;}.cls-3,.cls-6{opacity:0.35;}.cls-10,.cls-12,.cls-15,.cls-17,.cls-25,.cls-28,.cls-3,.cls-6,.cls-7{isolation:isolate;}.cls-4,.cls-5,.cls-6{stroke:#c4e3e0;}.cls-4{stroke-width:1.67px;}.cls-5,.cls-6{stroke-width:1.54px;}.cls-22,.cls-25,.cls-28,.cls-7{fill:#202d42;}.cls-7{opacity:0.15;}.cls-8{fill:#5e78a8;}.cls-9{fill:#8ccece;}.cls-10,.cls-17,.cls-18{fill:#303f5c;}.cls-10,.cls-12,.cls-25{opacity:0.2;}.cls-11,.cls-12{fill:#f8bfb7;}.cls-13{fill:#a0d5d6;}.cls-14,.cls-15{fill:#f6b3af;}.cls-15{opacity:0.4;}.cls-16{fill:#fff;}.cls-17,.cls-28{opacity:0.1;}.cls-19{fill:#b04c39;}.cls-20{fill:#fabb5b;}.cls-21{fill:#f4a199;}.cls-23{fill:#e48e88;}.cls-24{fill:#fcc234;}.cls-26{fill:#f9c9c6;}.cls-27{fill:#de7356;}.cls-29,.cls-30{stroke:#fff;stroke-linejoin:round;}.cls-29{stroke-width:0.81px;}.cls-30{stroke-width:0.64px;}.cls-31{stroke-width:1.44px;}.cls-32{stroke-width:1.36px;}.cls-34{stroke-width:1.05px;}.cls-35{stroke-width:1.28px;}.cls-36{stroke-width:1.25px;}</style></defs><title>meditacion</title><path class="cls-1" d="M831.38,59.3s23-20.57-6.25-46.08C825.12,13.25,798.78,49.53,831.38,59.3Z" transform="translate(0 0.06)"/><path class="cls-1" d="M856,31.63S843.69-4.42,891.8.38C891.83,0.46,883.63,43.8,856,31.63Z" transform="translate(0 0.06)"/><path class="cls-1" d="M862.32,68.28S851.6,42.6,881.14,32.48C881.14,32.43,892,73.64,862.32,68.28Z" transform="translate(0 0.06)"/><path class="cls-1" d="M883.53,90.47s-14.86-17.9,10.9-38.07C894.42,52.4,906.92,92.22,883.53,90.47Z" transform="translate(0 0.06)"/><path class="cls-1" d="M868.17,151.6s13.93-13.12-9-29.3C859.15,122.25,841.91,146.11,868.17,151.6Z" transform="translate(0 0.06)"/><path class="cls-1" d="M870,188.87s12.83-13-8.59-29C861.46,159.83,849,180.68,870,188.87Z" transform="translate(0 0.06)"/><path class="cls-2" d="M878,11.16s-38.79,24.1-33.61,51.64,62.12,82.58,32.67,154.85" transform="translate(0 0.06)"/><path class="cls-2" d="M823.1,29.87s0.33,34.59,24.9,43.94c0,0,19.29-.41,30.5-26.38" transform="translate(0 0.06)"/><path class="cls-2" d="M892,69.72s-4.54,30-28.86,29.67" transform="translate(0 0.06)"/><path class="cls-2" d="M857.77,130.55s-0.41,17.25,25.72,29.46l16.91-21.79" transform="translate(0 0.06)"/><path class="cls-2" d="M864.08,172.07s3.16,20.69,16.67,29.83" transform="translate(0 0.06)"/><path class="cls-1" d="M683.75,136.45s-21.55,13-39.5-22.14C644.24,114.31,685.19,104.53,683.75,136.45Z" transform="translate(0 0.06)"/><path class="cls-1" d="M704.85,131.87S685.5,135.36,683.7,105C683.76,105,716.49,115.61,704.85,131.87Z" transform="translate(0 0.06)"/><path class="cls-1" d="M682.67,154.61s-2.59-16.49-27.67-11.18C655,143.43,659,169.42,682.67,154.61Z" transform="translate(0 0.06)"/><path class="cls-1" d="M700.44,191s-2.12-16.63-27.52-9.13C672.91,181.82,681.55,205.78,700.44,191Z" transform="translate(0 0.06)"/><path class="cls-1" d="M723.95,174.08s-19.53-3.79-2.69-30.09C721.26,143.93,740.61,170.4,723.95,174.08Z" transform="translate(0 0.06)"/><path class="cls-1" d="M708.81,216.54s-14,14.18-26.53-14.44C682.28,202.1,715,200.62,708.81,216.54Z" transform="translate(0 0.06)"/><path class="cls-1" d="M733.26,208.21s19.25,4.28,13.17-25.81C746.47,182.41,719.31,198.39,733.26,208.21Z" transform="translate(0 0.06)"/><path class="cls-2" d="M656.82,119.26s102.67,49.36,60.35,161.29" transform="translate(0 0.06)"/><path class="cls-2" d="M697.64,118.95s18,20.52,8.48,43.46c0,0-29.3-6.51-41.5-15.2" transform="translate(0 0.06)"/><path class="cls-2" d="M685.18,185.81a88.85,88.85,0,0,0,35.25,8.77,76.77,76.77,0,0,0,3.06-33.48" transform="translate(0 0.06)"/><path class="cls-2" d="M696.23,211.3s10.35,7.84,31.22,4.72l9.41-14.09" transform="translate(0 0.06)"/><path class="cls-3" d="M732.85,455.91s-54,7-96-21,50-18,29-38-81-36-75-62c9.13-39.57,46,21,61,3s-81-60-67-81,55,30,56,13-53.51-75.18-17-86c54-16,30.92,81,54,73s11.39-39.22,27-32c26,12-22,93,3,94s19-48,33-36-41,106-26,102,27-39.06,40-30.92S732.85,455.91,732.85,455.91Z" transform="translate(0 0.06)"/><path class="cls-4" d="M632.87,199.92s75,219,88,246" transform="translate(0 0.06)"/><polyline class="cls-4" points="614.87 278.97 672.86 314.97 702.85 244.97"/><line class="cls-4" x1="623.87" y1="353.97" x2="694.86" y2="378.97"/><polyline class="cls-4" points="644.86 425.97 712.86 427.96 746.86 380.97"/><polyline class="cls-4" points="624.86 211.98 641.87 224.98 648.87 201.98"/><path class="cls-1" d="M691.43,442.06s-27.67,3.55-29.85-24.32C661.58,417.74,695.24,419.55,691.43,442.06Z" transform="translate(0 0.06)"/><path class="cls-1" d="M679.74,466.54s-3.45-20.61-28.92-7C650.74,459.55,675.53,486.23,679.74,466.54Z" transform="translate(0 0.06)"/><path class="cls-2" d="M678,427.23s19.53,16.44,22.4,32.11a44.94,44.94,0,0,1-33.59,4.88" transform="translate(0 0.06)"/><path class="cls-3" d="M875.9,273.1S836.17,221,853.57,195.71s51.69,77.34,39.86-6.15c-8.53-60.22-12.53-84.8,6.51-85s33.87,76.82,46.4,26.19S989.52,57,1006.09,68.89s25.63,38-23,83.69c-48.92,45.93,34.73,2.54,49.64,25.54s-47.62,56.41-90.92,70.77,99.87,25.93-24.87,54.87C860.7,316.78,875.9,273.1,875.9,273.1Z" transform="translate(0 0.06)"/><path class="cls-5" d="M1004.48,88.27S900.85,236.7,877.62,284" transform="translate(0 0.06)"/><polyline class="cls-5" points="980 90.77 974.24 131.33 999.85 112.82"/><path class="cls-6" d="M989.78,200.08c-24.3,7.86-67.69,10.94-67.69,10.94l-14.57-59.94" transform="translate(0 0.06)"/><polyline class="cls-5" points="1005.08 184.03 989.18 200.63 1014.75 199.74"/><polyline class="cls-5" points="915.17 130.27 907.34 151.89 896.79 128.56"/><line class="cls-5" x1="865.95" y1="216.99" x2="889.85" y2="263.28"/><line class="cls-5" x1="888.71" y1="277.11" x2="947.2" y2="279.36"/><path class="cls-3" d="M828.11,462.63s135.19-4.57,150.37-29-35.25-13.36-34.55-33.76,72.33-15.12,83.56-36.8-38.92-13.8-33.46-33.92,87.47-64.34,40-90.36-37.22,66.26-70.13,76.77-15.33-31.49-39.57-23.39-2.41,69.06-29.52,77.94S861.92,288.79,828.11,462.63Z" transform="translate(0 0.06)"/><path class="cls-4" d="M815.27,467.1l12.84-4.48s119-89.08,188-195" transform="translate(0 0.06)"/><polyline class="cls-4" points="1007.68 253.95 1007.71 281.33 1029.9 268.49"/><polyline class="cls-4" points="928.63 311.31 928.22 375.61 995.67 361.52"/><polyline class="cls-4" points="864.39 374.57 862.26 435.23 949.72 430.64"/><path class="cls-1" d="M997.57,410.38s-12.09-17.9,2.85-31.22C1000.37,379.18,1016.16,404.77,997.57,410.38Z" transform="translate(0 0.06)"/><path class="cls-1" d="M1004.88,414.37s-4.12-20,24.63-17.5C1029.51,396.87,1018,428.86,1004.88,414.37Z" transform="translate(0 0.06)"/><path class="cls-1" d="M984.55,403.27s15.59-8-.59-33.32C984,370,964.23,392.19,984.55,403.27Z" transform="translate(0 0.06)"/><path class="cls-1" d="M983.53,447.17s12.52-24,39.88-10.47C1023.42,436.7,997.95,467.2,983.53,447.17Z" transform="translate(0 0.06)"/><path class="cls-1" d="M967.68,435.92s18.07-1.35-1.27-33.51C966.39,402.39,950,424.49,967.68,435.92Z" transform="translate(0 0.06)"/><path class="cls-1" d="M930.39,439.78s16.62,7.42,23.81-21C954.26,418.75,923.06,422.17,930.39,439.78Z" transform="translate(0 0.06)"/><path class="cls-1" d="M938.12,465.23s7.86-16.86,36.86-1.4C975,463.83,949.15,490.61,938.12,465.23Z" transform="translate(0 0.06)"/><path class="cls-2" d="M1000.46,394.84s-6.51,56.64-48.18,57.21-90.31-.94-111.52,50.88" transform="translate(0 0.06)"/><path class="cls-2" d="M985,385.35s-2.78,15.2,7.32,33.63c0,0,10.71-.75,23.73-11.31" transform="translate(0 0.06)"/><path class="cls-2" d="M998.94,443.57s-17.9,6.38-30.7,4.88a193.18,193.18,0,0,1,.36-25.86" transform="translate(0 0.06)"/><path class="cls-2" d="M944.56,425.5s-13.15,7.21-24.41,27.12c0,0,11.7,16.67,38.17,15" transform="translate(0 0.06)"/><path class="cls-1" d="M414.45,147.43s-24.5,6-30.92-33C383.38,114.43,425.37,117.44,414.45,147.43Z" transform="translate(0 0.06)"/><path class="cls-1" d="M435.87,149.43s-19.53-2.51-12-32C423.87,117.44,451.88,137.42,435.87,149.43Z" transform="translate(0 0.06)"/><path class="cls-1" d="M407.94,164.42s2.51-16.5-23-19C384.87,145.43,380.87,171.42,407.94,164.42Z" transform="translate(0 0.06)"/><path class="cls-1" d="M413.88,204.43s3-16.5-23.5-17C390.37,187.42,391.37,212.93,413.88,204.43Z" transform="translate(0 0.06)"/><path class="cls-1" d="M441.37,195.43s-17.5-9.51,6.51-29.49C447.88,165.92,458.39,196.93,441.37,195.43Z" transform="translate(0 0.06)"/><path class="cls-1" d="M402.79,253.7s-19.89,1-9.77-28.58C393,225.12,418.09,246.14,402.79,253.7Z" transform="translate(0 0.06)"/><path class="cls-2" d="M393.87,122.92s83,78,9,172" transform="translate(0 0.06)"/><path class="cls-2" d="M432.87,134.93s11,25-5,43.94c0,0-26-15-35-27" transform="translate(0 0.06)"/><path class="cls-2" d="M400.87,194.93a88.85,88.85,0,0,0,30.92,19,76.77,76.77,0,0,0,13-30.92" transform="translate(0 0.06)"/><path class="cls-2" d="M397.88,240a153.59,153.59,0,0,0,16,39.06" transform="translate(0 0.06)"/><path class="cls-3" d="M459,193.18s6.62-58.59,41.89-31.54c28.38,21.78-44.69,83-23.29,84.63s49.49-28.63,52.08,2.8-81.38,43.72-63.8,62.58c4,4.25,16.06.78,27,2.73,19.09,3.42,20.33,25.85-38.35,53.91-67.3,32.26-105.19,133.88-105.19,133.88L348,470.77S384.19,325,377.87,300.18s15.89-52,38.72-7.08c4.88,9.6,13.72-3.26,9.21-18.15-6.79-22.4-27.2-54.91-7.57-64.78C450.87,193.75,443.35,286,459,193.18Z" transform="translate(0 0.06)"/><polyline class="cls-4" points="389.87 282.22 402.63 361.71 485.12 328.72"/><path class="cls-4" d="M488.13,165.92s-141,306.78-141,350.24" transform="translate(0 0.06)"/><polyline class="cls-4" points="473.87 168.98 470.13 203.48 493.37 191.47"/><polyline class="cls-4" points="421.36 217.72 438.62 273.97 515.86 253.72"/><path class="cls-1" d="M430.84,409.23s-5.11,19.53-19,11.23C411.81,420.41,409.29,402.25,430.84,409.23Z" transform="translate(0 0.06)"/><path class="cls-1" d="M407.53,442.9s14.55-11.39,32.75,16.57C440.28,459.47,413.7,468.76,407.53,442.9Z" transform="translate(0 0.06)"/><path class="cls-2" d="M424.21,454.9a30.09,30.09,0,0,1-21.16-21.48s1.63-11.82,17.38-18.2" transform="translate(0 0.06)"/><path class="cls-1" d="M242.38,103.93s-21.5,2-26-17.5C216.39,86.43,246.38,84.93,242.38,103.93Z" transform="translate(0 0.06)"/><path class="cls-1" d="M249.38,99.44s-19.53-6-3.5-30C245.88,69.44,268.39,94.93,249.38,99.44Z" transform="translate(0 0.06)"/><path class="cls-1" d="M229.88,111.93s0.5-17.5-29.49-15.49C200.39,96.42,210.38,124.4,229.88,111.93Z" transform="translate(0 0.06)"/><path class="cls-1" d="M267.88,133.92s-15-22.54,10-40C277.88,93.93,292.38,130.91,267.88,133.92Z" transform="translate(0 0.06)"/><path class="cls-1" d="M250.39,142.42s7.5-16.5-30-15C220.39,127.43,231.88,152.43,250.39,142.42Z" transform="translate(0 0.06)"/><path class="cls-1" d="M235.88,176.92s14.5-11-7-30.92C228.9,145.92,216.89,174.86,235.88,176.92Z" transform="translate(0 0.06)"/><path class="cls-1" d="M261.88,182.43s-11-15,16.5-33C278.38,149.43,289.38,184.93,261.88,182.43Z" transform="translate(0 0.06)"/><path class="cls-1" d="M221.38,219.42s20-19.53-.5-38.49C220.88,180.93,201.38,208.42,221.38,219.42Z" transform="translate(0 0.06)"/><path class="cls-1" d="M247.88,225.43s-14-15.49,12.5-27C260.38,198.42,265.88,234.43,247.88,225.43Z" transform="translate(0 0.06)"/><path class="cls-2" d="M230.14,93.93s46.5,33,27,69.74-44.25,78.74-9,122.25" transform="translate(0 0.06)"/><path class="cls-2" d="M214.38,102.93s12,9.77,33,9.77c0,0,4.49-9.77,1.5-26.25" transform="translate(0 0.06)"/><path class="cls-2" d="M272.13,118.67s-3,18.75-10.5,29.3a193.16,193.16,0,0,1-22.49-12.74" transform="translate(0 0.06)"/><path class="cls-2" d="M230.14,157.67s0,15,12,34.5c0,0,20.25-2.25,31.49-26.25" transform="translate(0 0.06)"/><path class="cls-2" d="M218.13,199.68s0.75,25.5,11.25,37.43a44.94,44.94,0,0,0,24.76-23.19" transform="translate(0 0.06)"/><path class="cls-1" d="M163.39,52.43s-5.66-14.39,14.5-17.5,28.5,1,28.5,1S180.19,69.78,163.39,52.43Z" transform="translate(0 0.06)"/><path class="cls-1" d="M166,72.66s2.23-16.42,33.72-4.51C199.79,68.14,182.39,90.43,166,72.66Z" transform="translate(0 0.06)"/><path class="cls-1" d="M145,49.71S129.73,22,165,18.06C165,18.06,171.69,46.88,145,49.71Z" transform="translate(0 0.06)"/><path class="cls-1" d="M118.23,91.56S141,85,114.55,50.36C114.48,50.36,88,83.71,118.23,91.56Z" transform="translate(0 0.06)"/><path class="cls-1" d="M146.35,99.32s-9.44-12.92,14.94-20.87C161.29,78.46,166.22,102.69,146.35,99.32Z" transform="translate(0 0.06)"/><path class="cls-1" d="M155.76,101.73s-16.06,12.3-3,21.89C152.78,123.62,170.5,118.9,155.76,101.73Z" transform="translate(0 0.06)"/><path class="cls-1" d="M133.71,136.28s4.79-17.81-28-23.76C105.73,112.54,107.5,140.68,133.71,136.28Z" transform="translate(0 0.06)"/><path class="cls-1" d="M143,164.23s11.2-15.53-20.91-25C122.07,139.28,116.34,167,143,164.23Z" transform="translate(0 0.06)"/><path class="cls-1" d="M161.85,145S148.09,127.92,176,119.15C176,119.15,180.69,148.82,161.85,145Z" transform="translate(0 0.06)"/><path class="cls-2" d="M183.88,42.93s-49.69,14.31-50.06,56.83,37.79,50.72,11,102.08" transform="translate(0 0.06)"/><path class="cls-2" d="M159.11,25.8s-24.17,19.14-13.72,43.11c0,0,24.93,8.92,34.8.85" transform="translate(0 0.06)"/><path class="cls-2" d="M112.24,67.27s-3.26,27.38,21.71,41c0,0,14.4-8.87,22.41-20" transform="translate(0 0.06)"/><path class="cls-2" d="M116.18,125.51a30.09,30.09,0,0,0,28.09,11.25s10.27-6.05,10-23.08" transform="translate(0 0.06)"/><path class="cls-2" d="M127.15,149.56s7.11,13.51,27.23,19.87c0,0,.34-20,12.22-32.75" transform="translate(0 0.06)"/><path class="cls-3" d="M192.64,390.92s-22.51-64.5-39.75-51.68,8.25,38.25-6.75,41.24-27.67-54-44.25-49.49,12,42,1.5,44.25-66-38.25-75-6C23,388.77,94.38,400,86.13,412.74S35.89,430,65.14,436s71.24-20.25,77.24-11.25S92.85,451.53,104.13,460c12,9,48.83-1.5,73.5-9,30.92-9.39,138.73-.75,138.73-0.75Z" transform="translate(0 0.06)"/><path class="cls-5" d="M51.94,375.5s194.67,55.16,262.9,73.83" transform="translate(0 0.06)"/><polyline class="cls-5" points="111.39 356.47 135.89 398.97 89.89 426.96"/><polyline class="cls-5" points="58.89 365.47 72.39 380.97 60.4 385.96"/><polyline class="cls-5" points="165.38 358.96 187.38 414.46 129.9 449.96"/><path class="cls-1" d="M38,293.88S24.3,288.17,27.73,271a35.81,35.81,0,0,1,16.59-24S54,289.31,38,293.88Z" transform="translate(0 0.06)"/><path class="cls-2" d="M36.85,274.43s-5.14,54.88,58.32,54.88,82.32,46.87,96,82.32" transform="translate(0 0.06)"/><path class="cls-1" d="M32.88,300.73S40.59,286.09,0,269.58C0,269.58,0,308.45,32.88,300.73Z" transform="translate(0 0.06)"/><path class="cls-1" d="M50.88,299.3s-8.58-9.44-2-15.43,18-7.71,18-7.71S72,303.6,50.88,299.3Z" transform="translate(0 0.06)"/><path class="cls-1" d="M72.33,319.89s-21.44-9.15-1.71-26.58C70.6,293.31,87.76,314.75,72.33,319.89Z" transform="translate(0 0.06)"/><path class="cls-1" d="M60.61,329s-14.86-7.44-24,12C36.59,341,66.32,348.19,60.61,329Z" transform="translate(0 0.06)"/><path class="cls-1" d="M100,324.77s-18.41,7.81-15.28-23.86C84.7,300.91,109,309.56,100,324.77Z" transform="translate(0 0.06)"/><path class="cls-1" d="M93.81,338.18S79,330.47,74.95,351.9C74.9,351.9,99.2,353.61,93.81,338.18Z" transform="translate(0 0.06)"/><path class="cls-1" d="M138.36,333s-19.43-6.28-7.44-26C130.92,307,150.65,324.74,138.36,333Z" transform="translate(0 0.06)"/><path class="cls-1" d="M136.93,345.9s-12-6-19.43,13.15C117.49,359,136.36,364.49,136.93,345.9Z" transform="translate(0 0.06)"/><path class="cls-2" d="M15.69,287a68,68,0,0,0,29.74,20l8-13.15" transform="translate(0 0.06)"/><polyline class="cls-2" points="51.17 333.38 72.9 327.1 71.17 309.94"/><polyline class="cls-2" points="85.48 343.09 104.91 330.51 91.39 312.97"/><polyline class="cls-2" points="133.49 317.36 142.07 341.38 129.49 351.1"/><path class="cls-3" d="M105.4,194s-39.06-30.19-26.84-46.6,33.15-10,57.94,31.62c25.16,42.14,21.66-48.47,46.08-15.71s-23.86,76.5-2.43,82.14,14.79-53.51,37.56-38.92c36,23.13-17.9,85.27,14.65,103.84,21.71,12.34,23.94-45.44,45-26.92,31.51,27.67,14.91,118.1-2.6,133.22-33.1,28.66-146.77-43.26-129.49-61.49s71.78,9.24,27.44-25.73c-14.65-11.59-86.59-22.79-66.24-43.47,18.64-18.94,54-.94,36.21-26.32S68,253.81,69.77,228.75,136.65,230.32,105.4,194Z" transform="translate(0 0.06)"/><path class="cls-5" d="M95.85,154.82s129.8,165,173.74,262.82" transform="translate(0 0.06)"/><polyline class="cls-5" points="93.6 172.38 113.13 177.49 110.87 164.58"/><polyline class="cls-5" points="104.18 227.52 154.47 235.79 171.14 189.14"/><polyline class="cls-5" points="139.91 294.41 207.13 308.18 212.12 230.4"/><polyline class="cls-5" points="179.85 370.06 256.15 389.92 271.72 316.86"/><polygon class="cls-7" points="565.37 494.3 974.3 491.46 1064.84 621.83 568.38 624.66 565.37 494.3"/><polygon class="cls-8" points="563.86 480.97 970.35 477.95 1060.33 615.96 566.87 618.95 563.86 480.97"/><ellipse class="cls-7" cx="799.35" cy="547.71" rx="212.98" ry="51.74"/><path class="cls-9" d="M739,424.19S600.2,512.74,606.11,539.32s15.74,37.43,40.35,42.32S823.57,557,823.57,557l-11.8-33.46,147.6-19.68L858.47,430.08Z" transform="translate(0 0.06)"/><path class="cls-10" d="M640.55,514.39c44.19-12.68,162.76-5.91,162.76-5.91l8.53,15.09,147.6-19.68L858.53,430.09,739,424.19S623.3,498,607.7,531.08C614.85,527,629.58,517.53,640.55,514.39Z" transform="translate(0 0.06)"/><path class="cls-10" d="M863.93,434l-5.42-4L739,424.17l-3.12,2C754.77,432.52,816.82,450.62,863.93,434Z" transform="translate(0 0.06)"/><polygon class="cls-10" points="817.94 508.52 760.23 506.55 736.98 458.67 869.22 473.11 848.39 507.22 817.94 508.52"/><path class="cls-11" d="M803.24,508.51l40.69-3.26s8.53-7.88,13.12-7.88,33.46,6.51,33.46,6.51l30.81,1.37,6.51,3.26L811.72,523.6Z" transform="translate(0 0.06)"/><path class="cls-12" d="M803.24,508.51l40.69-3.26s8.53-7.88,13.12-7.88,33.46,6.51,33.46,6.51l30.81,1.37,6.51,3.26L811.72,523.6Z" transform="translate(0 0.06)"/><polygon class="cls-11" points="792.29 525.3 763.81 530.72 752.85 526.52 710.91 542.49 682.31 546.61 669.83 553.75 666.87 563.94 785.03 558.96 792.29 525.3"/><path class="cls-10" d="M767.42,530a227,227,0,0,1-14.21,30.27L785,558.92l7.26-33.66Z" transform="translate(0 0.06)"/><path class="cls-13" d="M959.38,503.89s13.35,12.7,17.06,16.41c22.3,22.3,17.71,54.44-22.3,53.79-3.34,0-189.58-13.77-189.58-13.77l9.18-40,182.13-18.81" transform="translate(0 0.06)"/><path class="cls-14" d="M739.77,401.89c34.77,4.57,69.43,10,104.36,13.15,5.65,0.5,11.31,1,17,1.42,6.51-58.2,39.68-154.62,26.17-164.94s-57.1-19.53-59.83-21.66-1-46.47-1-46.47L775.75,185s2.75,35.42,0,43.55-61.85,12.53-67.3,38.15c1.77,8.35,9.77,23.88,13.62,41.42C728.81,338.71,735.53,376.79,739.77,401.89Z" transform="translate(0 0.06)"/><path class="cls-15" d="M789.15,230.59c10.4-1.3,27.08-2.82,37-9.77-0.57-13.56.37-37.43,0.37-37.43L775.78,185s2.72,35.42,0,43.55c-0.39,1.19-2,2.31-4.48,3.42C777.27,231.82,783.24,231.33,789.15,230.59Z" transform="translate(0 0.06)"/><path class="cls-16" d="M743.62,241.16s10.11,61.59-16.6,94.3L739,424.19s85.89,21.39,122.39,7.76c0,0,7.93-65.41,17.74-101.38,0,0-29.57-39.79-18.95-90.9l-6.67-2.86s-4.36,52.33-48.11,51.11C756.87,286.54,751,238,751,238Z" transform="translate(0 0.06)"/><path class="cls-17" d="M850.38,317.5q-20.1,5.63-40.18,11.39c-25.63,7.29-51.4,14.16-76.92,21.83l-3.63,1.09,9.29,72.38s85.89,21.39,122.39,7.76c0,0,7.93-65.41,17.74-101.38a106.07,106.07,0,0,1-10.07-18C862.81,314.23,856.54,315.77,850.38,317.5Z" transform="translate(0 0.06)"/><path class="cls-11" d="M887.27,251.52s79.33,80.13,56.15,119.37c-13.53,22.9-128.69-9.34-133.84-19.63-1.63-3.26-11.39-51.19-9.26-51.79s8.14,21.26,8.14,21.26-18.78-61,3.09-9.39c0,0-9.08-49.48,1.89-3.37,0,0,.47-39.06,6.51,23.11L818.33,330l76.61,10.35L878.06,328S861.88,233.74,887.27,251.52Z" transform="translate(0 0.06)"/><path class="cls-11" d="M710.67,261.88s-51.81,92.56-38.44,115.56,124-19.16,129.18-29.43c1.63-3.26,7-46.83,4.88-47.43s-8.14,22.35-8.14,22.35,18.59-58.15-3.26-6.51c0,0,10.9-50.15-1.09-4.36,0,0,4.36-42-7.08,20.17l1.63-1.09-66.73,12,9.52-15.67S736,244.09,710.67,261.88Z" transform="translate(0 0.06)"/><path class="cls-14" d="M832.34,140.27s4.69-11.47,8.38-8c11.65,10.94,0,30.24-6.92,30.61S832.34,140.27,832.34,140.27Z" transform="translate(0 0.06)"/><path class="cls-14" d="M754.3,178.41s2.8-78.34,14.45-85.63c0,0,30.29-5.58,58.48,10.94,0,0,16,89.26-11.23,105.29S755.77,212.42,754.3,178.41Z" transform="translate(0 0.06)"/><path class="cls-18" d="M838.8,115.48c-7.45,2.82-12.27-10.07-19.32-6.22,1,9.62,3.14,21.63,5.53,24.41-0.1,2.88-1,18.26-.88,28.42,0.36,24.77-1.09,30.92-10.56,34.18s-3.26-11.12-5.09-20.21-35.71-5.47-41.18-2.91-0.36,22-5.47,22-7.47-21.74-7.47-21.74c-12.39,47,30.44,50.89,50.45,45.78s28.79-14.53,28.06-35.71C831.94,155.83,837.39,132.36,838.8,115.48Z" transform="translate(0 0.06)"/><path class="cls-18" d="M826.52,136.8s-13.85-12.39-14.65-35.35a61.7,61.7,0,0,1-42.32,21.16l11.3-8.74s-21.16,0-29.88,18.94c0,0-13.85-51,38.62-60.86,0,0,27.33.36,31.71,12A22.31,22.31,0,0,1,845,88.37c11.3,10.2-.36,47.74-0.36,47.74s-8.74-4.38-9.77,5.83S826.52,136.8,826.52,136.8Z" transform="translate(0 0.06)"/><path class="cls-16" d="M768.75,178.78l36.07-1.09S793.53,188.61,768.75,178.78Z" transform="translate(0 0.06)"/><path class="cls-19" d="M787,170c-2.25.34-4.51,0.54-6.75,0.73s-4.49.33-6.75,0.41h-1.35v-1.5a50,50,0,0,1,.41-5.19c0.18-1.73.39-3.45,0.65-5.16s0.52-3.43.9-5.13,0.7-3.4,1.14-5.08,0.93-3.35,1.45-5c0.28-.83.59-1.63,0.88-2.47s0.6-1.63,1-2.44,0.67-1.63,1.09-2.39,0.8-1.63,1.25-2.31,1-1.48,1.45-2.2a22,22,0,0,1,1.71-2c-0.36.8-.7,1.63-1.07,2.36s-0.57,1.63-.88,2.41l-0.68,2.43c-0.28.8-.46,1.63-0.67,2.46s-0.46,1.63-.63,2.46-0.41,1.63-.57,2.47c-0.37,1.63-.75,3.26-1.06,5s-0.67,3.26-1,5l-0.93,5L774.81,170l-1.3-1.45c2.25,0.15,4.49.36,6.74,0.59S784.74,169.63,787,170Z" transform="translate(0 0.06)"/><path class="cls-18" d="M794.44,138.14l0.1,1.48a30.93,30.93,0,0,0,.49,3.71,15.39,15.39,0,0,0,.67,2.23,5.35,5.35,0,0,0,.54,1.06,4.43,4.43,0,0,0,.67.91,6.14,6.14,0,0,0,.81.72,9.35,9.35,0,0,0,1,.46,7.49,7.49,0,0,0,2.36.28h0.8a2.16,2.16,0,0,0,.68-0.1,7.19,7.19,0,0,0,1.09-.31,7,7,0,0,0,2.12-1.24,9.77,9.77,0,0,0,1.71-1.79,19.53,19.53,0,0,0,1.29-2,31.61,31.61,0,0,0,1.63-3.4l0.52-1.38a9.21,9.21,0,0,1,.15,1.5,14.65,14.65,0,0,1-.41,4,12,12,0,0,1-.93,2.6,10,10,0,0,1-1.81,2.67,6.87,6.87,0,0,1-1.33,1.17,7.36,7.36,0,0,1-1.63.93,8.35,8.35,0,0,1-1.89.62,4,4,0,0,1-.88.15H801.4a9.31,9.31,0,0,1-3.82-.59,8.56,8.56,0,0,1-1.73-1,7.39,7.39,0,0,1-1.3-1.42,6,6,0,0,1-.83-1.63,8,8,0,0,1-.44-1.63,10.84,10.84,0,0,1-.16-2.8,14.65,14.65,0,0,1,.8-3.92A9.77,9.77,0,0,1,794.44,138.14Z" transform="translate(0 0.06)"/><path class="cls-18" d="M760.19,136.51l0.1,1.48a30.93,30.93,0,0,0,.49,3.71,15.4,15.4,0,0,0,.67,2.23A5.35,5.35,0,0,0,762,145a4.43,4.43,0,0,0,.67.91,6.14,6.14,0,0,0,.81.72,9.35,9.35,0,0,0,1,.46,7.49,7.49,0,0,0,2.36.28h0.8a2.16,2.16,0,0,0,.68-0.1,7.18,7.18,0,0,0,1.09-.31,7,7,0,0,0,2.12-1.24,9.77,9.77,0,0,0,1.71-1.79,19.53,19.53,0,0,0,1.29-2,31.61,31.61,0,0,0,1.63-3.4l0.52-1.38a9.21,9.21,0,0,1,.15,1.5,14.65,14.65,0,0,1-.41,4,12,12,0,0,1-.93,2.6,10,10,0,0,1-1.81,2.67,6.87,6.87,0,0,1-1.33,1.17,7.36,7.36,0,0,1-1.63.93,8.35,8.35,0,0,1-1.89.62,4,4,0,0,1-.88.15h-0.78a9.31,9.31,0,0,1-3.82-.59,8.56,8.56,0,0,1-1.73-1,7.39,7.39,0,0,1-1.3-1.42,6,6,0,0,1-.83-1.63,8,8,0,0,1-.44-1.63,10.84,10.84,0,0,1-.16-2.8,14.65,14.65,0,0,1,.8-3.92A9.76,9.76,0,0,1,760.19,136.51Z" transform="translate(0 0.06)"/><path class="cls-18" d="M792.92,127.51a4,4,0,0,1,.41-1,6,6,0,0,1,.68-1,8.14,8.14,0,0,1,1.09-1.14,9.64,9.64,0,0,1,1.55-1.06,9.46,9.46,0,0,1,1.94-.83,11.56,11.56,0,0,1,2.2-.47,15.64,15.64,0,0,1,2.31,0,12.81,12.81,0,0,1,2.25.39,11.3,11.3,0,0,1,2.05.73,18.84,18.84,0,0,1,1.76,1c0.52,0.37,1,.75,1.4,1.11a6.83,6.83,0,0,1,1.06,1.09,10.73,10.73,0,0,1,.72.93,7.41,7.41,0,0,1,.55.9,10.22,10.22,0,0,1-1.06,0c-0.65,0-1.5-.16-2.52-0.21a12.93,12.93,0,0,1-1.63-.2c-0.6-.08-1.11-0.1-1.63-0.2s-1.14-.1-1.63-0.2-1.14-.08-1.63-0.16-1.12,0-1.63-.11a7.77,7.77,0,0,0-1.63,0H797.9a8.56,8.56,0,0,0-1.48.08,16.75,16.75,0,0,0-2.41.28Z" transform="translate(0 0.06)"/><path class="cls-18" d="M759.74,128.06a4,4,0,0,1,.41-1,6,6,0,0,1,.68-1,8.14,8.14,0,0,1,1.09-1.14,9.64,9.64,0,0,1,1.55-1.06,9.46,9.46,0,0,1,1.94-.83,11.56,11.56,0,0,1,2.2-.47,15.64,15.64,0,0,1,2.31,0,12.81,12.81,0,0,1,2.25.39,11.3,11.3,0,0,1,2.05.73,18.84,18.84,0,0,1,1.76,1c0.52,0.37,1,.75,1.4,1.11a6.83,6.83,0,0,1,1.06,1.09q0.32,0.39.6,0.81a7.41,7.41,0,0,1,.55.9,10.22,10.22,0,0,1-1.06,0c-0.65,0-1.5-.16-2.52-0.21a12.93,12.93,0,0,1-1.63-.2c-0.6-.08-1.11-0.1-1.63-0.2s-1.14-.1-1.63-0.2-1.14-.08-1.63-0.16-1.12,0-1.63-.11a7.77,7.77,0,0,0-1.63,0H764.6a8.56,8.56,0,0,0-1.48.08,16.75,16.75,0,0,0-2.41.28Z" transform="translate(0 0.06)"/><polygon class="cls-7" points="126.12 491.37 539.49 489.97 554.86 623.44 53.89 617.83 126.12 491.37"/><polygon class="cls-20" points="134.89 477.95 538.37 476.46 553.36 618.95 64.39 612.95 134.89 477.95"/><ellipse class="cls-7" cx="310.38" cy="546.96" rx="193.49" ry="50.99"/><path class="cls-18" d="M397.7,361.26c-12.56-9.88-10.76-16.59-8.58-23.83,0.8-1.63,8.58-25.26-1.63-35.17-9.64-13.36-33.61-14.31-18.95-40.69,16.28-29.08,26.22-42.9,19.08-63.48s-48.26-26-48.26-26-21.81-20.74-42.79-3.09-3.81,65.31-43.86,76.74c-30.68,8.77-50.16,38.23-35.81,67.84,2.7,7.06,4.52,10.4,6.18,17.9,4.3,19.53-38.61,10-28.6,47.67s50.68,43.13,96.42,54.52A162.19,162.19,0,0,0,391.5,426.5C408.67,419.42,417.7,377,397.7,361.26Z" transform="translate(0 0.06)"/><path class="cls-18" d="M334.79,169.86a38.33,38.33,0,0,0-12.61-5,26.48,26.48,0,0,0-6.71-.44,23,23,0,0,0-6.51,1.27,30.55,30.55,0,0,0-11.26,6.88,31.93,31.93,0,0,0-6.87,11.12c-3.26,8.33-4.69,17.4-7,26.33a81.92,81.92,0,0,1-4.56,13.26,41.41,41.41,0,0,1-7.89,12,35.81,35.81,0,0,1-11.91,8.14,45.28,45.28,0,0,1-6.82,2.28l-6.51,1.81c-2.07.76-4.09,1.45-6.1,2.34a57.49,57.49,0,0,0-5.88,3l-2.83,1.63c-0.91.62-1.77,1.3-2.67,1.94a50.19,50.19,0,0,0-5,4.23,27.84,27.84,0,0,0-2.26,2.38,32.64,32.64,0,0,0-2.16,2.47,44.39,44.39,0,0,0-3.66,5.42A43.67,43.67,0,0,0,210.61,283l-0.54,3.26c0,0.54-.21,1.07-0.24,1.63v1.63l-0.13,3.26L210,296l0.13,1.63a9.55,9.55,0,0,0,.31,1.63l0.68,3.26,0.16,0.81,0.26,0.78,0.54,1.63,1,3.14v0.15c1,3.26,2.08,6.4,3,9.77,0.47,1.63.9,3.37,1.24,5.08,0.16,0.85.33,1.63,0.46,2.56l0.21,1.38,0.1,1.27a8.38,8.38,0,0,1,0,1.45,6.51,6.51,0,0,1-.2,1.5,9.86,9.86,0,0,1-1,2.8,11.88,11.88,0,0,1-4,4.07,51.46,51.46,0,0,1-9.46,4.41,59.6,59.6,0,0,0-9.07,4.2,23.89,23.89,0,0,0-3.91,3,17.37,17.37,0,0,0-3.06,3.81l-0.62,1.06-0.5,1.12a16.13,16.13,0,0,0-.83,2.33,24.42,24.42,0,0,0-.85,4.88,33.47,33.47,0,0,0,0,5,42,42,0,0,0,.57,5c-0.33-1.63-.75-3.26-0.93-5a32.43,32.43,0,0,1-.34-5.11,25.26,25.26,0,0,1,.6-5.13,17.13,17.13,0,0,1,.75-2.51l0.47-1.22,0.6-1.17a18.77,18.77,0,0,1,3.08-4.26,25.54,25.54,0,0,1,4-3.39,56.41,56.41,0,0,1,9.16-4.88,49.69,49.69,0,0,0,8.81-4.49,9.13,9.13,0,0,0,3-3.26,6.92,6.92,0,0,0,.63-2,3.94,3.94,0,0,0,.1-1,4.88,4.88,0,0,0,0-1.09L215,328l-0.21-1.12c-0.16-.81-0.33-1.63-0.5-2.44a49.12,49.12,0,0,0-1.3-4.79c-1-3.16-2.23-6.35-3.26-9.6v0.15c-0.78-2.23-1.74-4.43-2.33-6.72l-0.8-3.48c-0.11-.59-0.29-1.16-0.36-1.76l-0.18-1.79-0.36-3.56V287.5a16,16,0,0,1,.23-1.77l0.54-3.56a45.26,45.26,0,0,1,5.18-13.35,48.66,48.66,0,0,1,4-6c0.68-1,1.63-1.81,2.33-2.72a31.38,31.38,0,0,1,2.46-2.6,54.56,54.56,0,0,1,5.44-4.62c1-.7,1.9-1.43,2.88-2.1l3-1.84a61.85,61.85,0,0,1,6.33-3.26c2.16-.94,4.49-1.73,6.72-2.52l6.67-1.79a41,41,0,0,0,6.2-2,33.11,33.11,0,0,0,10.64-7.13,37.43,37.43,0,0,0,7.32-10.73,84.74,84.74,0,0,0,4.59-12.58c1.25-4.35,2.34-8.79,3.53-13.23a90.93,90.93,0,0,1,4.39-13.23,34.18,34.18,0,0,1,8-11.77A31.66,31.66,0,0,1,308.51,164a24.41,24.41,0,0,1,7-1,27.57,27.57,0,0,1,6.93.81A36.56,36.56,0,0,1,334.79,169.86Z" transform="translate(0 0.06)"/><path class="cls-18" d="M335.07,169.37s-0.72-.49-2.1-1.3a39.48,39.48,0,0,0-6.25-3,28.42,28.42,0,0,0-10.45-1.92,27.26,27.26,0,0,0-13,3.56c-1.12.55-2.15,1.35-3.26,2a26.37,26.37,0,0,0-3,2.59,29.9,29.9,0,0,0-4.88,6.66,84.64,84.64,0,0,0-6.32,17.12c-1.76,6.17-3.34,12.68-5.83,19.09A47.59,47.59,0,0,1,268.91,232a37.71,37.71,0,0,1-18.85,9.41l-4.88,1.12c-0.81.2-1.63,0.34-2.43,0.57l-2.29.75a35.8,35.8,0,0,0-4.51,1.63l-2.16,1a15.88,15.88,0,0,0-2.13,1A54.15,54.15,0,0,0,217,258.09l-1.53,1.51-1.33,1.63a31.15,31.15,0,0,0-2.51,3.26l-2.26,3.39-1.63,3.47a42.32,42.32,0,0,0-3.58,13.28l-0.29,3,0.08,2.8V293l0.54,2.29c0.26,1.46.37,2.82,0.67,3.94l0.78,2.85,0.65,2.38-0.81-2.33-1-2.82a37.57,37.57,0,0,1-.9-3.92l-0.47-2.34-0.28-2.64-0.29-2.82,0.15-3.06a39.06,39.06,0,0,1,.86-6.71l0.16-.9,0.26-.88,0.55-1.77a24.28,24.28,0,0,1,1.3-3.61l1.63-3.66,2.15-3.58a32.85,32.85,0,0,1,2.51-3.5l1.33-1.76,1.55-1.63a53.37,53.37,0,0,1,15-11.39,17.1,17.1,0,0,1,2.21-1.11l2.28-1a38.28,38.28,0,0,1,4.74-1.79l2.44-.81c0.81-.26,1.63-0.41,2.44-0.62l4.88-1.16a34.85,34.85,0,0,0,17.32-8.81,44.73,44.73,0,0,0,10.47-16.68c2.41-6.2,4.15-12.6,6-18.78A79.57,79.57,0,0,1,290,176.94a31.8,31.8,0,0,1,5.6-7,28.16,28.16,0,0,1,3.26-2.65c1.19-.68,2.28-1.48,3.48-2a27,27,0,0,1,3.55-1.63,24.93,24.93,0,0,1,3.55-1.06,26.72,26.72,0,0,1,6.77-.59,29.3,29.3,0,0,1,10.64,2.49,35.53,35.53,0,0,1,6.12,3.39C334.39,168.84,335.07,169.37,335.07,169.37Z" transform="translate(0 0.06)"/><path class="cls-18" d="M399.11,422.25a22.79,22.79,0,0,0,8.66-9,44.84,44.84,0,0,0,4.59-11.7,56.35,56.35,0,0,0,1.16-6.18,57,57,0,0,0,.47-6.25,53.16,53.16,0,0,0-.2-6.25,46.26,46.26,0,0,0-.94-6.14,40,40,0,0,0-1.79-5.89,32,32,0,0,0-2.73-5.44,25.57,25.57,0,0,0-3.74-4.69,21.51,21.51,0,0,0-2.26-2l-1.25-.94-1.29-.94c-0.85-.6-1.74-1.42-2.6-2.1a19.48,19.48,0,0,1-2.41-2.38,19.25,19.25,0,0,1-3.84-5.84,15.69,15.69,0,0,1-1.11-7.1A37.33,37.33,0,0,1,391,332.8l0.1-.28,0.13-.39,0.15-.5c0.1-.34.2-0.7,0.28-1.06,0.2-.72.34-1.43,0.5-2.16,0.31-1.45.57-2.93,0.8-4.39s0.39-2.95.49-4.43c0-.73.11-1.48,0.13-2.21s0-1.48,0-2.2V313l-0.21-2.16a25.58,25.58,0,0,0-.88-4.15l-0.29-1c-0.11-.33-0.28-0.62-0.41-0.94a10.27,10.27,0,0,0-.9-1.81,17.63,17.63,0,0,0-1.11-1.63l-1.32-1.43-0.26-.28a30.92,30.92,0,0,0-6.88-6c-2.6-1.81-5.45-3.47-8.25-5.4a26,26,0,0,1-7.65-7.45,16.55,16.55,0,0,1-2.13-10.86,33.22,33.22,0,0,1,3.06-10c1.48-3.14,3-5.91,4.52-8.87,3-5.84,6.1-11.64,9-17.5,1.38-2.93,2.75-5.89,3.89-8.9a58.71,58.71,0,0,0,2.75-9.18,38.33,38.33,0,0,0,.68-9.44,36.73,36.73,0,0,0-1.84-9.34c-0.26-.73-0.49-1.63-0.75-2.23a18.36,18.36,0,0,0-1-2.18,16,16,0,0,0-1.22-2l-0.68-1-0.76-.91a33.79,33.79,0,0,0-7.31-6.23,58.72,58.72,0,0,0-8.63-4.57,91.61,91.61,0,0,0-9.21-3.47,69.4,69.4,0,0,1,18.49,7,35.27,35.27,0,0,1,8,6.12l0.88,0.93,0.8,1a17.8,17.8,0,0,1,1.48,2.15,20.06,20.06,0,0,1,1.19,2.21c0.41,0.85.62,1.63,0.94,2.39a39.19,39.19,0,0,1,2.34,9.86,41,41,0,0,1-.34,10.19,61.84,61.84,0,0,1-2.64,9.77c-1.09,3.26-2.41,6.23-3.74,9.28s-2.78,6-4.25,9l-4.41,8.82c-1.43,2.91-3,5.92-4.3,8.77a30.92,30.92,0,0,0-2.6,8.79,12.22,12.22,0,0,0,1.63,8.14,21.94,21.94,0,0,0,6.51,6.12c2.62,1.79,5.47,3.43,8.28,5.34a35.09,35.09,0,0,1,7.68,7.06l-0.26-.28,1.89,1.9a21.62,21.62,0,0,1,1.45,2.18,14.11,14.11,0,0,1,1.12,2.31,13.29,13.29,0,0,1,.85,2.39,17.52,17.52,0,0,1,.6,2.43c0.13,0.81.33,1.63,0.41,2.44l0.21,2.43v4.82a13,13,0,0,1-.15,2.39c-0.11,1.63-.34,3.16-0.59,4.72s-0.57,3.11-.93,4.65c-0.18.76-.37,1.55-0.59,2.31-0.1.39-.21,0.76-0.34,1.17l-0.18.59-0.26.7,0.1-.28a33.79,33.79,0,0,0-1.17,5.91,11.8,11.8,0,0,0,.73,5.42,16.28,16.28,0,0,0,3.06,4.88c0.6,0.76,1.38,1.45,2.07,2.16a17.55,17.55,0,0,0,2.31,2l1.25,1,1.27,1a24.88,24.88,0,0,1,2.51,2.29,28.81,28.81,0,0,1,4.05,5.39,32.87,32.87,0,0,1,2.82,6,42.81,42.81,0,0,1,1.63,6.38,48.83,48.83,0,0,1,.75,6.51,55.47,55.47,0,0,1,0,6.51A59.76,59.76,0,0,1,413.91,402a46,46,0,0,1-5.35,11.73,25.68,25.68,0,0,1-4.1,5A18.49,18.49,0,0,1,399.11,422.25Z" transform="translate(0 0.06)"/><path class="cls-18" d="M403.56,330a42.31,42.31,0,0,0,.57-4.51q0.18-2.26.23-4.54a61.25,61.25,0,0,0-.44-9,35,35,0,0,0-2.16-8.74c-0.29-.68-0.6-1.37-1-2a16,16,0,0,0-1.17-1.9,14.64,14.64,0,0,0-1.4-1.73,15.34,15.34,0,0,0-1.63-1.48h0a41.63,41.63,0,0,0-11.67-7.73c-2.12-1.09-4.25-2.16-6.3-3.48a20.28,20.28,0,0,1-5.47-4.88,15.53,15.53,0,0,1-2.77-7,26,26,0,0,1,.15-7.41,52.69,52.69,0,0,1,1.63-7.1c0.7-2.29,1.42-4.54,2.16-6.82,1.46-4.54,3.06-9,4.64-13.53s3.26-8.94,4.35-13.38a36.9,36.9,0,0,0,1.42-13.12,30.92,30.92,0,0,0-4.17-12.08l6.67-3.35a37.69,37.69,0,0,1,3.61,15.1,42.76,42.76,0,0,1-2.78,14.91c-1.63,4.62-3.56,9-5.44,13.36s-3.76,8.71-5.53,13c-0.88,2.18-1.73,4.41-2.54,6.62a50.45,50.45,0,0,0-1.86,6.69,23.91,23.91,0,0,0-.39,6.77,13.64,13.64,0,0,0,2.21,6.22,18.68,18.68,0,0,0,4.88,4.7,64.71,64.71,0,0,0,6.05,3.61,42.56,42.56,0,0,1,11.72,8.27h0a16.12,16.12,0,0,1,1.63,1.63,15.34,15.34,0,0,1,1.42,1.84,16.68,16.68,0,0,1,1.16,2c0.36,0.68.63,1.4,0.93,2.12a37,37,0,0,1,2,8.92,61.52,61.52,0,0,1,.26,9.11q-0.1,2.28-.33,4.54A42.32,42.32,0,0,1,403.56,330Z" transform="translate(0 0.06)"/><path class="cls-11" d="M332.63,294.87c-13.25-3.11-27.77-4.05-11.69-40.88l-34.44-17s-4.65,22.88-5,40.69-34.31,3-46.08,25.8,29,48.62,29,48.62a62.29,62.29,0,0,0,22.88,4.3c11.8-.36,86.88,7.15,94.4-30.74S349.44,298.81,332.63,294.87Z" transform="translate(0 0.06)"/><path class="cls-21" d="M315,285.63c-2.39-5.47-1.43-14.79,5.91-31.62L286.5,237s-4.65,22.88-5,40.69a10,10,0,0,1-.76,3.76A103.64,103.64,0,0,0,315,285.63Z" transform="translate(0 0.06)"/><path class="cls-11" d="M347,178.68s-40.09-14.31-55.57,30.74,6.74,67.27,20.05,72.22c14.42,5.37,42.68,0,56.27-39C380.66,205.7,364.94,184.41,347,178.68Z" transform="translate(0 0.06)"/><path class="cls-18" d="M328.58,180.11s-2.8,24.1,20.49,35.81c21,10.48,3.34,51,3.34,51s21.92-32.42,8.46-47.79c0,0,12.27,15.61-2.73,42.07-17,29.9-.83,30.16-0.83,30.16s-6.07-6.79,4.3-21.45c12.43-17.58,45.41-61.49,14.65-90.8C342.12,146.5,328.58,180.11,328.58,180.11Z" transform="translate(0 0.06)"/><path class="cls-18" d="M339.43,172.25S319,155.7,299.38,176.48c-22.17,23.6-13.59,60.42-13.59,60.42s7.75-24.67,18.47-32.55S329,203,339.43,172.25Z" transform="translate(0 0.06)"/><path class="cls-11" d="M284.84,231s4.88-17.9,8.27-25.57c0,0-5.27-8.85-11.56-.36S277.93,229.8,284.84,231Z" transform="translate(0 0.06)"/><path class="cls-18" d="M306.72,222.53l-0.1,1.48c0,0.93-.13,2.26-0.11,3.81a18.46,18.46,0,0,0,.11,2.47,22.57,22.57,0,0,0,.41,2.62,8.28,8.28,0,0,0,1,2.36,4.38,4.38,0,0,0,1.71,1.63,7,7,0,0,0,1.24.42,4.09,4.09,0,0,0,1.06,0,7.91,7.91,0,0,0,2.47-.59,20.75,20.75,0,0,0,2.34-1.22c0.72-.47,1.42-0.93,2-1.4,1.24-.93,2.26-1.77,3-2.38l1.12-1a13.82,13.82,0,0,1-.67,1.33,20.2,20.2,0,0,1-2.26,3.26,18,18,0,0,1-1.89,1.92c-0.36.33-.76,0.62-1.17,0.94a11.38,11.38,0,0,1-1.37.85,8.9,8.9,0,0,1-3.39,1.07,6.51,6.51,0,0,1-2.08-.1,3.6,3.6,0,0,1-.86-0.24l-0.37-.13h-0.46a7.29,7.29,0,0,1-2.8-2.73,9.33,9.33,0,0,1-1.12-3.35,14.81,14.81,0,0,1,0-3.09,18.14,18.14,0,0,1,.41-2.65,20.43,20.43,0,0,1,1.24-3.76A14.1,14.1,0,0,1,306.72,222.53Z" transform="translate(0 0.06)"/><path class="cls-22" d="M307.61,211.58a6,6,0,0,1,1-.7,10,10,0,0,1,1.25-.63,10.91,10.91,0,0,1,1.63-.6,15.14,15.14,0,0,1,2.1-.46,17.14,17.14,0,0,1,2.41-.13,14.65,14.65,0,0,1,2.59.24,16.75,16.75,0,0,1,2.6.63,20.69,20.69,0,0,1,2.47,1,24.26,24.26,0,0,1,2.21,1.33,22.44,22.44,0,0,1,1.84,1.55,12.32,12.32,0,0,1,1.43,1.63,12.09,12.09,0,0,1,1.71,2.69,10.94,10.94,0,0,1,.49,1.11s-0.44-.16-1.12-0.49c-0.34-.16-0.75-0.36-1.19-0.6s-1-.46-1.51-0.73a17,17,0,0,0-1.73-.83l-1.89-.86c-0.67-.24-1.33-0.55-2-0.83a16,16,0,0,0-2.1-.73c-0.72-.18-1.42-0.47-2.13-0.65s-1.42-.37-2.12-0.54c-1.38-.33-2.72-0.57-3.91-0.76s-2.21-.33-2.95-0.42Z" transform="translate(0 0.06)"/><path class="cls-18" d="M356.76,246.81a16.57,16.57,0,0,1-2.21,4.38,16.38,16.38,0,0,1-1.51,1.9A13.36,13.36,0,0,1,351,255a8.42,8.42,0,0,1-2.91,1.32,6.51,6.51,0,0,1-3.53-.18h-0.15L344.2,256l-0.31-.16a3.26,3.26,0,0,1-.68-0.42,5.89,5.89,0,0,1-1.33-1.32,8,8,0,0,1-1.37-2.9,12.66,12.66,0,0,1-.36-2.78,18,18,0,0,1,1.35-7.18v1.33c0,0.85.1,2,.24,3.43,0.08,0.7.2,1.43,0.33,2.21a18.73,18.73,0,0,0,.62,2.29,7.14,7.14,0,0,0,1.14,2,3.68,3.68,0,0,0,.68.67,6.27,6.27,0,0,0,1,.55,3.94,3.94,0,0,0,2.1.16,7.47,7.47,0,0,0,2.18-.78,20.34,20.34,0,0,0,2-1.33,16.47,16.47,0,0,0,1.63-1.45c1-.94,1.87-1.81,2.46-2.41Z" transform="translate(0 0.06)"/><path class="cls-22" d="M365.62,236.93l-1-.62c-0.65-.37-1.53-0.91-2.57-1.5s-2.26-1.22-3.53-1.82c-0.65-.31-1.3-0.62-2-0.9s-1.37-.55-2.07-0.81-1.42-.46-2.1-0.73-1.42-.39-2.1-0.6l-2-.5c-0.65-.2-1.29-0.26-1.87-0.42a12.43,12.43,0,0,0-1.63-.36c-0.49-.07-0.93-0.18-1.3-0.26-0.73-.16-1.17-0.31-1.17-0.31a10.94,10.94,0,0,1,1.07-.55,12.09,12.09,0,0,1,3-1,12.32,12.32,0,0,1,2.12-.36,19.82,19.82,0,0,1,2.41,0,24.26,24.26,0,0,1,2.57.33,20.67,20.67,0,0,1,2.59.73,16.73,16.73,0,0,1,2.44,1.12,14.65,14.65,0,0,1,2.16,1.42,17.14,17.14,0,0,1,1.81,1.63A15.14,15.14,0,0,1,363.8,233a10.9,10.9,0,0,1,1,1.53,10,10,0,0,1,.59,1.27A6.05,6.05,0,0,1,365.62,236.93Z" transform="translate(0 0.06)"/><path class="cls-23" d="M339.37,236.82a117.5,117.5,0,0,1-2.73,12c-1.09,4-2.31,7.89-3.71,11.75l-0.13.37-0.33-.08c-1.42-.37-2.83-0.75-4.23-1.19a43.71,43.71,0,0,1,4.38.37l-0.47.29c0.88-4,1.94-8,3.14-11.93A117.46,117.46,0,0,1,339.37,236.82Z" transform="translate(0 0.06)"/><path class="cls-23" d="M303.48,255l1.06,1.07a35.41,35.41,0,0,0,2.91,2.7c0.63,0.52,1.29,1.12,2,1.63s1.51,1.19,2.33,1.77,1.71,1.16,2.57,1.76a31.15,31.15,0,0,0,2.78,1.63,18.06,18.06,0,0,0,2.9,1.37,26,26,0,0,0,2.9,1.07,20.38,20.38,0,0,0,2.8.75,19.12,19.12,0,0,0,2.57.44l2.21,0.23h3.24l-1.48.29-1.73.31h-2.28a15,15,0,0,1-2.7-.2,16.45,16.45,0,0,1-3-.59,21,21,0,0,1-3.09-1c-1.06-.36-2-0.93-3-1.38a21.23,21.23,0,0,1-2.86-1.73,24.25,24.25,0,0,1-2.59-1.92,28.29,28.29,0,0,1-2.26-2c-0.72-.63-1.32-1.32-1.89-1.9A30.92,30.92,0,0,1,303.48,255Z" transform="translate(0 0.06)"/><path class="cls-14" d="M377.14,447.83s68.23,50.45,82.88,73.6S374.94,548,374.94,548L333.21,505.4Z" transform="translate(0 0.06)"/><path class="cls-14" d="M339.58,505.82l-65.31-82.29s-107.91,78.58-119.32,101.8C190.85,498.63,339.58,505.82,339.58,505.82Z" transform="translate(0 0.06)"/><path class="cls-21" d="M381.21,450.89l-4.07-3.06L333.2,505.39l7.29,7.44C350.69,490.4,368.43,472,381.21,450.89Z" transform="translate(0 0.06)"/><path class="cls-21" d="M274.34,423.53s-23.21,16.91-49.23,37.35c19.76,11.28,37,25.52,49.56,44.29,35.71-.75,65,0.65,65,0.65Z" transform="translate(0 0.06)"/><path class="cls-24" d="M265.56,387.65l5.66,34.72s-37.34,28.11-45.25,36.9c0,0,43.94,26.35,59.75,56.23l47.44-.88s29-47.44,43.94-66.73L349,423.24l12.3-43S275.22,370.08,265.56,387.65Z" transform="translate(0 0.06)"/><path class="cls-25" d="M356.08,398.52l5.24-18.34s-91.37.88-101,18.46l1.92,11.51C294,409.77,325.6,407.6,356.08,398.52Z" transform="translate(0 0.06)"/><path class="cls-25" d="M311.66,472.56c-16.28,2.16-34.26,6-48.83,14.76,9,8.4,17.53,18.08,22.79,28.17l47.44-.88s13.74-22.48,27.16-42.79A215.38,215.38,0,0,0,311.66,472.56Z" transform="translate(0 0.06)"/><path class="cls-11" d="M412.72,505.39s-14.79-6.88-23.88-4.54-28.4-6.51-37.19-3.26-12,8.14-12,8.14h0S190.85,498.53,155,525.26a11.52,11.52,0,0,0-.75,1.87c-5.86,20.51-9.37,44.51,31.62,48.62S408.18,519.9,415.5,512,412.72,505.39,412.72,505.39Z" transform="translate(0 0.06)"/><path class="cls-26" d="M201.23,539.43s13.56-9.07,22.9-8.14,27.08-10.73,36.26-8.89,13.12,6.27,13.12,6.27h0s145.94-29.9,185.45-9a11.53,11.53,0,0,1,1,1.74c8.94,19.37,16.08,42.56-23.81,52.9S207.94,553.15,199.49,546.4,201.23,539.43,201.23,539.43Z" transform="translate(0 0.06)"/><path class="cls-11" d="M211,415.33s-17,24.61-28.69,39.83-32.94,47.44-32.94,47.44-19.92-5.86-22,14.36c0,0-1,2.05,1.32,1.76s4.69-12.3,10.84-8.14,0.29,8.79-2.34,9.08-7.62-6.15-8.79-4.39,2.64,11.13,13.33,7.47a18.41,18.41,0,0,1-14.36-.59c-11.39-4.88-6.64,2,5.13,6a19.53,19.53,0,0,0,11.39.59A54.8,54.8,0,0,1,125.6,527c-8.5-2.64,3.37,11.13,21.16,4,0,0-24.32,4-15.53,4.25s23.73,0,29-22.56c0,0,75-60.33,90.49-85.81S211,415.33,211,415.33Z" transform="translate(0 0.06)"/><path class="cls-21" d="M240.83,439.73a96.26,96.26,0,0,0,10.09-13c15.53-25.49-39.83-11.39-39.83-11.39l-1.63,2.26C220.34,424.41,230.69,431.92,240.83,439.73Z" transform="translate(0 0.06)"/><path class="cls-11" d="M420.13,426.74s17,24.61,28.69,39.83S481.76,514,481.76,514s19.92-5.86,22,14.36c0,0,1,2.05-1.32,1.76s-4.69-12.3-10.84-8.14-0.29,8.79,2.34,9.08,7.62-6.15,8.79-4.39-2.64,11.13-13.33,7.47a18.41,18.41,0,0,0,14.36-.59c11.39-4.88,6.64,2-5.13,6a19.53,19.53,0,0,1-11.39.59,54.8,54.8,0,0,0,18.31-1.76c8.5-2.64-3.37,11.13-21.16,4,0,0,24.32,4,15.53,4.25s-23.73,0-29-22.56c0,0-75-60.33-90.49-85.81S420.13,426.74,420.13,426.74Z" transform="translate(0 0.06)"/><path class="cls-21" d="M390.37,451.15a96.26,96.26,0,0,1-10.09-13c-15.53-25.49,39.83-11.39,39.83-11.39l1.63,2.26C410.87,435.84,400.5,443.41,390.37,451.15Z" transform="translate(0 0.06)"/><path class="cls-27" d="M348.06,296c-1.09,20.26-7,40.87-14.44,59.37a110.24,110.24,0,0,0,21.31-4.51,150.75,150.75,0,0,1-.23-54.69C352.47,296.1,350.24,296,348.06,296Z" transform="translate(0 0.06)"/><path class="cls-16" d="M421,427c-14.32-17.38-42.07-52.08-42.07-52.08l2.72-49.28c-73.73,14.86-142.41-28.91-142.41-28.91-25.49,21.16.88,77.33-3.52,87S211,415.33,211,415.33l34.26,18.46c10.55-8.79,18.46-23.73,23.29-33.46,22.79,9.67,88.3-3.45,88.3-3.45A150.72,150.72,0,0,0,387,448.68C388.21,447.88,408.85,434.16,421,427Z" transform="translate(0 0.06)"/><path class="cls-28" d="M264.24,382.37C240.95,370.07,253.69,338,253.69,338L228.82,316.1c-4.48,25.34,10.24,60.22,6.87,67.59-4.39,9.67-24.61,31.62-24.61,31.62l34.26,18.46c8.9-7.42,18.42-23,23.29-33.46Z" transform="translate(0 0.06)"/><path class="cls-28" d="M378.9,374.9l2.28-41.31L364.9,345.92c15.38,23.29-7.91,43-7.91,43l-0.2,7.93H357a150.71,150.71,0,0,0,30.14,51.81c1.14-.78,21.78-14.52,33.89-21.7C406.63,409.59,378.9,374.9,378.9,374.9Z" transform="translate(0 0.06)"/><path class="cls-29" d="M354.65,7.43a25.16,25.16,0,0,1-.76,21.5l-10-18.38" transform="translate(0 0.06)"/><polyline class="cls-29" points="336.71 16.64 353.88 28.99 334.53 25.65"/><path class="cls-29" d="M331.44,34c13,5.78,22.51-5,22.51-5l12.86,10.29" transform="translate(0 0.06)"/><path class="cls-29" d="M95.44,196.85A25.16,25.16,0,0,1,79.8,211.62l5.75-20.15" transform="translate(0 0.06)"/><polyline class="cls-29" points="76.27 190.85 79.83 211.68 68.39 195.73"/><path class="cls-29" d="M60.29,199.42c5.24,13.26,19.53,12.21,19.53,12.21l1.94,16.28" transform="translate(0 0.06)"/><path class="cls-29" d="M490.55,90.65a25.16,25.16,0,0,1-17.68,12.29l8.69-19.06" transform="translate(0 0.06)"/><polyline class="cls-29" points="472.45 81.83 472.88 102.98 463.94 85.5"/><path class="cls-29" d="M455.35,87.93c3.26,13.9,17.51,15,17.51,15l-0.52,16.45" transform="translate(0 0.06)"/><path class="cls-30" d="M219.14,141.18a19.81,19.81,0,0,1-13.92,9.67l6.84-15" transform="translate(0 0.06)"/><polyline class="cls-30" points="204.83 134.24 205.14 150.89 198.11 137.12"/><path class="cls-30" d="M191.35,139.05c2.52,11,13.8,11.82,13.8,11.82l-0.41,13" transform="translate(0 0.06)"/><path class="cls-29" d="M597.39,225.93a25.16,25.16,0,0,1-21.52,0l18-10.69" transform="translate(0 0.06)"/><polyline class="cls-29" points="587.59 208.38 575.87 225.97 578.51 206.52"/><path class="cls-29" d="M570,203.6c-5.32,13.25,5.81,22.31,5.81,22.31l-9.77,13.22" transform="translate(0 0.06)"/><path class="cls-29" d="M528.85,381.87A25.16,25.16,0,0,1,531,360.4l8.79,19" transform="translate(0 0.06)"/><polyline class="cls-29" points="547.32 373.92 530.98 360.51 550.09 365.07"/><path class="cls-29" d="M553.77,356.89c-12.65-6.61-22.79,3.58-22.79,3.58l-12.17-11.08" transform="translate(0 0.06)"/><path class="cls-29" d="M671.77,57.56a25.16,25.16,0,0,1-16.1,14.27l6.38-20" transform="translate(0 0.06)"/><polyline class="cls-29" points="652.77 50.94 655.67 71.89 644.73 55.58"/><path class="cls-29" d="M636.5,59c4.88,13.43,19.17,12.83,19.17,12.83l1.42,16.41" transform="translate(0 0.06)"/><path class="cls-1" d="M54,118.67S50,106.5,38.59,106.5,6.9,109.75,6.9,109.75,38.59,145.56,54,118.67Z" transform="translate(0 0.06)"/><path class="cls-31" d="M26.4,115.42c11.15,5.5,25.28,6.84,36.88,2.13" transform="translate(0 0.06)"/><path class="cls-1" d="M516.17,303.08s11.13-5.81,18.39,1.55,17.9,22.79,17.9,22.79S507.22,331.61,516.17,303.08Z" transform="translate(0 0.06)"/><path class="cls-32" d="M536.09,318.67c-11-3.39-20.93-11.6-25-22.36" transform="translate(0 0.06)"/><path class="cls-1" d="M567.44,163.46s-5.66,7.34-12.81,4.65a168.33,168.33,0,0,1-19.08-9.68S564.66,141.61,567.44,163.46Z" transform="translate(0 0.06)"/><path class="cls-33" d="M549.32,159.2A29,29,0,0,1,573,166.44" transform="translate(0 0.06)"/><path class="cls-1" d="M711.17,45.09s11.13-5.81,18.39,1.55,17.9,22.79,17.9,22.79S702.25,73.62,711.17,45.09Z" transform="translate(0 0.06)"/><path class="cls-32" d="M731.08,60.7c-11-3.39-20.93-11.6-25-22.36" transform="translate(0 0.06)"/><path class="cls-1" d="M345.81,117.55s-9.23-2-13.44,5.24a199,199,0,0,0-9.77,21.27S357,137.28,345.81,117.55Z" transform="translate(0 0.06)"/><path class="cls-34" d="M333.49,133.83a34.07,34.07,0,0,0,15.06-22.56" transform="translate(0 0.06)"/><path class="cls-1" d="M482,19.55s-8.14-4.75-14.42.76a198.93,198.93,0,0,0-15.9,17.15S486.52,41.82,482,19.55Z" transform="translate(0 0.06)"/><path class="cls-34" d="M465.23,31.16a34.07,34.07,0,0,0,21.35-16.7" transform="translate(0 0.06)"/><path class="cls-1" d="M1038.77,128.54s-9.23-2-13.44,5.24a198.91,198.91,0,0,0-9.77,21.27S1050,148.28,1038.77,128.54Z" transform="translate(0 0.06)"/><path class="cls-34" d="M1026.42,144.83a34.07,34.07,0,0,0,15.06-22.56" transform="translate(0 0.06)"/><path class="cls-1" d="M159,262.75s-9.55-6.36-17.58-.13-20.57,19.66-20.57,19.66S162.87,290.15,159,262.75Z" transform="translate(0 0.06)"/><path class="cls-35" d="M137.76,275.64c10.89-2.23,21.58-9,27.18-18.73" transform="translate(0 0.06)"/><path class="cls-1" d="M976,232.21s-4.36-10.61-14.52-9.93-28.06,4.88-28.06,4.88S963.87,257.07,976,232.21Z" transform="translate(0 0.06)"/><path class="cls-35" d="M951.16,231c10.27,4.23,23,4.54,33-.36" transform="translate(0 0.06)"/><path class="cls-1" d="M259.58,25.79s9.13-8.64,16.47-4,18.68,15.67,18.68,15.67S255.19,54.74,259.58,25.79Z" transform="translate(0 0.06)"/><path class="cls-36" d="M279.13,34.3c-10.12.11-20-4.54-24.9-13.25" transform="translate(0 0.06)"/><path class="cls-1" d="M1036.54,328.76s9.13-8.64,16.47-4,18.68,15.67,18.68,15.67S1032.14,357.72,1036.54,328.76Z" transform="translate(0 0.06)"/><path class="cls-36" d="M1056.09,337.29c-10.12.11-20-4.54-24.9-13.25" transform="translate(0 0.06)"/></svg>